<svg xmlns="http://www.w3.org/2000/svg" width="1030" height="420" viewBox="0 0 1030 420">
  <g id="Grupo_134909" data-name="Grupo 134909" transform="translate(9936 6054)">
    <g id="Grupo_134908" data-name="Grupo 134908" transform="translate(142 68)">
      <g id="Grupo_134907" data-name="Grupo 134907">
        <path id="Trazado_149782" data-name="Trazado 149782" d="M14,0H178a14,14,0,0,1,14,14V119a14,14,0,0,1-14,14H14A14,14,0,0,1,0,119V14A14,14,0,0,1,14,0Z" transform="translate(-9771 -5908)" fill="#78b62e"/>
        <path id="Trazado_149780" data-name="Trazado 149780" d="M14,0H178a14,14,0,0,1,14,14v88a14,14,0,0,1-14,14H14A14,14,0,0,1,0,102V14A14,14,0,0,1,14,0Z" transform="translate(-9771 -6049)" fill="#78b62e"/>
        <path id="Trazado_149783" data-name="Trazado 149783" d="M14,0H178a14,14,0,0,1,14,14v88a14,14,0,0,1-14,14H14A14,14,0,0,1,0,102V14A14,14,0,0,1,14,0Z" transform="translate(-9542 -6049)" fill="#78b62e"/>
        <path id="Trazado_149784" data-name="Trazado 149784" d="M14,0H178a14,14,0,0,1,14,14V119a14,14,0,0,1-14,14H14A14,14,0,0,1,0,119V14A14,14,0,0,1,14,0Z" transform="translate(-9542 -5908)" fill="#78b62e"/>
        <path id="Trazado_149789" data-name="Trazado 149789" d="M22.492,10.865a7.546,7.546,0,0,1-.694,3.313A5.132,5.132,0,0,1,19.825,16.4a5.494,5.494,0,0,1-2.914.778,5.572,5.572,0,0,1-2.9-.751,5.123,5.123,0,0,1-1.973-2.149,7.329,7.329,0,0,1-.743-3.208v-.721a7.58,7.58,0,0,1,.69-3.318A5.119,5.119,0,0,1,13.962,4.81a5.533,5.533,0,0,1,2.931-.782,5.479,5.479,0,0,1,2.9.773A5.211,5.211,0,0,1,21.776,7a7.362,7.362,0,0,1,.716,3.274Zm-3.138-.536a5.381,5.381,0,0,0-.637-2.9,2.044,2.044,0,0,0-1.824-.989q-2.32,0-2.452,3.48l-.009.94a5.535,5.535,0,0,0,.624,2.892,2.041,2.041,0,0,0,1.854,1.011,2.016,2.016,0,0,0,1.8-.993,5.383,5.383,0,0,0,.642-2.856Zm13.421,2a5.8,5.8,0,0,1-.967,3.595,3.238,3.238,0,0,1-2.725,1.257,2.81,2.81,0,0,1-2.338-1.151L26.623,17H23.969V3.5h2.962V8.255a2.711,2.711,0,0,1,2.136-.94,3.239,3.239,0,0,1,2.742,1.274,5.826,5.826,0,0,1,.967,3.586ZM29.8,12.135a3.866,3.866,0,0,0-.365-1.952A1.229,1.229,0,0,0,28.319,9.6a1.418,1.418,0,0,0-1.389.763v3.773a1.426,1.426,0,0,0,1.406.755,1.258,1.258,0,0,0,1.327-1.018A7.309,7.309,0,0,0,29.8,12.135ZM37.267,7.49v9.835a3.452,3.452,0,0,1-.967,2.6,3.714,3.714,0,0,1-2.672.914,6.308,6.308,0,0,1-1.4-.149V18.45a5.667,5.667,0,0,0,.835.079,1.084,1.084,0,0,0,1.23-1.222V7.49Zm-3.19-2.461a1.334,1.334,0,0,1,.457-1.043,1.934,1.934,0,0,1,2.373,0,1.334,1.334,0,0,1,.457,1.043,1.334,1.334,0,0,1-.457,1.043,1.934,1.934,0,0,1-2.373,0A1.334,1.334,0,0,1,34.076,5.029Zm9.466,12.146A4.889,4.889,0,0,1,40,15.871a4.507,4.507,0,0,1-1.354-3.4v-.246a5.84,5.84,0,0,1,.541-2.575,3.955,3.955,0,0,1,1.578-1.727,4.763,4.763,0,0,1,2.461-.611A4.117,4.117,0,0,1,46.39,8.558a4.887,4.887,0,0,1,1.16,3.467v1.151H41.661a2.135,2.135,0,0,0,.694,1.257,2.066,2.066,0,0,0,1.389.457,2.662,2.662,0,0,0,2.2-.984l1.354,1.6a3.784,3.784,0,0,1-1.569,1.217A5.3,5.3,0,0,1,43.542,17.176ZM43.208,9.6q-1.3,0-1.547,1.723h2.988v-.229a1.467,1.467,0,0,0-.36-1.1A1.434,1.434,0,0,0,43.208,9.6ZM52.19,5.126V7.49h1.564V9.547H52.19V13.9a1.111,1.111,0,0,0,.193.747,1.037,1.037,0,0,0,.765.211,4.345,4.345,0,0,0,.738-.053v2.118a5.466,5.466,0,0,1-1.67.255,3.1,3.1,0,0,1-2.259-.721,2.954,2.954,0,0,1-.729-2.188V9.547H48.016V7.49h1.213V5.126ZM58.044,17H55.073V7.49h2.971ZM54.9,5.029a1.334,1.334,0,0,1,.457-1.043,1.934,1.934,0,0,1,2.373,0,1.334,1.334,0,0,1,.457,1.043,1.334,1.334,0,0,1-.457,1.043,1.934,1.934,0,0,1-2.373,0A1.334,1.334,0,0,1,54.9,5.029Zm8.763,8.446,1.5-5.985h3.12L65.181,17H62.157l-3.1-9.51h3.129Zm5-1.318a5.613,5.613,0,0,1,.554-2.536,3.96,3.96,0,0,1,1.591-1.709,4.791,4.791,0,0,1,2.435-.6,4.373,4.373,0,0,1,3.366,1.323,5.076,5.076,0,0,1,1.23,3.6v.105A4.925,4.925,0,0,1,76.6,15.871a4.384,4.384,0,0,1-3.344,1.305A4.434,4.434,0,0,1,70,15.958a4.761,4.761,0,0,1-1.327-3.3Zm2.962.185a3.538,3.538,0,0,0,.413,1.934,1.376,1.376,0,0,0,1.222.615q1.582,0,1.617-2.435v-.3q0-2.558-1.635-2.558-1.485,0-1.608,2.206ZM7.762,42.176A4.889,4.889,0,0,1,4.22,40.871a4.507,4.507,0,0,1-1.354-3.4v-.246a5.84,5.84,0,0,1,.541-2.575,3.955,3.955,0,0,1,1.578-1.727,4.763,4.763,0,0,1,2.461-.611,4.117,4.117,0,0,1,3.164,1.244,4.887,4.887,0,0,1,1.16,3.467v1.151H5.881a2.135,2.135,0,0,0,.694,1.257,2.066,2.066,0,0,0,1.389.457,2.662,2.662,0,0,0,2.2-.984l1.354,1.6a3.784,3.784,0,0,1-1.569,1.217A5.3,5.3,0,0,1,7.762,42.176ZM7.428,34.6q-1.3,0-1.547,1.723H8.869v-.229a1.467,1.467,0,0,0-.36-1.1A1.434,1.434,0,0,0,7.428,34.6Zm10.512,4.729a.684.684,0,0,0-.4-.606,6.016,6.016,0,0,0-1.5-.475,6.853,6.853,0,0,1-1.828-.646,3.062,3.062,0,0,1-1.1-.971,2.319,2.319,0,0,1-.378-1.31,2.628,2.628,0,0,1,1.081-2.158,4.453,4.453,0,0,1,2.83-.848,4.934,4.934,0,0,1,3.023.853,2.666,2.666,0,0,1,1.143,2.241H17.843q0-1.143-1.2-1.143a1.194,1.194,0,0,0-.782.259.8.8,0,0,0-.316.646.737.737,0,0,0,.387.642,3.654,3.654,0,0,0,1.235.4,10.671,10.671,0,0,1,1.49.378A2.706,2.706,0,0,1,20.8,39.24a2.491,2.491,0,0,1-1.156,2.118,5.068,5.068,0,0,1-2.993.817,5.172,5.172,0,0,1-2.18-.439,3.645,3.645,0,0,1-1.494-1.2,2.707,2.707,0,0,1-.536-1.591h2.769a1.145,1.145,0,0,0,.439.962,1.808,1.808,0,0,0,1.081.3,1.422,1.422,0,0,0,.91-.246A.787.787,0,0,0,17.939,39.328Zm13.069-2.013a5.735,5.735,0,0,1-1,3.538,3.2,3.2,0,0,1-2.694,1.323,2.742,2.742,0,0,1-2.153-.958v4.438H22.2V32.49h2.769l.088.879A2.742,2.742,0,0,1,27.3,32.314a3.224,3.224,0,0,1,2.733,1.3,5.805,5.805,0,0,1,.976,3.564Zm-2.962-.185q0-2.531-1.477-2.531a1.394,1.394,0,0,0-1.406.756V39.1a1.439,1.439,0,0,0,1.424.791q1.415,0,1.459-2.443Zm8.868,5.045a4.889,4.889,0,0,1-3.542-1.305,4.507,4.507,0,0,1-1.354-3.4v-.246a5.84,5.84,0,0,1,.541-2.575,3.955,3.955,0,0,1,1.578-1.727,4.763,4.763,0,0,1,2.461-.611,4.117,4.117,0,0,1,3.164,1.244,4.887,4.887,0,0,1,1.16,3.467v1.151H35.034a2.135,2.135,0,0,0,.694,1.257,2.066,2.066,0,0,0,1.389.457,2.662,2.662,0,0,0,2.2-.984l1.354,1.6A3.784,3.784,0,0,1,39.1,41.723,5.3,5.3,0,0,1,36.915,42.176ZM36.581,34.6q-1.3,0-1.547,1.723h2.988v-.229a1.467,1.467,0,0,0-.36-1.1A1.434,1.434,0,0,0,36.581,34.6Zm9.554,5.291a1.317,1.317,0,0,0,.967-.338,1.241,1.241,0,0,0,.334-.945h2.777a3.288,3.288,0,0,1-1.121,2.566,4.168,4.168,0,0,1-2.887,1,4.22,4.22,0,0,1-3.27-1.3,5.125,5.125,0,0,1-1.2-3.6v-.123a5.792,5.792,0,0,1,.532-2.544,3.872,3.872,0,0,1,1.534-1.7,4.573,4.573,0,0,1,2.373-.593,4.116,4.116,0,0,1,2.944,1.028,3.647,3.647,0,0,1,1.09,2.786H47.436A1.626,1.626,0,0,0,47.075,35a1.244,1.244,0,0,0-.967-.4q-1.151,0-1.345,1.468a10.357,10.357,0,0,0-.062,1.283,4.068,4.068,0,0,0,.343,1.986A1.187,1.187,0,0,0,46.135,39.891ZM54.7,42H51.716V32.49H54.7ZM53.588,28.676h3.129l-2.443,2.76-2.417,0ZM57.288,42V34.547h-1.38V32.49h1.38v-.316a3.631,3.631,0,0,1,1.248-2.909,4.987,4.987,0,0,1,3.243-.949,11.509,11.509,0,0,1,3.094.51l-.4,2.338-.492-.132a7.832,7.832,0,0,0-2.021-.255q-1.7,0-1.7,1.547v.167h1.863v2.057H60.259V42Zm8.947,0H63.256V32.49h2.979Zm5.827-2.109a1.317,1.317,0,0,0,.967-.338,1.241,1.241,0,0,0,.334-.945h2.777a3.288,3.288,0,0,1-1.121,2.566,4.168,4.168,0,0,1-2.887,1,4.22,4.22,0,0,1-3.27-1.3,5.125,5.125,0,0,1-1.2-3.6v-.123A5.792,5.792,0,0,1,68.2,34.6a3.872,3.872,0,0,1,1.534-1.7,4.573,4.573,0,0,1,2.373-.593,4.116,4.116,0,0,1,2.944,1.028,3.647,3.647,0,0,1,1.09,2.786H73.363A1.626,1.626,0,0,0,73,35a1.244,1.244,0,0,0-.967-.4q-1.151,0-1.345,1.468a10.357,10.357,0,0,0-.062,1.283,4.068,4.068,0,0,0,.343,1.986A1.187,1.187,0,0,0,72.063,39.891Zm4.957-2.733a5.613,5.613,0,0,1,.554-2.536,3.96,3.96,0,0,1,1.591-1.709,4.791,4.791,0,0,1,2.435-.6,4.373,4.373,0,0,1,3.366,1.323,5.076,5.076,0,0,1,1.23,3.6v.105a4.925,4.925,0,0,1-1.235,3.529,4.384,4.384,0,0,1-3.344,1.305,4.434,4.434,0,0,1-3.261-1.217,4.761,4.761,0,0,1-1.327-3.3Zm2.962.185a3.538,3.538,0,0,0,.413,1.934,1.376,1.376,0,0,0,1.222.615q1.582,0,1.617-2.435v-.3q0-2.558-1.635-2.558-1.485,0-1.608,2.206Z" transform="translate(-9490 -6014)" fill="#12263f"/>
        <path id="Trazado_149790" data-name="Trazado 149790" d="M21.007,12.667a4.673,4.673,0,0,1-.721,2.36,4.35,4.35,0,0,1-1.85,1.586,6.3,6.3,0,0,1-2.72.563,5.025,5.025,0,0,1-3.973-1.644,6.786,6.786,0,0,1-1.45-4.641v-.633a7.746,7.746,0,0,1,.655-3.292,4.961,4.961,0,0,1,1.885-2.18,5.26,5.26,0,0,1,2.848-.769,5.516,5.516,0,0,1,3.744,1.226,4.844,4.844,0,0,1,1.608,3.379H17.957a2.292,2.292,0,0,0-.589-1.679,2.422,2.422,0,0,0-1.687-.51,1.843,1.843,0,0,0-1.687.861,5.536,5.536,0,0,0-.562,2.751v.905a6.126,6.126,0,0,0,.514,2.927,1.882,1.882,0,0,0,1.771.879,2.369,2.369,0,0,0,1.626-.5,2.126,2.126,0,0,0,.6-1.591ZM27.687,17a3.344,3.344,0,0,1-.281-.853,2.754,2.754,0,0,1-2.285,1.028,3.374,3.374,0,0,1-2.285-.813,2.588,2.588,0,0,1-.94-2.043,2.66,2.66,0,0,1,1.143-2.338,5.821,5.821,0,0,1,3.322-.791h.914v-.5q0-1.316-1.134-1.316a.927.927,0,0,0-1.055,1.042H22.123A2.655,2.655,0,0,1,23.3,8.175a4.931,4.931,0,0,1,2.993-.86,4.323,4.323,0,0,1,2.874.888,3.086,3.086,0,0,1,1.081,2.435v4.21a4.311,4.311,0,0,0,.4,2V17Zm-1.854-1.934a1.652,1.652,0,0,0,.918-.237,1.487,1.487,0,0,0,.523-.536V12.772h-.861q-1.547,0-1.547,1.389a.848.848,0,0,0,.272.655A.986.986,0,0,0,25.832,15.066Zm11.8-4.9-.976-.07a1.752,1.752,0,0,0-1.793.879V17H31.905V7.49h2.777l.1,1.222a2.294,2.294,0,0,1,2.083-1.4,2.888,2.888,0,0,1,.826.105ZM43.8,17a3.344,3.344,0,0,1-.281-.853,2.754,2.754,0,0,1-2.285,1.028,3.374,3.374,0,0,1-2.285-.813A2.588,2.588,0,0,1,38,14.319a2.66,2.66,0,0,1,1.143-2.338,5.821,5.821,0,0,1,3.322-.791h.914v-.5q0-1.316-1.134-1.316A.927.927,0,0,0,41.2,10.413H38.233a2.655,2.655,0,0,1,1.173-2.239,4.931,4.931,0,0,1,2.993-.86,4.323,4.323,0,0,1,2.874.888,3.086,3.086,0,0,1,1.081,2.435v4.21a4.311,4.311,0,0,0,.4,2V17Zm-1.854-1.934a1.652,1.652,0,0,0,.918-.237,1.487,1.487,0,0,0,.523-.536V12.772h-.861q-1.547,0-1.547,1.389a.848.848,0,0,0,.272.655A.986.986,0,0,0,41.942,15.066ZM42.681,3.5H45.81L43.366,6.26l-2.417,0Zm9.334,11.391a1.317,1.317,0,0,0,.967-.338,1.241,1.241,0,0,0,.334-.945h2.777a3.288,3.288,0,0,1-1.121,2.566,4.168,4.168,0,0,1-2.887,1,4.22,4.22,0,0,1-3.27-1.3,5.125,5.125,0,0,1-1.2-3.6v-.123A5.792,5.792,0,0,1,48.152,9.6a3.872,3.872,0,0,1,1.534-1.7,4.573,4.573,0,0,1,2.373-.593A4.116,4.116,0,0,1,55,8.343a3.647,3.647,0,0,1,1.09,2.786H53.315A1.626,1.626,0,0,0,52.955,10a1.244,1.244,0,0,0-.967-.4q-1.151,0-1.345,1.468a10.357,10.357,0,0,0-.062,1.283,4.068,4.068,0,0,0,.343,1.986A1.187,1.187,0,0,0,52.015,14.891Zm8.78-9.765V7.49h1.564V9.547H60.795V13.9a1.111,1.111,0,0,0,.193.747,1.037,1.037,0,0,0,.765.211,4.345,4.345,0,0,0,.738-.053v2.118a5.466,5.466,0,0,1-1.67.255,3.1,3.1,0,0,1-2.259-.721,2.954,2.954,0,0,1-.729-2.188V9.547H56.62V7.49h1.213V5.126Zm7.33,12.05a4.889,4.889,0,0,1-3.542-1.305,4.507,4.507,0,0,1-1.354-3.4v-.246a5.84,5.84,0,0,1,.541-2.575,3.955,3.955,0,0,1,1.578-1.727,4.763,4.763,0,0,1,2.461-.611,4.117,4.117,0,0,1,3.164,1.244,4.887,4.887,0,0,1,1.16,3.467v1.151H66.244a2.135,2.135,0,0,0,.694,1.257,2.066,2.066,0,0,0,1.389.457,2.662,2.662,0,0,0,2.2-.984l1.354,1.6a3.784,3.784,0,0,1-1.569,1.217A5.3,5.3,0,0,1,68.125,17.176ZM67.791,9.6q-1.3,0-1.547,1.723h2.988v-.229a1.467,1.467,0,0,0-.36-1.1A1.434,1.434,0,0,0,67.791,9.6Zm11.285.571L78.1,10.1a1.752,1.752,0,0,0-1.793.879V17H73.346V7.49h2.777l.1,1.222a2.294,2.294,0,0,1,2.083-1.4,2.888,2.888,0,0,1,.826.105Zm-57.924,30.8a3.054,3.054,0,0,1-2.54,1.2,3,3,0,0,1-2.369-.91,3.826,3.826,0,0,1-.8-2.615V32.49H18.4v6.179a1.065,1.065,0,0,0,1.187,1.222,1.548,1.548,0,0,0,1.45-.729V32.49h2.979V42H21.24Zm7.207-8.481.1,1.116a3.225,3.225,0,0,1,2.716-1.292,2.713,2.713,0,0,1,2.219.888,4.226,4.226,0,0,1,.76,2.672V42H31.18V36a1.6,1.6,0,0,0-.29-1.059,1.342,1.342,0,0,0-1.055-.338,1.413,1.413,0,0,0-1.292.686V42H25.582V32.49ZM39.02,42H36.041V32.49H39.02ZM37.913,28.676h3.129L38.6,31.436l-2.417,0Zm6.8,9.8,1.5-5.985h3.12L46.236,42H43.212l-3.1-9.51h3.129Zm5-1.318a5.613,5.613,0,0,1,.554-2.536,3.96,3.96,0,0,1,1.591-1.709,4.791,4.791,0,0,1,2.435-.6,4.373,4.373,0,0,1,3.366,1.323,5.076,5.076,0,0,1,1.23,3.6v.105a4.925,4.925,0,0,1-1.235,3.529,4.384,4.384,0,0,1-3.344,1.305,4.434,4.434,0,0,1-3.261-1.217,4.761,4.761,0,0,1-1.327-3.3Zm2.962.185a3.538,3.538,0,0,0,.413,1.934,1.376,1.376,0,0,0,1.222.615q1.582,0,1.617-2.435v-.3q0-2.558-1.635-2.558-1.485,0-1.608,2.206Zm11.54,2.549a1.317,1.317,0,0,0,.967-.338,1.241,1.241,0,0,0,.334-.945H68.3a3.288,3.288,0,0,1-1.121,2.566,4.168,4.168,0,0,1-2.887,1,4.22,4.22,0,0,1-3.27-1.3,5.125,5.125,0,0,1-1.2-3.6v-.123a5.792,5.792,0,0,1,.532-2.544,3.872,3.872,0,0,1,1.534-1.7,4.573,4.573,0,0,1,2.373-.593,4.116,4.116,0,0,1,2.944,1.028,3.647,3.647,0,0,1,1.09,2.786H65.519A1.626,1.626,0,0,0,65.159,35a1.244,1.244,0,0,0-.967-.4q-1.151,0-1.345,1.468a10.357,10.357,0,0,0-.062,1.283,4.068,4.068,0,0,0,.343,1.986A1.187,1.187,0,0,0,64.218,39.891Zm4.957-2.733a5.613,5.613,0,0,1,.554-2.536,3.96,3.96,0,0,1,1.591-1.709,4.791,4.791,0,0,1,2.435-.6,4.373,4.373,0,0,1,3.366,1.323,5.076,5.076,0,0,1,1.23,3.6v.105a4.925,4.925,0,0,1-1.235,3.529,4.384,4.384,0,0,1-3.344,1.305,4.434,4.434,0,0,1-3.261-1.217,4.761,4.761,0,0,1-1.327-3.3Zm2.962.185a3.538,3.538,0,0,0,.413,1.934,1.376,1.376,0,0,0,1.222.615q1.582,0,1.617-2.435v-.3q0-2.558-1.635-2.558-1.485,0-1.608,2.206Z" transform="translate(-9490 -5864)" fill="#12263f"/>
        <path id="Trazado_149781" data-name="Trazado 149781" d="M19.825,12.667a4.673,4.673,0,0,1-.721,2.36,4.35,4.35,0,0,1-1.85,1.586,6.3,6.3,0,0,1-2.72.563,5.025,5.025,0,0,1-3.973-1.644,6.786,6.786,0,0,1-1.45-4.641v-.633a7.746,7.746,0,0,1,.655-3.292,4.961,4.961,0,0,1,1.885-2.18A5.26,5.26,0,0,1,14.5,4.019a5.516,5.516,0,0,1,3.744,1.226,4.844,4.844,0,0,1,1.608,3.379H16.775a2.292,2.292,0,0,0-.589-1.679,2.422,2.422,0,0,0-1.687-.51,1.843,1.843,0,0,0-1.687.861,5.536,5.536,0,0,0-.562,2.751v.905a6.126,6.126,0,0,0,.514,2.927,1.882,1.882,0,0,0,1.771.879,2.369,2.369,0,0,0,1.626-.5,2.126,2.126,0,0,0,.6-1.591Zm7.075-2.5-.976-.07a1.752,1.752,0,0,0-1.793.879V17H21.169V7.49h2.777l.1,1.222a2.294,2.294,0,0,1,2.083-1.4,2.888,2.888,0,0,1,.826.105Zm5.5,7a4.889,4.889,0,0,1-3.542-1.305,4.507,4.507,0,0,1-1.354-3.4v-.246a5.84,5.84,0,0,1,.541-2.575,3.955,3.955,0,0,1,1.578-1.727,4.763,4.763,0,0,1,2.461-.611A4.117,4.117,0,0,1,35.25,8.558a4.887,4.887,0,0,1,1.16,3.467v1.151H30.521a2.135,2.135,0,0,0,.694,1.257,2.066,2.066,0,0,0,1.389.457,2.662,2.662,0,0,0,2.2-.984l1.354,1.6a3.784,3.784,0,0,1-1.569,1.217A5.3,5.3,0,0,1,32.4,17.176ZM32.068,9.6q-1.3,0-1.547,1.723h2.988v-.229a1.467,1.467,0,0,0-.36-1.1A1.434,1.434,0,0,0,32.068,9.6Zm9.554,5.291a1.317,1.317,0,0,0,.967-.338,1.241,1.241,0,0,0,.334-.945H45.7a3.288,3.288,0,0,1-1.121,2.566,4.168,4.168,0,0,1-2.887,1,4.22,4.22,0,0,1-3.27-1.3,5.125,5.125,0,0,1-1.2-3.6v-.123A5.792,5.792,0,0,1,37.759,9.6a3.872,3.872,0,0,1,1.534-1.7,4.573,4.573,0,0,1,2.373-.593A4.116,4.116,0,0,1,44.61,8.343a3.647,3.647,0,0,1,1.09,2.786H42.922A1.626,1.626,0,0,0,42.562,10a1.244,1.244,0,0,0-.967-.4q-1.151,0-1.345,1.468a10.357,10.357,0,0,0-.062,1.283,4.068,4.068,0,0,0,.343,1.986A1.187,1.187,0,0,0,41.622,14.891ZM50.077,17H47.106V7.49h2.971ZM46.93,5.029a1.334,1.334,0,0,1,.457-1.043,1.934,1.934,0,0,1,2.373,0,1.334,1.334,0,0,1,.457,1.043,1.334,1.334,0,0,1-.457,1.043,1.934,1.934,0,0,1-2.373,0A1.334,1.334,0,0,1,46.93,5.029ZM54.7,7.49l.1,1.116a3.27,3.27,0,0,1,2.716-1.292,2.407,2.407,0,0,1,2.435,1.433,3.165,3.165,0,0,1,2.795-1.433q2.892,0,2.971,3.5V17H62.742V11A1.813,1.813,0,0,0,62.5,9.934a1.048,1.048,0,0,0-.9-.334,1.4,1.4,0,0,0-1.31.782l.009.123V17H57.328V11.015a1.906,1.906,0,0,0-.237-1.081,1.045,1.045,0,0,0-.905-.334,1.42,1.42,0,0,0-1.3.782V17H51.922V7.49ZM70.529,17H67.558V7.49h2.971ZM67.382,5.029a1.334,1.334,0,0,1,.457-1.043,1.934,1.934,0,0,1,2.373,0,1.334,1.334,0,0,1,.457,1.043,1.334,1.334,0,0,1-.457,1.043,1.934,1.934,0,0,1-2.373,0A1.334,1.334,0,0,1,67.382,5.029Zm9.571,12.146a4.889,4.889,0,0,1-3.542-1.305,4.507,4.507,0,0,1-1.354-3.4v-.246A5.84,5.84,0,0,1,72.6,9.652a3.955,3.955,0,0,1,1.578-1.727,4.763,4.763,0,0,1,2.461-.611A4.117,4.117,0,0,1,79.8,8.558a4.887,4.887,0,0,1,1.16,3.467v1.151H75.073a2.135,2.135,0,0,0,.694,1.257,2.066,2.066,0,0,0,1.389.457,2.662,2.662,0,0,0,2.2-.984l1.354,1.6a3.784,3.784,0,0,1-1.569,1.217A5.3,5.3,0,0,1,76.954,17.176ZM76.62,9.6q-1.3,0-1.547,1.723h2.988v-.229a1.467,1.467,0,0,0-.36-1.1A1.434,1.434,0,0,0,76.62,9.6ZM84.873,7.49l.1,1.116a3.225,3.225,0,0,1,2.716-1.292A2.713,2.713,0,0,1,89.9,8.2a4.226,4.226,0,0,1,.76,2.672V17H87.694V11a1.6,1.6,0,0,0-.29-1.059A1.342,1.342,0,0,0,86.349,9.6a1.413,1.413,0,0,0-1.292.686V17H82.1V7.49ZM95.753,5.126V7.49h1.564V9.547H95.753V13.9a1.111,1.111,0,0,0,.193.747,1.037,1.037,0,0,0,.765.211,4.345,4.345,0,0,0,.738-.053v2.118a5.466,5.466,0,0,1-1.67.255,3.1,3.1,0,0,1-2.259-.721,2.954,2.954,0,0,1-.729-2.188V9.547H91.579V7.49h1.213V5.126Zm2.092,7.031A5.613,5.613,0,0,1,98.4,9.622,3.96,3.96,0,0,1,99.99,7.912a4.791,4.791,0,0,1,2.435-.6,4.373,4.373,0,0,1,3.366,1.323,5.076,5.076,0,0,1,1.23,3.6v.105a4.925,4.925,0,0,1-1.235,3.529,4.384,4.384,0,0,1-3.344,1.305,4.434,4.434,0,0,1-3.261-1.217,4.761,4.761,0,0,1-1.327-3.3Zm2.962.185a3.538,3.538,0,0,0,.413,1.934,1.376,1.376,0,0,0,1.222.615q1.582,0,1.617-2.435v-.3q0-2.558-1.635-2.558-1.485,0-1.608,2.206ZM14.327,42.176a4.889,4.889,0,0,1-3.542-1.305,4.507,4.507,0,0,1-1.354-3.4v-.246a5.84,5.84,0,0,1,.541-2.575,3.955,3.955,0,0,1,1.578-1.727,4.763,4.763,0,0,1,2.461-.611,4.117,4.117,0,0,1,3.164,1.244,4.887,4.887,0,0,1,1.16,3.467v1.151H12.446a2.135,2.135,0,0,0,.694,1.257,2.066,2.066,0,0,0,1.389.457,2.662,2.662,0,0,0,2.2-.984l1.354,1.6a3.784,3.784,0,0,1-1.569,1.217A5.3,5.3,0,0,1,14.327,42.176ZM13.993,34.6q-1.3,0-1.547,1.723h2.988v-.229a1.467,1.467,0,0,0-.36-1.1A1.434,1.434,0,0,0,13.993,34.6Zm9.387.51,1.38-2.619h3.076l-2.5,4.632L27.959,42H24.865l-1.494-2.812L21.9,42H18.792l2.637-4.878-2.5-4.632h3.111Zm14.238,2.206a5.735,5.735,0,0,1-1,3.538,3.2,3.2,0,0,1-2.694,1.323,2.742,2.742,0,0,1-2.153-.958v4.438H28.812V32.49H31.58l.088.879a2.742,2.742,0,0,1,2.241-1.055,3.224,3.224,0,0,1,2.733,1.3,5.805,5.805,0,0,1,.976,3.564Zm-2.962-.185q0-2.531-1.477-2.531a1.394,1.394,0,0,0-1.406.756V39.1a1.439,1.439,0,0,0,1.424.791q1.415,0,1.459-2.443Zm3.894.026a5.613,5.613,0,0,1,.554-2.536,3.96,3.96,0,0,1,1.591-1.709,4.791,4.791,0,0,1,2.435-.6A4.373,4.373,0,0,1,46.5,33.637a5.076,5.076,0,0,1,1.23,3.6v.105a4.925,4.925,0,0,1-1.235,3.529,4.384,4.384,0,0,1-3.344,1.305,4.434,4.434,0,0,1-3.261-1.217,4.761,4.761,0,0,1-1.327-3.3Zm2.962.185a3.538,3.538,0,0,0,.413,1.934,1.376,1.376,0,0,0,1.222.615q1.582,0,1.617-2.435v-.3q0-2.558-1.635-2.558-1.485,0-1.608,2.206ZM51.751,32.49l.1,1.116a3.225,3.225,0,0,1,2.716-1.292,2.713,2.713,0,0,1,2.219.888,4.226,4.226,0,0,1,.76,2.672V42H54.572V36a1.6,1.6,0,0,0-.29-1.059,1.342,1.342,0,0,0-1.055-.338,1.413,1.413,0,0,0-1.292.686V42H48.974V32.49Zm12.032,9.686a4.889,4.889,0,0,1-3.542-1.305,4.507,4.507,0,0,1-1.354-3.4v-.246a5.84,5.84,0,0,1,.541-2.575,3.955,3.955,0,0,1,1.578-1.727,4.763,4.763,0,0,1,2.461-.611,4.117,4.117,0,0,1,3.164,1.244,4.887,4.887,0,0,1,1.16,3.467v1.151H61.9a2.135,2.135,0,0,0,.694,1.257,2.066,2.066,0,0,0,1.389.457,2.662,2.662,0,0,0,2.2-.984l1.354,1.6a3.784,3.784,0,0,1-1.569,1.217A5.3,5.3,0,0,1,63.783,42.176ZM63.449,34.6q-1.3,0-1.547,1.723h2.988v-.229a1.467,1.467,0,0,0-.36-1.1A1.434,1.434,0,0,0,63.449,34.6ZM71.7,32.49l.1,1.116a3.225,3.225,0,0,1,2.716-1.292,2.713,2.713,0,0,1,2.219.888,4.226,4.226,0,0,1,.76,2.672V42H74.523V36a1.6,1.6,0,0,0-.29-1.059,1.342,1.342,0,0,0-1.055-.338,1.413,1.413,0,0,0-1.292.686V42H68.925V32.49Zm11.452,7.4a1.317,1.317,0,0,0,.967-.338,1.241,1.241,0,0,0,.334-.945h2.777a3.288,3.288,0,0,1-1.121,2.566,4.168,4.168,0,0,1-2.887,1,4.22,4.22,0,0,1-3.27-1.3,5.125,5.125,0,0,1-1.2-3.6v-.123a5.792,5.792,0,0,1,.532-2.544,3.872,3.872,0,0,1,1.534-1.7,4.573,4.573,0,0,1,2.373-.593,4.116,4.116,0,0,1,2.944,1.028,3.647,3.647,0,0,1,1.09,2.786H84.455A1.626,1.626,0,0,0,84.095,35a1.244,1.244,0,0,0-.967-.4q-1.151,0-1.345,1.468a10.357,10.357,0,0,0-.062,1.283,4.068,4.068,0,0,0,.343,1.986A1.187,1.187,0,0,0,83.154,39.891ZM91.609,42H88.639V32.49h2.971ZM88.463,30.029a1.334,1.334,0,0,1,.457-1.043,1.934,1.934,0,0,1,2.373,0,1.42,1.42,0,0,1,0,2.087,1.934,1.934,0,0,1-2.373,0A1.334,1.334,0,0,1,88.463,30.029ZM98.79,42a3.344,3.344,0,0,1-.281-.853,2.754,2.754,0,0,1-2.285,1.028,3.374,3.374,0,0,1-2.285-.813A2.588,2.588,0,0,1,93,39.319a2.66,2.66,0,0,1,1.143-2.338,5.821,5.821,0,0,1,3.322-.791h.914v-.5q0-1.316-1.134-1.316a.927.927,0,0,0-1.055,1.042H93.227A2.655,2.655,0,0,1,94.4,33.175a4.931,4.931,0,0,1,2.993-.86,4.323,4.323,0,0,1,2.874.888,3.086,3.086,0,0,1,1.081,2.435v4.21a4.311,4.311,0,0,0,.4,2V42Zm-1.854-1.934a1.652,1.652,0,0,0,.918-.237,1.487,1.487,0,0,0,.523-.536V37.772h-.861q-1.547,0-1.547,1.389a.848.848,0,0,0,.272.655A.986.986,0,0,0,96.936,40.066ZM106.111,42h-2.971V28.5h2.971Z" transform="translate(-9733 -6014)" fill="#12263f"/>
        <path id="Trazado_149785" data-name="Trazado 149785" d="M20.726,12.667A4.673,4.673,0,0,1,20,15.027a4.35,4.35,0,0,1-1.85,1.586,6.3,6.3,0,0,1-2.72.563,5.025,5.025,0,0,1-3.973-1.644,6.786,6.786,0,0,1-1.45-4.641v-.633a7.746,7.746,0,0,1,.655-3.292,4.961,4.961,0,0,1,1.885-2.18A5.26,5.26,0,0,1,15.4,4.019a5.516,5.516,0,0,1,3.744,1.226,4.844,4.844,0,0,1,1.608,3.379H17.676a2.292,2.292,0,0,0-.589-1.679,2.422,2.422,0,0,0-1.687-.51,1.843,1.843,0,0,0-1.687.861,5.536,5.536,0,0,0-.562,2.751v.905a6.126,6.126,0,0,0,.514,2.927,1.882,1.882,0,0,0,1.771.879,2.369,2.369,0,0,0,1.626-.5,2.126,2.126,0,0,0,.6-1.591Zm.949-.51a5.613,5.613,0,0,1,.554-2.536,3.96,3.96,0,0,1,1.591-1.709,4.791,4.791,0,0,1,2.435-.6A4.373,4.373,0,0,1,29.62,8.637a5.076,5.076,0,0,1,1.23,3.6v.105a4.925,4.925,0,0,1-1.235,3.529,4.384,4.384,0,0,1-3.344,1.305,4.434,4.434,0,0,1-3.261-1.217,4.761,4.761,0,0,1-1.327-3.3Zm2.962.185a3.538,3.538,0,0,0,.413,1.934,1.376,1.376,0,0,0,1.222.615q1.582,0,1.617-2.435v-.3q0-2.558-1.635-2.558-1.485,0-1.608,2.206ZM35.052,8.51a3.251,3.251,0,0,1,4.8-.264A4.186,4.186,0,0,1,40.668,11v6H37.7V11.067a1.674,1.674,0,0,0-.308-1.112A1.322,1.322,0,0,0,36.344,9.6a1.424,1.424,0,0,0-1.292.58V17H32.09V3.5h2.962Zm11.865,8.666a4.889,4.889,0,0,1-3.542-1.305,4.507,4.507,0,0,1-1.354-3.4v-.246a5.84,5.84,0,0,1,.541-2.575A3.955,3.955,0,0,1,44.14,7.925,4.763,4.763,0,0,1,46.6,7.314a4.117,4.117,0,0,1,3.164,1.244,4.887,4.887,0,0,1,1.16,3.467v1.151H45.036a2.135,2.135,0,0,0,.694,1.257,2.066,2.066,0,0,0,1.389.457,2.662,2.662,0,0,0,2.2-.984l1.354,1.6A3.784,3.784,0,0,1,49.1,16.723,5.3,5.3,0,0,1,46.917,17.176ZM46.583,9.6q-1.3,0-1.547,1.723h2.988v-.229a1.467,1.467,0,0,0-.36-1.1A1.434,1.434,0,0,0,46.583,9.6Zm11.285.571-.976-.07a1.752,1.752,0,0,0-1.793.879V17H52.138V7.49h2.777l.1,1.222a2.294,2.294,0,0,1,2.083-1.4,2.888,2.888,0,0,1,.826.105Zm5.5,7a4.889,4.889,0,0,1-3.542-1.305,4.507,4.507,0,0,1-1.354-3.4v-.246a5.84,5.84,0,0,1,.541-2.575,3.955,3.955,0,0,1,1.578-1.727,4.763,4.763,0,0,1,2.461-.611,4.117,4.117,0,0,1,3.164,1.244,4.887,4.887,0,0,1,1.16,3.467v1.151H61.489a2.135,2.135,0,0,0,.694,1.257,2.066,2.066,0,0,0,1.389.457,2.662,2.662,0,0,0,2.2-.984l1.354,1.6a3.784,3.784,0,0,1-1.569,1.217A5.3,5.3,0,0,1,63.37,17.176ZM63.036,9.6q-1.3,0-1.547,1.723h2.988v-.229a1.467,1.467,0,0,0-.36-1.1A1.434,1.434,0,0,0,63.036,9.6ZM71.289,7.49l.1,1.116A3.225,3.225,0,0,1,74.1,7.314a2.713,2.713,0,0,1,2.219.888,4.226,4.226,0,0,1,.76,2.672V17H74.11V11a1.6,1.6,0,0,0-.29-1.059A1.342,1.342,0,0,0,72.766,9.6a1.413,1.413,0,0,0-1.292.686V17H68.512V7.49Zm11.452,7.4a1.317,1.317,0,0,0,.967-.338,1.241,1.241,0,0,0,.334-.945h2.777A3.288,3.288,0,0,1,85.7,16.174a4.168,4.168,0,0,1-2.887,1,4.22,4.22,0,0,1-3.27-1.3,5.125,5.125,0,0,1-1.2-3.6v-.123A5.792,5.792,0,0,1,78.878,9.6a3.872,3.872,0,0,1,1.534-1.7,4.573,4.573,0,0,1,2.373-.593,4.116,4.116,0,0,1,2.944,1.028,3.647,3.647,0,0,1,1.09,2.786H84.042A1.626,1.626,0,0,0,83.682,10a1.244,1.244,0,0,0-.967-.4q-1.151,0-1.345,1.468a10.357,10.357,0,0,0-.062,1.283,4.068,4.068,0,0,0,.343,1.986A1.187,1.187,0,0,0,82.741,14.891ZM91.2,17H88.226V7.49H91.2ZM88.05,5.029a1.334,1.334,0,0,1,.457-1.043,1.934,1.934,0,0,1,2.373,0,1.334,1.334,0,0,1,.457,1.043,1.334,1.334,0,0,1-.457,1.043,1.934,1.934,0,0,1-2.373,0A1.334,1.334,0,0,1,88.05,5.029ZM98.377,17a3.344,3.344,0,0,1-.281-.853,2.754,2.754,0,0,1-2.285,1.028,3.374,3.374,0,0,1-2.285-.813,2.588,2.588,0,0,1-.94-2.043,2.66,2.66,0,0,1,1.143-2.338,5.821,5.821,0,0,1,3.322-.791h.914v-.5q0-1.316-1.134-1.316a.927.927,0,0,0-1.055,1.042H92.813a2.655,2.655,0,0,1,1.173-2.239,4.931,4.931,0,0,1,2.993-.86,4.323,4.323,0,0,1,2.874.888,3.086,3.086,0,0,1,1.081,2.435v4.21a4.311,4.311,0,0,0,.4,2V17Zm-1.854-1.934a1.652,1.652,0,0,0,.918-.237,1.487,1.487,0,0,0,.523-.536V12.772H97.1q-1.547,0-1.547,1.389a.848.848,0,0,0,.272.655A.986.986,0,0,0,96.522,15.066Zm7.093,5.379-1.494-.7.3-.6a4.874,4.874,0,0,0,.642-2.18v-2.2h2.373l-.009,1.907a4.767,4.767,0,0,1-.519,2.057A5.226,5.226,0,0,1,103.615,20.445ZM19.025,39.891a1.317,1.317,0,0,0,.967-.338,1.241,1.241,0,0,0,.334-.945H23.1a3.288,3.288,0,0,1-1.121,2.566,4.168,4.168,0,0,1-2.887,1,4.22,4.22,0,0,1-3.27-1.3,5.125,5.125,0,0,1-1.2-3.6v-.123a5.792,5.792,0,0,1,.532-2.544,3.872,3.872,0,0,1,1.534-1.7,4.573,4.573,0,0,1,2.373-.593,4.116,4.116,0,0,1,2.944,1.028,3.647,3.647,0,0,1,1.09,2.786H20.326A1.626,1.626,0,0,0,19.965,35,1.244,1.244,0,0,0,19,34.6q-1.151,0-1.345,1.468a10.357,10.357,0,0,0-.062,1.283,4.068,4.068,0,0,0,.343,1.986A1.187,1.187,0,0,0,19.025,39.891Zm4.957-2.733a5.613,5.613,0,0,1,.554-2.536,3.96,3.96,0,0,1,1.591-1.709,4.791,4.791,0,0,1,2.435-.6,4.373,4.373,0,0,1,3.366,1.323,5.076,5.076,0,0,1,1.23,3.6v.105a4.925,4.925,0,0,1-1.235,3.529,4.384,4.384,0,0,1-3.344,1.305,4.434,4.434,0,0,1-3.261-1.217,4.761,4.761,0,0,1-1.327-3.3Zm2.962.185a3.538,3.538,0,0,0,.413,1.934,1.376,1.376,0,0,0,1.222.615q1.582,0,1.617-2.435v-.3q0-2.558-1.635-2.558-1.485,0-1.608,2.206ZM37.359,33.51a3.251,3.251,0,0,1,4.8-.264A4.186,4.186,0,0,1,42.975,36v6H40V36.067a1.674,1.674,0,0,0-.308-1.112,1.322,1.322,0,0,0-1.046-.356,1.424,1.424,0,0,0-1.292.58V42H34.4V28.5h2.962Zm11.865,8.666a4.889,4.889,0,0,1-3.542-1.305,4.507,4.507,0,0,1-1.354-3.4v-.246a5.84,5.84,0,0,1,.541-2.575,3.955,3.955,0,0,1,1.578-1.727,4.763,4.763,0,0,1,2.461-.611,4.117,4.117,0,0,1,3.164,1.244,4.887,4.887,0,0,1,1.16,3.467v1.151H47.343a2.135,2.135,0,0,0,.694,1.257,2.066,2.066,0,0,0,1.389.457,2.662,2.662,0,0,0,2.2-.984l1.354,1.6a3.784,3.784,0,0,1-1.569,1.217A5.3,5.3,0,0,1,49.224,42.176ZM48.89,34.6q-1.3,0-1.547,1.723h2.988v-.229a1.467,1.467,0,0,0-.36-1.1A1.434,1.434,0,0,0,48.89,34.6ZM59.4,39.328a.684.684,0,0,0-.4-.606,6.016,6.016,0,0,0-1.5-.475,6.853,6.853,0,0,1-1.828-.646,3.062,3.062,0,0,1-1.1-.971,2.319,2.319,0,0,1-.378-1.31,2.628,2.628,0,0,1,1.081-2.158,4.453,4.453,0,0,1,2.83-.848,4.934,4.934,0,0,1,3.023.853,2.666,2.666,0,0,1,1.143,2.241H59.305q0-1.143-1.2-1.143a1.194,1.194,0,0,0-.782.259.8.8,0,0,0-.316.646.737.737,0,0,0,.387.642,3.654,3.654,0,0,0,1.235.4,10.671,10.671,0,0,1,1.49.378,2.706,2.706,0,0,1,2.145,2.646A2.491,2.491,0,0,1,61.1,41.358a5.068,5.068,0,0,1-2.993.817,5.172,5.172,0,0,1-2.18-.439,3.645,3.645,0,0,1-1.494-1.2A2.707,2.707,0,0,1,53.9,38.95h2.769a1.145,1.145,0,0,0,.439.962,1.808,1.808,0,0,0,1.081.3,1.422,1.422,0,0,0,.91-.246A.787.787,0,0,0,59.4,39.328ZM66.767,42H63.8V32.49h2.971ZM63.621,30.029a1.334,1.334,0,0,1,.457-1.043,1.934,1.934,0,0,1,2.373,0,1.42,1.42,0,0,1,0,2.087,1.934,1.934,0,0,1-2.373,0A1.334,1.334,0,0,1,63.621,30.029Zm4.6,7.128a5.613,5.613,0,0,1,.554-2.536,3.96,3.96,0,0,1,1.591-1.709,4.791,4.791,0,0,1,2.435-.6,4.373,4.373,0,0,1,3.366,1.323,5.076,5.076,0,0,1,1.23,3.6v.105a4.925,4.925,0,0,1-1.235,3.529,4.384,4.384,0,0,1-3.344,1.305,4.434,4.434,0,0,1-3.261-1.217,4.761,4.761,0,0,1-1.327-3.3Zm2.962.185a3.538,3.538,0,0,0,.413,1.934,1.376,1.376,0,0,0,1.222.615q1.582,0,1.617-2.435v-.3q0-2.558-1.635-2.558-1.485,0-1.608,2.206ZM73.2,28.5H76.33l-2.443,2.76-2.417,0Zm8.218,3.99.1,1.116a3.225,3.225,0,0,1,2.716-1.292,2.713,2.713,0,0,1,2.219.888,4.226,4.226,0,0,1,.76,2.672V42H84.24V36a1.6,1.6,0,0,0-.29-1.059A1.342,1.342,0,0,0,82.9,34.6a1.413,1.413,0,0,0-1.292.686V42H78.641V32.49Zm15.715,5.361,1.582-5.361h3.173l-3.876,11.1-.167.4a2.944,2.944,0,0,1-2.918,1.846,4.642,4.642,0,0,1-1.222-.175v-2.11h.387a2.026,2.026,0,0,0,.954-.18,1.094,1.094,0,0,0,.488-.647l.237-.633-3.3-9.605H95.63ZM17.641,67a3.344,3.344,0,0,1-.281-.853,2.754,2.754,0,0,1-2.285,1.028,3.374,3.374,0,0,1-2.285-.813,2.588,2.588,0,0,1-.94-2.043,2.66,2.66,0,0,1,1.143-2.338,5.821,5.821,0,0,1,3.322-.791h.914v-.5q0-1.316-1.134-1.316a.927.927,0,0,0-1.055,1.042H12.077a2.655,2.655,0,0,1,1.173-2.239,4.931,4.931,0,0,1,2.993-.86,4.323,4.323,0,0,1,2.874.888A3.086,3.086,0,0,1,20.2,60.637v4.21a4.311,4.311,0,0,0,.4,2V67Zm-1.854-1.934a1.652,1.652,0,0,0,.918-.237,1.487,1.487,0,0,0,.523-.536V62.772h-.861q-1.547,0-1.547,1.389a.848.848,0,0,0,.272.655A.986.986,0,0,0,15.786,65.066Zm5.678-2.892a5.809,5.809,0,0,1,.976-3.56,3.211,3.211,0,0,1,2.725-1.3,2.731,2.731,0,0,1,2.145,1V53.5h2.971V67H27.616l-.149-1.02a2.8,2.8,0,0,1-2.32,1.2,3.205,3.205,0,0,1-2.689-1.3A5.993,5.993,0,0,1,21.464,62.175Zm2.962.185q0,2.531,1.477,2.531a1.458,1.458,0,0,0,1.406-.826V60.443A1.419,1.419,0,0,0,25.92,59.6q-1.371,0-1.485,2.215Zm12.138,4.816a4.889,4.889,0,0,1-3.542-1.305,4.507,4.507,0,0,1-1.354-3.4v-.246a5.84,5.84,0,0,1,.541-2.575,3.955,3.955,0,0,1,1.578-1.727,4.763,4.763,0,0,1,2.461-.611,4.117,4.117,0,0,1,3.164,1.244,4.887,4.887,0,0,1,1.16,3.467v1.151H34.683a2.135,2.135,0,0,0,.694,1.257,2.066,2.066,0,0,0,1.389.457,2.662,2.662,0,0,0,2.2-.984l1.354,1.6a3.784,3.784,0,0,1-1.569,1.217A5.3,5.3,0,0,1,36.563,67.176ZM36.229,59.6q-1.3,0-1.547,1.723h2.988v-.229a1.467,1.467,0,0,0-.36-1.1A1.434,1.434,0,0,0,36.229,59.6Zm9.554,5.291a1.317,1.317,0,0,0,.967-.338,1.241,1.241,0,0,0,.334-.945h2.777a3.288,3.288,0,0,1-1.121,2.566,4.168,4.168,0,0,1-2.887,1,4.22,4.22,0,0,1-3.27-1.3,5.125,5.125,0,0,1-1.2-3.6v-.123A5.792,5.792,0,0,1,41.92,59.6a3.872,3.872,0,0,1,1.534-1.7,4.573,4.573,0,0,1,2.373-.593,4.116,4.116,0,0,1,2.944,1.028,3.647,3.647,0,0,1,1.09,2.786H47.084A1.626,1.626,0,0,0,46.724,60a1.244,1.244,0,0,0-.967-.4q-1.151,0-1.345,1.468a10.357,10.357,0,0,0-.062,1.283,4.068,4.068,0,0,0,.343,1.986A1.187,1.187,0,0,0,45.783,64.891Zm11,1.081a3.054,3.054,0,0,1-2.54,1.2,3,3,0,0,1-2.369-.91,3.826,3.826,0,0,1-.8-2.615V57.49h2.962v6.179a1.065,1.065,0,0,0,1.187,1.222,1.548,1.548,0,0,0,1.45-.729V57.49h2.979V67H56.866ZM66.622,67a3.344,3.344,0,0,1-.281-.853,2.754,2.754,0,0,1-2.285,1.028,3.374,3.374,0,0,1-2.285-.813,2.588,2.588,0,0,1-.94-2.043,2.66,2.66,0,0,1,1.143-2.338,5.821,5.821,0,0,1,3.322-.791h.914v-.5q0-1.316-1.134-1.316a.927.927,0,0,0-1.055,1.042H61.059a2.655,2.655,0,0,1,1.173-2.239,4.931,4.931,0,0,1,2.993-.86A4.323,4.323,0,0,1,68.1,58.2a3.086,3.086,0,0,1,1.081,2.435v4.21a4.311,4.311,0,0,0,.4,2V67Zm-1.854-1.934a1.652,1.652,0,0,0,.918-.237,1.487,1.487,0,0,0,.523-.536V62.772h-.861q-1.547,0-1.547,1.389a.848.848,0,0,0,.272.655A.986.986,0,0,0,64.768,65.066Zm10.072-.176a1.317,1.317,0,0,0,.967-.338,1.241,1.241,0,0,0,.334-.945h2.777A3.288,3.288,0,0,1,77.8,66.174a4.168,4.168,0,0,1-2.887,1,4.22,4.22,0,0,1-3.27-1.3,5.125,5.125,0,0,1-1.2-3.6v-.123a5.792,5.792,0,0,1,.532-2.544,3.872,3.872,0,0,1,1.534-1.7,4.573,4.573,0,0,1,2.373-.593,4.116,4.116,0,0,1,2.944,1.028,3.647,3.647,0,0,1,1.09,2.786H76.141A1.626,1.626,0,0,0,75.78,60a1.244,1.244,0,0,0-.967-.4q-1.151,0-1.345,1.468a10.357,10.357,0,0,0-.062,1.283,4.068,4.068,0,0,0,.343,1.986A1.187,1.187,0,0,0,74.84,64.891ZM83.295,67H80.324V57.49h2.971ZM80.148,55.029a1.334,1.334,0,0,1,.457-1.043,1.934,1.934,0,0,1,2.373,0,1.42,1.42,0,0,1,0,2.087,1.934,1.934,0,0,1-2.373,0A1.334,1.334,0,0,1,80.148,55.029Zm4.6,7.128a5.613,5.613,0,0,1,.554-2.536,3.96,3.96,0,0,1,1.591-1.709,4.791,4.791,0,0,1,2.435-.6,4.373,4.373,0,0,1,3.366,1.323,5.076,5.076,0,0,1,1.23,3.6v.105a4.925,4.925,0,0,1-1.235,3.529,4.384,4.384,0,0,1-3.344,1.305,4.434,4.434,0,0,1-3.261-1.217,4.761,4.761,0,0,1-1.327-3.3Zm2.962.185a3.538,3.538,0,0,0,.413,1.934,1.376,1.376,0,0,0,1.222.615q1.582,0,1.617-2.435v-.3q0-2.558-1.635-2.558-1.485,0-1.608,2.206ZM89.729,53.5h3.129l-2.443,2.76-2.417,0Zm8.218,3.99.1,1.116a3.225,3.225,0,0,1,2.716-1.292,2.713,2.713,0,0,1,2.219.888,4.226,4.226,0,0,1,.76,2.672V67h-2.971V61a1.6,1.6,0,0,0-.29-1.059,1.342,1.342,0,0,0-1.055-.338,1.413,1.413,0,0,0-1.292.686V67H95.169V57.49Z" transform="translate(-9733 -5877)" fill="#12263f"/>
        <path id="Trazado_149786" data-name="Trazado 149786" d="M32,0H156a32,32,0,0,1,0,64H32A32,32,0,0,1,32,0Z" transform="translate(-9661 -5954)" fill="#3c6d9d"/>
        <path id="Trazado_149787" data-name="Trazado 149787" d="M11.653,14.627h5.37V17H8.568V4.2h3.085Zm11.136,2.549a4.889,4.889,0,0,1-3.542-1.305,4.507,4.507,0,0,1-1.354-3.4v-.246a5.84,5.84,0,0,1,.541-2.575,3.955,3.955,0,0,1,1.578-1.727,4.763,4.763,0,0,1,2.461-.611,4.117,4.117,0,0,1,3.164,1.244,4.887,4.887,0,0,1,1.16,3.467v1.151H20.908a2.135,2.135,0,0,0,.694,1.257,2.066,2.066,0,0,0,1.389.457,2.662,2.662,0,0,0,2.2-.984l1.354,1.6a3.784,3.784,0,0,1-1.569,1.217A5.3,5.3,0,0,1,22.789,17.176ZM22.455,9.6q-1.3,0-1.547,1.723H23.9v-.229a1.467,1.467,0,0,0-.36-1.1A1.434,1.434,0,0,0,22.455,9.6ZM30.708,7.49l.1,1.116a3.225,3.225,0,0,1,2.716-1.292A2.713,2.713,0,0,1,35.74,8.2a4.226,4.226,0,0,1,.76,2.672V17H33.529V11a1.6,1.6,0,0,0-.29-1.059A1.342,1.342,0,0,0,32.185,9.6a1.413,1.413,0,0,0-1.292.686V17H27.931V7.49Zm7.084,4.685a6.421,6.421,0,0,1,.475-2.549,3.821,3.821,0,0,1,1.362-1.709,3.591,3.591,0,0,1,2.065-.6,2.855,2.855,0,0,1,2.32,1l.105-.826H46.81V16.64a4.009,4.009,0,0,1-.584,2.184,3.75,3.75,0,0,1-1.692,1.424,6.219,6.219,0,0,1-2.566.5,5.365,5.365,0,0,1-2.026-.4,3.657,3.657,0,0,1-1.5-1.028l1.239-1.74a2.716,2.716,0,0,0,2.18.976,1.764,1.764,0,0,0,1.969-2.021v-.3a2.781,2.781,0,0,1-2.153.94,3.437,3.437,0,0,1-2.812-1.332,5.517,5.517,0,0,1-1.072-3.564Zm2.971.185a3.383,3.383,0,0,0,.439,1.85,1.387,1.387,0,0,0,1.23.681,1.573,1.573,0,0,0,1.4-.642v-4a1.534,1.534,0,0,0-1.38-.65,1.4,1.4,0,0,0-1.239.708A3.858,3.858,0,0,0,40.763,12.359Zm13.395,3.612a3.054,3.054,0,0,1-2.54,1.2,3,3,0,0,1-2.369-.91,3.826,3.826,0,0,1-.8-2.615V7.49h2.962v6.179a1.065,1.065,0,0,0,1.187,1.222,1.548,1.548,0,0,0,1.45-.729V7.49h2.979V17H54.245ZM64,17a3.344,3.344,0,0,1-.281-.853,2.754,2.754,0,0,1-2.285,1.028,3.374,3.374,0,0,1-2.285-.813,2.588,2.588,0,0,1-.94-2.043,2.66,2.66,0,0,1,1.143-2.338,5.821,5.821,0,0,1,3.322-.791h.914v-.5q0-1.316-1.134-1.316A.927.927,0,0,0,61.4,10.413H58.438a2.655,2.655,0,0,1,1.173-2.239,4.931,4.931,0,0,1,2.993-.86,4.323,4.323,0,0,1,2.874.888,3.086,3.086,0,0,1,1.081,2.435v4.21a4.311,4.311,0,0,0,.4,2V17Zm-1.854-1.934a1.652,1.652,0,0,0,.918-.237,1.487,1.487,0,0,0,.523-.536V12.772h-.861q-1.547,0-1.547,1.389a.848.848,0,0,0,.272.655A.986.986,0,0,0,62.146,15.066ZM71.384,7.49v9.835a3.452,3.452,0,0,1-.967,2.6,3.714,3.714,0,0,1-2.672.914,6.308,6.308,0,0,1-1.4-.149V18.45a5.667,5.667,0,0,0,.835.079,1.084,1.084,0,0,0,1.23-1.222V7.49Zm-3.19-2.461a1.334,1.334,0,0,1,.457-1.043,1.934,1.934,0,0,1,2.373,0,1.334,1.334,0,0,1,.457,1.043,1.334,1.334,0,0,1-.457,1.043,1.934,1.934,0,0,1-2.373,0A1.334,1.334,0,0,1,68.193,5.029Zm9.466,12.146a4.889,4.889,0,0,1-3.542-1.305,4.507,4.507,0,0,1-1.354-3.4v-.246A5.84,5.84,0,0,1,73.3,9.652a3.955,3.955,0,0,1,1.578-1.727,4.763,4.763,0,0,1,2.461-.611,4.117,4.117,0,0,1,3.164,1.244,4.887,4.887,0,0,1,1.16,3.467v1.151H75.778a2.135,2.135,0,0,0,.694,1.257,2.066,2.066,0,0,0,1.389.457,2.662,2.662,0,0,0,2.2-.984l1.354,1.6a3.784,3.784,0,0,1-1.569,1.217A5.3,5.3,0,0,1,77.659,17.176ZM77.325,9.6q-1.3,0-1.547,1.723h2.988v-.229a1.467,1.467,0,0,0-.36-1.1A1.434,1.434,0,0,0,77.325,9.6ZM90.79,5.126V7.49h1.564V9.547H90.79V13.9a1.111,1.111,0,0,0,.193.747,1.037,1.037,0,0,0,.765.211,4.345,4.345,0,0,0,.738-.053v2.118a5.466,5.466,0,0,1-1.67.255,3.1,3.1,0,0,1-2.259-.721,2.954,2.954,0,0,1-.729-2.188V9.547H86.615V7.49h1.213V5.126Zm7.33,12.05a4.889,4.889,0,0,1-3.542-1.305,4.507,4.507,0,0,1-1.354-3.4v-.246a5.84,5.84,0,0,1,.541-2.575,3.955,3.955,0,0,1,1.578-1.727A4.763,4.763,0,0,1,97.8,7.314a4.117,4.117,0,0,1,3.164,1.244,4.887,4.887,0,0,1,1.16,3.467v1.151H96.239a2.135,2.135,0,0,0,.694,1.257,2.066,2.066,0,0,0,1.389.457,2.662,2.662,0,0,0,2.2-.984l1.354,1.6a3.784,3.784,0,0,1-1.569,1.217A5.3,5.3,0,0,1,98.12,17.176ZM97.786,9.6q-1.3,0-1.547,1.723h2.988v-.229a1.467,1.467,0,0,0-.36-1.1A1.434,1.434,0,0,0,97.786,9.6Zm-.035-6.108h3.129l-2.443,2.76-2.417,0Zm9.589,11.4a1.317,1.317,0,0,0,.967-.338,1.241,1.241,0,0,0,.334-.945h2.777a3.288,3.288,0,0,1-1.121,2.566,4.168,4.168,0,0,1-2.887,1,4.22,4.22,0,0,1-3.27-1.3,5.125,5.125,0,0,1-1.2-3.6v-.123a5.792,5.792,0,0,1,.532-2.544,3.872,3.872,0,0,1,1.534-1.7,4.573,4.573,0,0,1,2.373-.593,4.116,4.116,0,0,1,2.944,1.028,3.647,3.647,0,0,1,1.09,2.786h-2.777A1.626,1.626,0,0,0,108.28,10a1.244,1.244,0,0,0-.967-.4q-1.151,0-1.345,1.468a10.357,10.357,0,0,0-.062,1.283,4.068,4.068,0,0,0,.343,1.986A1.187,1.187,0,0,0,107.34,14.891Zm8.051-7.4.1,1.116A3.225,3.225,0,0,1,118.2,7.314a2.713,2.713,0,0,1,2.219.888,4.226,4.226,0,0,1,.76,2.672V17h-2.971V11a1.6,1.6,0,0,0-.29-1.059,1.342,1.342,0,0,0-1.055-.338,1.413,1.413,0,0,0-1.292.686V17h-2.962V7.49ZM125.946,17h-2.971V7.49h2.971ZM122.8,5.029a1.334,1.334,0,0,1,.457-1.043,1.934,1.934,0,0,1,2.373,0,1.334,1.334,0,0,1,.457,1.043,1.334,1.334,0,0,1-.457,1.043,1.934,1.934,0,0,1-2.373,0A1.334,1.334,0,0,1,122.8,5.029Zm8.991,9.861a1.317,1.317,0,0,0,.967-.338,1.241,1.241,0,0,0,.334-.945h2.777a3.288,3.288,0,0,1-1.121,2.566,4.168,4.168,0,0,1-2.887,1,4.22,4.22,0,0,1-3.27-1.3,5.125,5.125,0,0,1-1.2-3.6v-.123a5.792,5.792,0,0,1,.532-2.544,3.872,3.872,0,0,1,1.534-1.7,4.573,4.573,0,0,1,2.373-.593,4.116,4.116,0,0,1,2.944,1.028,3.647,3.647,0,0,1,1.09,2.786h-2.777a1.626,1.626,0,0,0-.36-1.134,1.244,1.244,0,0,0-.967-.4q-1.151,0-1.345,1.468a10.357,10.357,0,0,0-.062,1.283,4.068,4.068,0,0,0,.343,1.986A1.187,1.187,0,0,0,131.791,14.891Zm4.957-2.733a5.613,5.613,0,0,1,.554-2.536,3.96,3.96,0,0,1,1.591-1.709,4.791,4.791,0,0,1,2.435-.6,4.373,4.373,0,0,1,3.366,1.323,5.076,5.076,0,0,1,1.23,3.6v.105a4.925,4.925,0,0,1-1.235,3.529,4.384,4.384,0,0,1-3.344,1.305,4.434,4.434,0,0,1-3.261-1.217,4.761,4.761,0,0,1-1.327-3.3Zm2.962.185a3.538,3.538,0,0,0,.413,1.934,1.376,1.376,0,0,0,1.222.615q1.582,0,1.617-2.435v-.3q0-2.558-1.635-2.558-1.485,0-1.608,2.206Z" transform="translate(-9644 -5932)" fill="#fff"/>
        <path id="Trazado_149791" data-name="Trazado 149791" d="M40,0A40,40,0,1,1,0,40,40,40,0,0,1,40,0Z" transform="translate(-9384 -6031)" fill="#395812"/>
        <path id="Trazado_149788" data-name="Trazado 149788" d="M40,0A40,40,0,1,1,0,40,40,40,0,0,1,40,0Z" transform="translate(-9822 -5881)" fill="#395812"/>
        <path id="Trazado_149792" data-name="Trazado 149792" d="M40,0A40,40,0,1,1,0,40,40,40,0,0,1,40,0Z" transform="translate(-9384 -5881)" fill="#395812"/>
        <path id="Trazado_149779" data-name="Trazado 149779" d="M40,0A40,40,0,1,1,0,40,40,40,0,0,1,40,0Z" transform="translate(-9822 -6031)" fill="#395812"/>
      </g>
    </g>
    <rect id="Rectángulo_36036" data-name="Rectángulo 36036" width="1030" height="420" transform="translate(-9936 -6054)" fill="none"/>
  </g>
</svg>
