<svg xmlns="http://www.w3.org/2000/svg" xmlns:xlink="http://www.w3.org/1999/xlink" width="1328" height="812.607" viewBox="0 0 1328 812.607">
  <defs>
    <linearGradient id="linear-gradient" x1="0.5" x2="0.5" y2="1" gradientUnits="objectBoundingBox">
      <stop offset="0" stop-color="#f6f6f6" stop-opacity="0"/>
      <stop offset="1" stop-color="#eae8e8"/>
    </linearGradient>
  </defs>
  <g id="Grupo_134944" data-name="Grupo 134944" transform="translate(7733 3414)">
    <g id="Grupo_134938" data-name="Grupo 134938" transform="translate(-10217.352 -4744.613)">
      <path id="Trazado_113527" data-name="Trazado 113527" d="M11.454-730.441l-1327.376-.037.652-812.57H12.078Z" transform="translate(3800.273 2873.661)" opacity="0.63" fill="url(#linear-gradient)" style="mix-blend-mode: multiply;isolation: isolate"/>
    </g>
    <g id="Grupo_134943" data-name="Grupo 134943" transform="translate(21.125 -26.726)">
      <g id="Grupo_134939" data-name="Grupo 134939" transform="translate(-7259.673 -3194.186)">
        <path id="Trazado_146135" data-name="Trazado 146135" d="M-7378.316-5851.5h-55.689v411.4h55.689" transform="translate(7476.066 5851.5)" fill="none" stroke="#78b62e" stroke-width="2"/>
        <path id="Trazado_146136" data-name="Trazado 146136" d="M-7464-5711h41.888" transform="translate(7464.001 5908.017)" fill="none" stroke="#78b62e" stroke-width="2"/>
      </g>
      <g id="Grupo_134942" data-name="Grupo 134942" transform="translate(-6958.188 -2864.494)">
        <path id="Trazado_146135-2" data-name="Trazado 146135" d="M-7378.316-5851.5h-55.689v184.938h55.689" transform="translate(7476.066 5851.5)" fill="none" stroke="#78b62e" stroke-width="2"/>
        <path id="Trazado_146136-2" data-name="Trazado 146136" d="M-7464-5711h41.888" transform="translate(7464.001 5799.565)" fill="none" stroke="#78b62e" stroke-width="2"/>
      </g>
      <g id="Grupo_134940" data-name="Grupo 134940" transform="translate(-6958.188 -3281.666)">
        <path id="Trazado_146135-3" data-name="Trazado 146135" d="M-7378.316-5851.5h-55.689v184.938h55.689" transform="translate(7476.066 5851.5)" fill="none" stroke="#78b62e" stroke-width="2"/>
        <path id="Trazado_146136-3" data-name="Trazado 146136" d="M-7464-5711h41.888" transform="translate(7464.001 5799.565)" fill="none" stroke="#78b62e" stroke-width="2"/>
      </g>
      <path id="Trazado_149906" data-name="Trazado 149906" d="M29.447,0H206.132a29.447,29.447,0,1,1,0,58.895H29.447A29.447,29.447,0,0,1,29.447,0Z" transform="translate(-7179.745 -2807.864)" fill="#3c6d9d"/>
      <path id="Trazado_149907" data-name="Trazado 149907" d="M29.447,0H206.132a29.447,29.447,0,1,1,0,58.895H29.447A29.447,29.447,0,0,1,29.447,0Z" transform="translate(-7179.745 -3224.334)" fill="#3c6d9d"/>
      <path id="Trazado_149908" data-name="Trazado 149908" d="M20.74,13.394v6.244h-2.1V3.688H24.52a5.91,5.91,0,0,1,4.1,1.337,4.531,4.531,0,0,1,1.484,3.539,4.471,4.471,0,0,1-1.452,3.577A6.175,6.175,0,0,1,24.5,13.394Zm0-1.72h3.78a3.779,3.779,0,0,0,2.585-.8,2.909,2.909,0,0,0,.9-2.3,3.006,3.006,0,0,0-.9-2.283,3.54,3.54,0,0,0-2.465-.889h-3.9ZM38.2,9.6a6.074,6.074,0,0,0-1-.077,2.671,2.671,0,0,0-2.706,1.7v8.414H32.473V7.785h1.972l.033,1.369A3.156,3.156,0,0,1,37.3,7.566a2.071,2.071,0,0,1,.9.153Zm4.064,10.035H40.24V7.785h2.027Zm-2.191-15a1.21,1.21,0,0,1,.3-.833,1.131,1.131,0,0,1,.893-.34,1.149,1.149,0,0,1,.9.34,1.2,1.2,0,0,1,.307.833,1.158,1.158,0,0,1-.307.822,1.17,1.17,0,0,1-.9.329,1.151,1.151,0,0,1-.893-.329A1.17,1.17,0,0,1,40.076,4.641Zm7.34,3.144L47.471,9.1a4.378,4.378,0,0,1,3.517-1.534,3.389,3.389,0,0,1,3.385,1.906,4.49,4.49,0,0,1,1.539-1.38,4.546,4.546,0,0,1,2.24-.526q3.9,0,3.966,4.13v7.942H60.091V11.817a2.722,2.722,0,0,0-.581-1.9,2.557,2.557,0,0,0-1.95-.63,2.687,2.687,0,0,0-1.873.674,2.733,2.733,0,0,0-.865,1.813v7.866H52.784V11.871a2.261,2.261,0,0,0-2.531-2.585,2.712,2.712,0,0,0-2.728,1.7v8.655H45.5V7.785ZM72.492,19.639a4.258,4.258,0,0,1-.285-1.249,4.522,4.522,0,0,1-3.374,1.468,4.184,4.184,0,0,1-2.876-.991,3.208,3.208,0,0,1-1.123-2.514,3.351,3.351,0,0,1,1.408-2.876,6.637,6.637,0,0,1,3.96-1.024h1.972v-.931a2.276,2.276,0,0,0-.635-1.693,2.554,2.554,0,0,0-1.873-.63,2.955,2.955,0,0,0-1.819.548,1.614,1.614,0,0,0-.734,1.326H65.076a2.8,2.8,0,0,1,.63-1.714,4.3,4.3,0,0,1,1.709-1.309,5.749,5.749,0,0,1,2.372-.482A4.686,4.686,0,0,1,73,8.59,3.7,3.7,0,0,1,74.2,11.411v5.456a6.67,6.67,0,0,0,.416,2.6v.175Zm-3.363-1.545a3.562,3.562,0,0,0,1.808-.493,2.982,2.982,0,0,0,1.238-1.282V13.887H70.586q-3.725,0-3.725,2.18a1.845,1.845,0,0,0,.635,1.49A2.442,2.442,0,0,0,69.129,18.094ZM83.108,9.6a6.073,6.073,0,0,0-1-.077,2.671,2.671,0,0,0-2.706,1.7v8.414H77.378V7.785H79.35l.033,1.369a3.156,3.156,0,0,1,2.826-1.588,2.071,2.071,0,0,1,.9.153Zm4.064,10.035H85.145V7.785h2.027Zm-2.191-15a1.21,1.21,0,0,1,.3-.833,1.131,1.131,0,0,1,.893-.34,1.149,1.149,0,0,1,.9.34,1.2,1.2,0,0,1,.307.833,1.158,1.158,0,0,1-.307.822,1.17,1.17,0,0,1-.9.329,1.151,1.151,0,0,1-.893-.329A1.17,1.17,0,0,1,84.981,4.641Zm12.752,15a4.257,4.257,0,0,1-.285-1.249,4.522,4.522,0,0,1-3.374,1.468,4.184,4.184,0,0,1-2.876-.991,3.208,3.208,0,0,1-1.123-2.514,3.351,3.351,0,0,1,1.408-2.876,6.637,6.637,0,0,1,3.96-1.024h1.972v-.931a2.276,2.276,0,0,0-.635-1.693,2.554,2.554,0,0,0-1.873-.63,2.955,2.955,0,0,0-1.819.548,1.614,1.614,0,0,0-.734,1.326H90.316a2.8,2.8,0,0,1,.63-1.714,4.3,4.3,0,0,1,1.709-1.309,5.749,5.749,0,0,1,2.372-.482,4.686,4.686,0,0,1,3.21,1.024,3.7,3.7,0,0,1,1.205,2.821v5.456a6.67,6.67,0,0,0,.416,2.6v.175ZM94.37,18.094a3.562,3.562,0,0,0,1.808-.493,2.982,2.982,0,0,0,1.238-1.282V13.887H95.827q-3.725,0-3.725,2.18a1.845,1.845,0,0,0,.635,1.49A2.442,2.442,0,0,0,94.37,18.094Zm15.151-1.6a1.492,1.492,0,0,0-.619-1.276,5.958,5.958,0,0,0-2.158-.783,10.2,10.2,0,0,1-2.443-.789,3.476,3.476,0,0,1-1.337-1.1,2.621,2.621,0,0,1-.433-1.512,3.075,3.075,0,0,1,1.232-2.465,4.813,4.813,0,0,1,3.15-1.008,4.953,4.953,0,0,1,3.27,1.041,3.306,3.306,0,0,1,1.254,2.662H109.4a1.83,1.83,0,0,0-.707-1.435,2.648,2.648,0,0,0-1.78-.6,2.771,2.771,0,0,0-1.731.482,1.517,1.517,0,0,0-.624,1.26,1.229,1.229,0,0,0,.581,1.106,7.144,7.144,0,0,0,2.1.712,10.931,10.931,0,0,1,2.459.811,3.588,3.588,0,0,1,1.4,1.134,2.788,2.788,0,0,1,.455,1.616,3.034,3.034,0,0,1-1.271,2.547,5.33,5.33,0,0,1-3.3.959,5.969,5.969,0,0,1-2.52-.5,4.1,4.1,0,0,1-1.714-1.408,3.393,3.393,0,0,1-.619-1.955h2.027a2.1,2.1,0,0,0,.816,1.616,3.166,3.166,0,0,0,2.01.6,3.268,3.268,0,0,0,1.846-.466A1.431,1.431,0,0,0,109.521,16.494Z" transform="translate(-7095.124 -3206.112)" fill="#fff"/>
      <path id="Trazado_149909" data-name="Trazado 149909" d="M13.815,12.717a9.891,9.891,0,0,1-3.938-1.912,3.653,3.653,0,0,1-1.232-2.8A3.858,3.858,0,0,1,10.151,4.89a5.987,5.987,0,0,1,3.916-1.232A6.535,6.535,0,0,1,17,4.293a4.819,4.819,0,0,1,1.994,1.753A4.482,4.482,0,0,1,19.7,8.489H17.584a2.916,2.916,0,0,0-.92-2.281,3.742,3.742,0,0,0-2.6-.83,3.831,3.831,0,0,0-2.427.686,2.288,2.288,0,0,0-.871,1.9A2.059,2.059,0,0,0,11.6,9.619a8.113,8.113,0,0,0,2.815,1.235,13.064,13.064,0,0,1,3.111,1.233,4.721,4.721,0,0,1,1.665,1.572,4.012,4.012,0,0,1,.542,2.114,3.727,3.727,0,0,1-1.512,3.106,6.446,6.446,0,0,1-4.042,1.167,7.5,7.5,0,0,1-3.067-.63,5.162,5.162,0,0,1-2.2-1.725A4.211,4.211,0,0,1,8.141,15.2h2.114a2.747,2.747,0,0,0,1.068,2.284,4.5,4.5,0,0,0,2.854.838,4.134,4.134,0,0,0,2.553-.679,2.206,2.206,0,0,0,.887-1.851,2.166,2.166,0,0,0-.822-1.813A9.473,9.473,0,0,0,13.815,12.717Zm13.212,7.329a5.179,5.179,0,0,1-3.922-1.583,5.875,5.875,0,0,1-1.512-4.234v-.372a7.113,7.113,0,0,1,.674-3.15,5.256,5.256,0,0,1,1.884-2.169,4.737,4.737,0,0,1,2.624-.783,4.439,4.439,0,0,1,3.593,1.523,6.593,6.593,0,0,1,1.282,4.36v.844H23.62a4.213,4.213,0,0,0,1.024,2.832,3.22,3.22,0,0,0,2.492,1.079,3.53,3.53,0,0,0,1.819-.438,4.569,4.569,0,0,0,1.3-1.161l1.238.964A4.978,4.978,0,0,1,27.027,20.046ZM26.775,9.42a2.7,2.7,0,0,0-2.06.893,4.34,4.34,0,0,0-1.03,2.5h5.938v-.153a3.86,3.86,0,0,0-.833-2.394A2.545,2.545,0,0,0,26.775,9.42Zm11.974,8.972a2.919,2.919,0,0,0,1.9-.657,2.313,2.313,0,0,0,.9-1.643H43.46a3.675,3.675,0,0,1-.7,1.939A4.618,4.618,0,0,1,41.033,19.5a4.979,4.979,0,0,1-2.284.548A4.883,4.883,0,0,1,34.9,18.43a6.436,6.436,0,0,1-1.43-4.42v-.34a7.136,7.136,0,0,1,.635-3.078A4.84,4.84,0,0,1,35.928,8.5a5.181,5.181,0,0,1,2.81-.745,4.754,4.754,0,0,1,3.314,1.194,4.268,4.268,0,0,1,1.408,3.1H41.543a2.793,2.793,0,0,0-.871-1.89,2.709,2.709,0,0,0-1.934-.739,2.837,2.837,0,0,0-2.394,1.112,5.222,5.222,0,0,0-.849,3.215v.383a5.118,5.118,0,0,0,.844,3.155A2.85,2.85,0,0,0,38.749,18.392Zm14.307.263a4.3,4.3,0,0,1-3.473,1.391,3.685,3.685,0,0,1-2.887-1.1,4.766,4.766,0,0,1-1-3.259V7.974h2.027v7.658q0,2.695,2.191,2.695A3.034,3.034,0,0,0,53,16.6V7.974h2.027V19.827H53.1ZM60.024,7.974l.066,1.49a4.32,4.32,0,0,1,3.549-1.709q3.758,0,3.79,4.24v7.833H65.4V11.983a2.729,2.729,0,0,0-.586-1.9,2.349,2.349,0,0,0-1.791-.613A2.925,2.925,0,0,0,61.295,10a3.571,3.571,0,0,0-1.161,1.38v8.446H58.107V7.974ZM69.993,13.8a6.944,6.944,0,0,1,1.293-4.388,4.4,4.4,0,0,1,6.683-.236V3H80V19.827H78.133l-.1-1.271a4.127,4.127,0,0,1-3.385,1.49,4.049,4.049,0,0,1-3.358-1.687,7.023,7.023,0,0,1-1.3-4.4Zm2.027.23a5.258,5.258,0,0,0,.833,3.155,2.692,2.692,0,0,0,2.3,1.139A2.957,2.957,0,0,0,77.969,16.6V11.151a2.979,2.979,0,0,0-2.794-1.676,2.7,2.7,0,0,0-2.322,1.15A5.789,5.789,0,0,0,72.02,14.032Zm18.438,5.8a4.257,4.257,0,0,1-.285-1.249A4.522,4.522,0,0,1,86.8,20.046a4.184,4.184,0,0,1-2.876-.991A3.208,3.208,0,0,1,82.8,16.541a3.351,3.351,0,0,1,1.408-2.876,6.637,6.637,0,0,1,3.96-1.024H90.14v-.931a2.276,2.276,0,0,0-.635-1.693,2.554,2.554,0,0,0-1.873-.63,2.955,2.955,0,0,0-1.819.548,1.614,1.614,0,0,0-.734,1.326H83.041a2.8,2.8,0,0,1,.63-1.714A4.3,4.3,0,0,1,85.38,8.237a5.749,5.749,0,0,1,2.372-.482,4.686,4.686,0,0,1,3.21,1.024A3.7,3.7,0,0,1,92.167,11.6v5.456a6.67,6.67,0,0,0,.416,2.6v.175Zm-3.363-1.545a3.562,3.562,0,0,0,1.808-.493,2.982,2.982,0,0,0,1.238-1.282V14.076H88.551q-3.725,0-3.725,2.18a1.845,1.845,0,0,0,.635,1.49A2.442,2.442,0,0,0,87.094,18.282Zm13.979-8.49a6.074,6.074,0,0,0-1-.077,2.671,2.671,0,0,0-2.706,1.7v8.414H95.343V7.974h1.972l.033,1.369a3.156,3.156,0,0,1,2.826-1.588,2.071,2.071,0,0,1,.9.153Zm4.064,10.035h-2.027V7.974h2.027Zm-2.191-15a1.21,1.21,0,0,1,.3-.833,1.131,1.131,0,0,1,.893-.34,1.149,1.149,0,0,1,.9.34,1.2,1.2,0,0,1,.307.833,1.158,1.158,0,0,1-.307.822,1.17,1.17,0,0,1-.9.329,1.151,1.151,0,0,1-.893-.329A1.17,1.17,0,0,1,102.946,4.83Zm12.752,15a4.257,4.257,0,0,1-.285-1.249,4.522,4.522,0,0,1-3.374,1.468,4.184,4.184,0,0,1-2.876-.991,3.208,3.208,0,0,1-1.123-2.514,3.351,3.351,0,0,1,1.408-2.876,6.637,6.637,0,0,1,3.96-1.024h1.972v-.931a2.276,2.276,0,0,0-.635-1.693,2.554,2.554,0,0,0-1.873-.63,2.955,2.955,0,0,0-1.819.548,1.614,1.614,0,0,0-.734,1.326h-2.038a2.8,2.8,0,0,1,.63-1.714,4.3,4.3,0,0,1,1.709-1.309,5.749,5.749,0,0,1,2.372-.482,4.686,4.686,0,0,1,3.21,1.024,3.7,3.7,0,0,1,1.205,2.821v5.456a6.67,6.67,0,0,0,.416,2.6v.175Zm-3.363-1.545a3.562,3.562,0,0,0,1.808-.493,2.982,2.982,0,0,0,1.238-1.282V14.076h-1.589q-3.725,0-3.725,2.18a1.845,1.845,0,0,0,.635,1.49A2.442,2.442,0,0,0,112.335,18.282Zm15.151-1.6a1.492,1.492,0,0,0-.619-1.276,5.958,5.958,0,0,0-2.158-.783,10.2,10.2,0,0,1-2.443-.789,3.475,3.475,0,0,1-1.337-1.1,2.621,2.621,0,0,1-.433-1.512,3.075,3.075,0,0,1,1.232-2.465,4.813,4.813,0,0,1,3.15-1.008,4.953,4.953,0,0,1,3.27,1.041,3.306,3.306,0,0,1,1.254,2.662h-2.038a1.83,1.83,0,0,0-.707-1.435,2.648,2.648,0,0,0-1.78-.6,2.771,2.771,0,0,0-1.731.482,1.517,1.517,0,0,0-.624,1.26,1.229,1.229,0,0,0,.581,1.106,7.144,7.144,0,0,0,2.1.712,10.931,10.931,0,0,1,2.459.811,3.588,3.588,0,0,1,1.4,1.134,2.788,2.788,0,0,1,.455,1.616,3.034,3.034,0,0,1-1.271,2.547,5.33,5.33,0,0,1-3.3.959,5.969,5.969,0,0,1-2.52-.5,4.1,4.1,0,0,1-1.714-1.408,3.393,3.393,0,0,1-.619-1.955h2.027a2.1,2.1,0,0,0,.816,1.616,3.166,3.166,0,0,0,2.01.6,3.268,3.268,0,0,0,1.846-.466A1.431,1.431,0,0,0,127.486,16.683Z" transform="translate(-7099.346 -2789.83)" fill="#fff"/>
      <path id="Trazado_149910" data-name="Trazado 149910" d="M29.447,0h185.1a29.447,29.447,0,1,1,0,58.895H29.447A29.447,29.447,0,0,1,29.447,0Z" transform="translate(-6883.868 -2893.402)" fill="#3c6d9d"/>
      <path id="Trazado_149918" data-name="Trazado 149918" d="M29.447,0h185.1a29.447,29.447,0,1,1,0,58.895H29.447A29.447,29.447,0,0,1,29.447,0Z" transform="translate(-6883.868 -2709.706)" fill="#3c6d9d"/>
      <path id="Trazado_149911" data-name="Trazado 149911" d="M27.947,13.368H24.2v6.453H22.086V3.87h5.28A6.25,6.25,0,0,1,31.513,5.1a4.414,4.414,0,0,1,1.452,3.571,4.294,4.294,0,0,1-.805,2.6,4.807,4.807,0,0,1-2.24,1.654l3.747,6.77v.131H31.409ZM24.2,11.648h3.232a3.645,3.645,0,0,0,2.492-.812,2.746,2.746,0,0,0,.926-2.173,2.892,2.892,0,0,0-.882-2.272,3.734,3.734,0,0,0-2.547-.8H24.2ZM40.512,20.04a5.179,5.179,0,0,1-3.922-1.583,5.875,5.875,0,0,1-1.512-4.234V13.85a7.113,7.113,0,0,1,.674-3.15,5.256,5.256,0,0,1,1.884-2.169,4.737,4.737,0,0,1,2.624-.783,4.439,4.439,0,0,1,3.593,1.523,6.593,6.593,0,0,1,1.282,4.36v.844h-8.03a4.213,4.213,0,0,0,1.024,2.832,3.22,3.22,0,0,0,2.492,1.079,3.53,3.53,0,0,0,1.819-.438,4.569,4.569,0,0,0,1.3-1.161l1.238.964A4.978,4.978,0,0,1,40.512,20.04ZM40.261,9.413a2.7,2.7,0,0,0-2.06.893,4.34,4.34,0,0,0-1.03,2.5h5.938v-.153a3.86,3.86,0,0,0-.833-2.394A2.545,2.545,0,0,0,40.261,9.413Zm14.121,7.263a1.492,1.492,0,0,0-.619-1.276,5.958,5.958,0,0,0-2.158-.783,10.2,10.2,0,0,1-2.443-.789,3.476,3.476,0,0,1-1.337-1.1,2.62,2.62,0,0,1-.433-1.512,3.075,3.075,0,0,1,1.232-2.465,4.813,4.813,0,0,1,3.15-1.008,4.953,4.953,0,0,1,3.27,1.041A3.306,3.306,0,0,1,56.3,11.451H54.261a1.83,1.83,0,0,0-.707-1.435,2.648,2.648,0,0,0-1.78-.6,2.771,2.771,0,0,0-1.731.482,1.517,1.517,0,0,0-.624,1.26A1.229,1.229,0,0,0,50,12.262a7.144,7.144,0,0,0,2.1.712,10.931,10.931,0,0,1,2.459.811,3.588,3.588,0,0,1,1.4,1.134,2.788,2.788,0,0,1,.455,1.616,3.034,3.034,0,0,1-1.271,2.547,5.33,5.33,0,0,1-3.3.959,5.969,5.969,0,0,1-2.52-.5,4.1,4.1,0,0,1-1.714-1.408,3.393,3.393,0,0,1-.619-1.955h2.027a2.1,2.1,0,0,0,.816,1.616,3.166,3.166,0,0,0,2.01.6,3.268,3.268,0,0,0,1.846-.466A1.431,1.431,0,0,0,54.382,16.677Zm11.985,1.972a4.3,4.3,0,0,1-3.473,1.391,3.685,3.685,0,0,1-2.887-1.1,4.766,4.766,0,0,1-1-3.259V7.967h2.027v7.658q0,2.695,2.191,2.695a3.034,3.034,0,0,0,3.089-1.731V7.967h2.027V19.821H66.41ZM64.723,3.016h2.454L64.241,6.236l-1.632-.005Zm8.6,4.952.055,1.315a4.377,4.377,0,0,1,3.517-1.534A3.389,3.389,0,0,1,80.28,9.654a4.49,4.49,0,0,1,1.539-1.38,4.546,4.546,0,0,1,2.24-.526q3.9,0,3.966,4.13v7.942H86V12a2.722,2.722,0,0,0-.581-1.9,2.557,2.557,0,0,0-1.95-.63,2.687,2.687,0,0,0-1.873.674,2.733,2.733,0,0,0-.865,1.813v7.866H78.691V12.054A2.261,2.261,0,0,0,76.16,9.468a2.712,2.712,0,0,0-2.728,1.7v8.655H71.406V7.967ZM96,20.04a5.179,5.179,0,0,1-3.922-1.583,5.875,5.875,0,0,1-1.512-4.234V13.85a7.113,7.113,0,0,1,.674-3.15,5.256,5.256,0,0,1,1.884-2.169,4.737,4.737,0,0,1,2.624-.783,4.439,4.439,0,0,1,3.593,1.523,6.593,6.593,0,0,1,1.282,4.36v.844h-8.03a4.213,4.213,0,0,0,1.024,2.832,3.22,3.22,0,0,0,2.492,1.079,3.53,3.53,0,0,0,1.819-.438,4.569,4.569,0,0,0,1.3-1.161l1.238.964A4.978,4.978,0,0,1,96,20.04ZM95.748,9.413a2.7,2.7,0,0,0-2.06.893,4.34,4.34,0,0,0-1.03,2.5H98.6v-.153a3.86,3.86,0,0,0-.833-2.394A2.545,2.545,0,0,0,95.748,9.413Zm9.137-1.446.066,1.49A4.32,4.32,0,0,1,108.5,7.748q3.758,0,3.79,4.24v7.833h-2.027V11.977a2.729,2.729,0,0,0-.586-1.9,2.349,2.349,0,0,0-1.791-.613,2.925,2.925,0,0,0-1.731.526,3.571,3.571,0,0,0-1.161,1.38v8.446h-2.027V7.967ZM120.266,20.04a5.179,5.179,0,0,1-3.922-1.583,5.875,5.875,0,0,1-1.512-4.234V13.85a7.113,7.113,0,0,1,.674-3.15,5.256,5.256,0,0,1,1.884-2.169,4.737,4.737,0,0,1,2.624-.783,4.439,4.439,0,0,1,3.593,1.523,6.593,6.593,0,0,1,1.282,4.36v.844h-8.03a4.213,4.213,0,0,0,1.024,2.832,3.22,3.22,0,0,0,2.492,1.079,3.53,3.53,0,0,0,1.819-.438,4.569,4.569,0,0,0,1.3-1.161l1.238.964A4.978,4.978,0,0,1,120.266,20.04Zm-.252-10.626a2.7,2.7,0,0,0-2.06.893,4.34,4.34,0,0,0-1.03,2.5h5.938v-.153a3.86,3.86,0,0,0-.833-2.394A2.545,2.545,0,0,0,120.014,9.413Zm14.121,7.263a1.492,1.492,0,0,0-.619-1.276,5.958,5.958,0,0,0-2.158-.783,10.2,10.2,0,0,1-2.443-.789,3.475,3.475,0,0,1-1.337-1.1,2.621,2.621,0,0,1-.433-1.512,3.075,3.075,0,0,1,1.232-2.465,4.813,4.813,0,0,1,3.15-1.008,4.953,4.953,0,0,1,3.27,1.041,3.306,3.306,0,0,1,1.254,2.662h-2.038a1.83,1.83,0,0,0-.707-1.435,2.648,2.648,0,0,0-1.78-.6A2.771,2.771,0,0,0,129.8,9.9a1.517,1.517,0,0,0-.624,1.26,1.229,1.229,0,0,0,.581,1.106,7.144,7.144,0,0,0,2.1.712,10.931,10.931,0,0,1,2.459.811,3.587,3.587,0,0,1,1.4,1.134,2.788,2.788,0,0,1,.455,1.616,3.034,3.034,0,0,1-1.271,2.547,5.331,5.331,0,0,1-3.3.959,5.969,5.969,0,0,1-2.52-.5,4.1,4.1,0,0,1-1.714-1.408,3.393,3.393,0,0,1-.619-1.955h2.027a2.1,2.1,0,0,0,.816,1.616,3.166,3.166,0,0,0,2.01.6,3.268,3.268,0,0,0,1.846-.466A1.431,1.431,0,0,0,134.135,16.677Z" transform="translate(-6839.928 -2875.362)" fill="#fff"/>
      <path id="Trazado_149919" data-name="Trazado 149919" d="M27.257,5.6H22.13V19.827H20.038V5.6H14.922V3.876H27.257Zm6.957,4.2a6.073,6.073,0,0,0-1-.077,2.671,2.671,0,0,0-2.706,1.7v8.414H28.484V7.974h1.972l.033,1.369a3.156,3.156,0,0,1,2.826-1.588,2.07,2.07,0,0,1,.9.153Zm8.742,10.035a4.257,4.257,0,0,1-.285-1.249A4.522,4.522,0,0,1,39.3,20.046a4.184,4.184,0,0,1-2.876-.991A3.208,3.208,0,0,1,35.3,16.541a3.351,3.351,0,0,1,1.408-2.876,6.637,6.637,0,0,1,3.96-1.024h1.972v-.931A2.276,2.276,0,0,0,42,10.017a2.554,2.554,0,0,0-1.873-.63,2.955,2.955,0,0,0-1.819.548,1.614,1.614,0,0,0-.734,1.326H35.539a2.8,2.8,0,0,1,.63-1.714,4.3,4.3,0,0,1,1.709-1.309,5.749,5.749,0,0,1,2.372-.482,4.686,4.686,0,0,1,3.21,1.024A3.7,3.7,0,0,1,44.665,11.6v5.456a6.67,6.67,0,0,0,.416,2.6v.175Zm-3.363-1.545a3.562,3.562,0,0,0,1.808-.493,2.982,2.982,0,0,0,1.238-1.282V14.076H41.05q-3.725,0-3.725,2.18a1.845,1.845,0,0,0,.635,1.49A2.442,2.442,0,0,0,39.593,18.282ZM47.349,13.8a6.944,6.944,0,0,1,1.293-4.388,4.4,4.4,0,0,1,6.683-.236V3h2.027V19.827H55.489l-.1-1.271a4.127,4.127,0,0,1-3.385,1.49,4.049,4.049,0,0,1-3.358-1.687,7.023,7.023,0,0,1-1.3-4.4Zm2.027.23a5.258,5.258,0,0,0,.833,3.155,2.692,2.692,0,0,0,2.3,1.139A2.957,2.957,0,0,0,55.324,16.6V11.151a2.979,2.979,0,0,0-2.794-1.676,2.7,2.7,0,0,0-2.322,1.15A5.789,5.789,0,0,0,49.376,14.032Zm18.437,4.623a4.3,4.3,0,0,1-3.473,1.391,3.685,3.685,0,0,1-2.887-1.1,4.766,4.766,0,0,1-1-3.259V7.974h2.027v7.658q0,2.695,2.191,2.695A3.034,3.034,0,0,0,67.758,16.6V7.974h2.027V19.827H67.857Zm9.8-.263a2.919,2.919,0,0,0,1.9-.657,2.313,2.313,0,0,0,.9-1.643h1.917a3.675,3.675,0,0,1-.7,1.939A4.618,4.618,0,0,1,79.9,19.5a4.979,4.979,0,0,1-2.284.548,4.883,4.883,0,0,1-3.851-1.616,6.436,6.436,0,0,1-1.43-4.42v-.34a7.136,7.136,0,0,1,.635-3.078A4.84,4.84,0,0,1,74.8,8.5a5.182,5.182,0,0,1,2.81-.745,4.754,4.754,0,0,1,3.314,1.194,4.268,4.268,0,0,1,1.408,3.1H80.412a2.793,2.793,0,0,0-.871-1.89,2.709,2.709,0,0,0-1.934-.739,2.837,2.837,0,0,0-2.394,1.112,5.222,5.222,0,0,0-.849,3.215v.383a5.118,5.118,0,0,0,.844,3.155A2.85,2.85,0,0,0,77.618,18.392Zm11.744,0a2.919,2.919,0,0,0,1.9-.657,2.313,2.313,0,0,0,.9-1.643h1.917a3.675,3.675,0,0,1-.7,1.939A4.618,4.618,0,0,1,91.646,19.5a4.979,4.979,0,0,1-2.284.548,4.883,4.883,0,0,1-3.851-1.616,6.436,6.436,0,0,1-1.43-4.42v-.34a7.136,7.136,0,0,1,.635-3.078A4.84,4.84,0,0,1,86.541,8.5a5.181,5.181,0,0,1,2.81-.745,4.754,4.754,0,0,1,3.314,1.194,4.268,4.268,0,0,1,1.408,3.1H92.156a2.793,2.793,0,0,0-.871-1.89,2.709,2.709,0,0,0-1.934-.739,2.837,2.837,0,0,0-2.394,1.112,5.222,5.222,0,0,0-.849,3.215v.383a5.118,5.118,0,0,0,.844,3.155A2.85,2.85,0,0,0,89.362,18.392Zm9.191,1.435H96.527V7.974h2.027Zm-2.191-15a1.21,1.21,0,0,1,.3-.833,1.131,1.131,0,0,1,.893-.34,1.149,1.149,0,0,1,.9.34,1.2,1.2,0,0,1,.307.833,1.158,1.158,0,0,1-.307.822,1.17,1.17,0,0,1-.9.329,1.151,1.151,0,0,1-.893-.329A1.17,1.17,0,0,1,96.362,4.83Zm4.9,8.961a7,7,0,0,1,.685-3.133A5.108,5.108,0,0,1,103.85,8.51a5.189,5.189,0,0,1,2.788-.756,5,5,0,0,1,3.916,1.676,6.449,6.449,0,0,1,1.5,4.459v.142a7.062,7.062,0,0,1-.663,3.106,5.033,5.033,0,0,1-1.9,2.142,5.249,5.249,0,0,1-2.832.767,4.986,4.986,0,0,1-3.906-1.676,6.416,6.416,0,0,1-1.5-4.437Zm2.038.241a5.071,5.071,0,0,0,.915,3.166,3.1,3.1,0,0,0,4.9-.016,5.545,5.545,0,0,0,.909-3.391,5.062,5.062,0,0,0-.926-3.161,2.943,2.943,0,0,0-2.459-1.211,2.91,2.91,0,0,0-2.421,1.194A5.5,5.5,0,0,0,103.3,14.032Zm13.212-6.058.066,1.49a4.32,4.32,0,0,1,3.549-1.709q3.758,0,3.79,4.24v7.833h-2.027V11.983a2.729,2.729,0,0,0-.586-1.9,2.349,2.349,0,0,0-1.791-.613A2.925,2.925,0,0,0,117.78,10a3.571,3.571,0,0,0-1.161,1.38v8.446h-2.027V7.974ZM131.89,20.046a5.179,5.179,0,0,1-3.922-1.583,5.875,5.875,0,0,1-1.512-4.234v-.372a7.113,7.113,0,0,1,.674-3.15,5.256,5.256,0,0,1,1.884-2.169,4.738,4.738,0,0,1,2.624-.783,4.439,4.439,0,0,1,3.593,1.523,6.593,6.593,0,0,1,1.282,4.36v.844h-8.03a4.213,4.213,0,0,0,1.024,2.832A3.22,3.22,0,0,0,132,18.392a3.53,3.53,0,0,0,1.819-.438,4.569,4.569,0,0,0,1.3-1.161l1.238.964A4.978,4.978,0,0,1,131.89,20.046ZM131.638,9.42a2.7,2.7,0,0,0-2.06.893,4.34,4.34,0,0,0-1.03,2.5h5.938v-.153a3.86,3.86,0,0,0-.833-2.394A2.545,2.545,0,0,0,131.638,9.42Zm14.121,7.263a1.492,1.492,0,0,0-.619-1.276,5.958,5.958,0,0,0-2.158-.783,10.2,10.2,0,0,1-2.443-.789,3.476,3.476,0,0,1-1.337-1.1,2.621,2.621,0,0,1-.433-1.512A3.075,3.075,0,0,1,140,8.762a4.813,4.813,0,0,1,3.15-1.008,4.953,4.953,0,0,1,3.27,1.041,3.306,3.306,0,0,1,1.254,2.662h-2.038a1.83,1.83,0,0,0-.707-1.435,2.648,2.648,0,0,0-1.78-.6,2.771,2.771,0,0,0-1.731.482,1.517,1.517,0,0,0-.624,1.26,1.229,1.229,0,0,0,.581,1.106,7.144,7.144,0,0,0,2.1.712,10.931,10.931,0,0,1,2.459.811,3.588,3.588,0,0,1,1.4,1.134,2.788,2.788,0,0,1,.455,1.616,3.034,3.034,0,0,1-1.271,2.547,5.33,5.33,0,0,1-3.3.959,5.969,5.969,0,0,1-2.52-.5,4.1,4.1,0,0,1-1.714-1.408,3.393,3.393,0,0,1-.619-1.955h2.027a2.1,2.1,0,0,0,.816,1.616,3.166,3.166,0,0,0,2.01.6,3.268,3.268,0,0,0,1.846-.466A1.431,1.431,0,0,0,145.759,16.683Z" transform="translate(-6842.81 -2691.672)" fill="#fff"/>
      <path id="Trazado_149912" data-name="Trazado 149912" d="M29.447,0h185.1a29.447,29.447,0,1,1,0,58.895H29.447A29.447,29.447,0,0,1,29.447,0Z" transform="translate(-6883.868 -3311.274)" fill="#3c6d9d"/>
      <path id="Trazado_149913" data-name="Trazado 149913" d="M29.447,0h185.1a29.447,29.447,0,1,1,0,58.895H29.447A29.447,29.447,0,0,1,29.447,0Z" transform="translate(-6883.868 -3124.774)" fill="#3c6d9d"/>
      <path id="Trazado_149914" data-name="Trazado 149914" d="M43.884,18.107h7.559v1.72H41.77V3.876h2.114Zm11.842,1.72H53.7V7.974h2.027Zm-2.191-15a1.21,1.21,0,0,1,.3-.833,1.131,1.131,0,0,1,.893-.34,1.149,1.149,0,0,1,.9.34,1.2,1.2,0,0,1,.307.833,1.158,1.158,0,0,1-.307.822,1.17,1.17,0,0,1-.9.329,1.151,1.151,0,0,1-.893-.329A1.17,1.17,0,0,1,53.535,4.83ZM69,14.032A7.048,7.048,0,0,1,67.755,18.4,3.99,3.99,0,0,1,64.4,20.046a4.132,4.132,0,0,1-3.473-1.588l-.1,1.369H58.969V3H61V9.277a4.109,4.109,0,0,1,3.385-1.523,4.015,4.015,0,0,1,3.391,1.632A7.26,7.26,0,0,1,69,13.857Zm-2.027-.23a5.477,5.477,0,0,0-.8-3.2,2.647,2.647,0,0,0-2.3-1.128A2.976,2.976,0,0,0,61,11.337v5.127a3.059,3.059,0,0,0,2.9,1.862A2.633,2.633,0,0,0,66.167,17.2,5.824,5.824,0,0,0,66.977,13.8Zm10.309-4.01a6.073,6.073,0,0,0-1-.077,2.671,2.671,0,0,0-2.706,1.7v8.414H71.557V7.974h1.972l.033,1.369a3.156,3.156,0,0,1,2.826-1.588,2.071,2.071,0,0,1,.9.153Zm1.106,4a7,7,0,0,1,.685-3.133A5.108,5.108,0,0,1,80.983,8.51a5.189,5.189,0,0,1,2.788-.756,5,5,0,0,1,3.916,1.676,6.449,6.449,0,0,1,1.5,4.459v.142a7.062,7.062,0,0,1-.663,3.106,5.033,5.033,0,0,1-1.9,2.142,5.249,5.249,0,0,1-2.832.767,4.986,4.986,0,0,1-3.906-1.676,6.416,6.416,0,0,1-1.5-4.437Zm2.038.241a5.071,5.071,0,0,0,.915,3.166,3.1,3.1,0,0,0,4.9-.016,5.545,5.545,0,0,0,.909-3.391,5.062,5.062,0,0,0-.926-3.161A2.943,2.943,0,0,0,83.772,9.42a2.91,2.91,0,0,0-2.421,1.194A5.5,5.5,0,0,0,80.43,14.032Zm18.2,2.651a1.492,1.492,0,0,0-.619-1.276,5.958,5.958,0,0,0-2.158-.783,10.2,10.2,0,0,1-2.443-.789,3.476,3.476,0,0,1-1.337-1.1,2.621,2.621,0,0,1-.433-1.512A3.075,3.075,0,0,1,92.87,8.762a4.813,4.813,0,0,1,3.15-1.008A4.953,4.953,0,0,1,99.289,8.8a3.306,3.306,0,0,1,1.254,2.662H98.506a1.83,1.83,0,0,0-.707-1.435,2.648,2.648,0,0,0-1.78-.6,2.771,2.771,0,0,0-1.731.482,1.517,1.517,0,0,0-.624,1.26,1.229,1.229,0,0,0,.581,1.106,7.144,7.144,0,0,0,2.1.712,10.931,10.931,0,0,1,2.459.811,3.588,3.588,0,0,1,1.4,1.134,2.788,2.788,0,0,1,.455,1.616,3.034,3.034,0,0,1-1.271,2.547,5.331,5.331,0,0,1-3.3.959,5.969,5.969,0,0,1-2.52-.5,4.1,4.1,0,0,1-1.714-1.408,3.393,3.393,0,0,1-.619-1.955h2.027a2.1,2.1,0,0,0,.816,1.616,3.166,3.166,0,0,0,2.01.6,3.268,3.268,0,0,0,1.846-.466A1.431,1.431,0,0,0,98.627,16.683Z" transform="translate(-6832.01 -3293.24)" fill="#fff"/>
      <path id="Trazado_149915" data-name="Trazado 149915" d="M32,12.849H25.3v7.044H23.2V3.942h9.882v1.72H25.3v5.467H32Zm2.52,1.008a7,7,0,0,1,.685-3.133,5.108,5.108,0,0,1,1.906-2.147,5.189,5.189,0,0,1,2.788-.756A5,5,0,0,1,43.811,9.5a6.449,6.449,0,0,1,1.5,4.459V14.1a7.062,7.062,0,0,1-.663,3.106,5.033,5.033,0,0,1-1.9,2.142,5.248,5.248,0,0,1-2.832.767,4.986,4.986,0,0,1-3.906-1.676A6.416,6.416,0,0,1,34.516,14Zm2.038.241a5.071,5.071,0,0,0,.915,3.166,3.1,3.1,0,0,0,4.9-.016,5.545,5.545,0,0,0,.909-3.391,5.062,5.062,0,0,0-.926-3.161,2.943,2.943,0,0,0-2.459-1.211,2.91,2.91,0,0,0-2.421,1.194A5.5,5.5,0,0,0,36.554,14.1ZM50.6,5.169V8.04h2.213V9.606H50.6v7.36a1.645,1.645,0,0,0,.3,1.069,1.245,1.245,0,0,0,1.008.356,4.907,4.907,0,0,0,.964-.131v1.634a5.91,5.91,0,0,1-1.556.218,2.524,2.524,0,0,1-2.049-.822,3.53,3.53,0,0,1-.69-2.333V9.606H46.413V8.04h2.158V5.169Zm3.823,8.687a7,7,0,0,1,.685-3.133,5.108,5.108,0,0,1,1.906-2.147A5.189,5.189,0,0,1,59.8,7.821,5,5,0,0,1,63.717,9.5a6.449,6.449,0,0,1,1.5,4.459V14.1a7.062,7.062,0,0,1-.663,3.106,5.033,5.033,0,0,1-1.9,2.142,5.249,5.249,0,0,1-2.832.767,4.986,4.986,0,0,1-3.906-1.676A6.416,6.416,0,0,1,54.421,14Zm2.038.241a5.071,5.071,0,0,0,.915,3.166,3.1,3.1,0,0,0,4.9-.016,5.545,5.545,0,0,0,.909-3.391A5.062,5.062,0,0,0,62.26,10.7,2.943,2.943,0,0,0,59.8,9.486a2.91,2.91,0,0,0-2.421,1.194A5.5,5.5,0,0,0,56.459,14.1Zm10.813-.23a6.966,6.966,0,0,1,1.282-4.409,4.419,4.419,0,0,1,6.781-.1l.1-1.315h1.851V19.608a4.822,4.822,0,0,1-1.364,3.626,5.033,5.033,0,0,1-3.664,1.326,6.1,6.1,0,0,1-2.509-.548,4.318,4.318,0,0,1-1.873-1.5L68.926,21.3a3.963,3.963,0,0,0,3.188,1.61,3.105,3.105,0,0,0,2.306-.833,3.182,3.182,0,0,0,.827-2.344V18.71a4.165,4.165,0,0,1-3.319,1.4,4.049,4.049,0,0,1-3.369-1.676A7.325,7.325,0,0,1,67.272,13.868Zm2.038.23a5.315,5.315,0,0,0,.822,3.15,2.67,2.67,0,0,0,2.3,1.145,2.969,2.969,0,0,0,2.815-1.742V11.239a3,3,0,0,0-2.794-1.7,2.694,2.694,0,0,0-2.312,1.15A5.789,5.789,0,0,0,69.309,14.1Zm16.761-4.24a6.073,6.073,0,0,0-1-.077,2.671,2.671,0,0,0-2.706,1.7v8.414H80.341V8.04h1.972l.033,1.369a3.156,3.156,0,0,1,2.826-1.588,2.071,2.071,0,0,1,.9.153Zm8.742,10.035a4.257,4.257,0,0,1-.285-1.249,4.522,4.522,0,0,1-3.374,1.468,4.184,4.184,0,0,1-2.876-.991,3.208,3.208,0,0,1-1.123-2.514,3.351,3.351,0,0,1,1.408-2.876,6.637,6.637,0,0,1,3.96-1.024H94.5v-.931a2.276,2.276,0,0,0-.635-1.693,2.554,2.554,0,0,0-1.873-.63A2.955,2.955,0,0,0,90.168,10a1.614,1.614,0,0,0-.734,1.326H87.4a2.8,2.8,0,0,1,.63-1.714A4.3,4.3,0,0,1,89.735,8.3a5.749,5.749,0,0,1,2.372-.482,4.686,4.686,0,0,1,3.21,1.024,3.7,3.7,0,0,1,1.205,2.821v5.456a6.67,6.67,0,0,0,.416,2.6v.175ZM91.45,18.348a3.562,3.562,0,0,0,1.808-.493A2.982,2.982,0,0,0,94.5,16.574V14.142H92.907q-3.725,0-3.725,2.18a1.845,1.845,0,0,0,.635,1.49A2.442,2.442,0,0,0,91.45,18.348Zm9.246,1.545V9.606H98.823V8.04H100.7V6.824a4.036,4.036,0,0,1,1.019-2.947A3.849,3.849,0,0,1,104.6,2.836a5.351,5.351,0,0,1,1.391.185l-.11,1.634a5.821,5.821,0,0,0-1.1-.1,1.977,1.977,0,0,0-1.523.577,2.34,2.34,0,0,0-.537,1.654V8.04h2.531V9.606h-2.531V19.893Zm8.994,0h-2.038V8.04h2.038ZM109.712,3.1h2.454L109.23,6.32,107.6,6.314Zm10.637,16.794a4.257,4.257,0,0,1-.285-1.249,4.522,4.522,0,0,1-3.374,1.468,4.184,4.184,0,0,1-2.876-.991,3.208,3.208,0,0,1-1.123-2.514,3.351,3.351,0,0,1,1.408-2.876,6.637,6.637,0,0,1,3.96-1.024h1.972v-.931a2.276,2.276,0,0,0-.635-1.693,2.554,2.554,0,0,0-1.873-.63A2.955,2.955,0,0,0,115.7,10a1.614,1.614,0,0,0-.734,1.326h-2.038a2.8,2.8,0,0,1,.63-1.714A4.3,4.3,0,0,1,115.272,8.3a5.749,5.749,0,0,1,2.372-.482,4.686,4.686,0,0,1,3.21,1.024,3.7,3.7,0,0,1,1.205,2.821v5.456a6.67,6.67,0,0,0,.416,2.6v.175Zm-3.363-1.545a3.562,3.562,0,0,0,1.808-.493,2.982,2.982,0,0,0,1.238-1.282V14.142h-1.588q-3.725,0-3.725,2.18a1.845,1.845,0,0,0,.635,1.49A2.442,2.442,0,0,0,116.986,18.348Zm15.151-1.6a1.492,1.492,0,0,0-.619-1.276,5.958,5.958,0,0,0-2.158-.783,10.2,10.2,0,0,1-2.443-.789,3.475,3.475,0,0,1-1.337-1.1,2.621,2.621,0,0,1-.433-1.512,3.075,3.075,0,0,1,1.232-2.465,4.813,4.813,0,0,1,3.15-1.008,4.953,4.953,0,0,1,3.27,1.041,3.306,3.306,0,0,1,1.254,2.662h-2.038a1.83,1.83,0,0,0-.707-1.435,2.648,2.648,0,0,0-1.78-.6,2.771,2.771,0,0,0-1.731.482,1.517,1.517,0,0,0-.624,1.26,1.229,1.229,0,0,0,.581,1.106,7.144,7.144,0,0,0,2.1.712,10.931,10.931,0,0,1,2.459.811,3.588,3.588,0,0,1,1.4,1.134,2.788,2.788,0,0,1,.455,1.616,3.034,3.034,0,0,1-1.271,2.547,5.331,5.331,0,0,1-3.3.959,5.969,5.969,0,0,1-2.52-.5,4.1,4.1,0,0,1-1.714-1.408,3.393,3.393,0,0,1-.619-1.955h2.027a2.1,2.1,0,0,0,.816,1.616,3.166,3.166,0,0,0,2.01.6,3.268,3.268,0,0,0,1.846-.466A1.431,1.431,0,0,0,132.137,16.749Z" transform="translate(-6839.48 -3106.806)" fill="#fff"/>
      <path id="Trazado_149916" data-name="Trazado 149916" d="M29.447,0H265.027a29.447,29.447,0,1,1,0,58.895H29.447A29.447,29.447,0,0,1,29.447,0Z" transform="translate(-7540.125 -3026.616)" fill="#3c6d9d"/>
      <path id="Trazado_149917" data-name="Trazado 149917" d="M21.16,12.849H14.467v7.044h-2.1V3.942h9.882v1.72H14.467v5.467H21.16Zm10.364,5.872a4.3,4.3,0,0,1-3.473,1.391,3.685,3.685,0,0,1-2.887-1.1,4.766,4.766,0,0,1-1-3.259V8.04h2.027V15.7q0,2.695,2.191,2.695a3.034,3.034,0,0,0,3.089-1.731V8.04H33.5V19.893H31.568Zm9.969,1.391a5.179,5.179,0,0,1-3.922-1.583A5.875,5.875,0,0,1,36.059,14.3v-.372a7.113,7.113,0,0,1,.674-3.15A5.256,5.256,0,0,1,38.617,8.6a4.737,4.737,0,0,1,2.624-.783,4.439,4.439,0,0,1,3.593,1.523,6.593,6.593,0,0,1,1.282,4.36v.844h-8.03a4.213,4.213,0,0,0,1.024,2.832A3.22,3.22,0,0,0,41.6,18.458a3.53,3.53,0,0,0,1.819-.438,4.569,4.569,0,0,0,1.3-1.161l1.238.964A4.978,4.978,0,0,1,41.493,20.112ZM41.241,9.486a2.7,2.7,0,0,0-2.06.893,4.34,4.34,0,0,0-1.03,2.5h5.938v-.153a3.86,3.86,0,0,0-.833-2.394A2.545,2.545,0,0,0,41.241,9.486ZM50.378,8.04l.066,1.49a4.32,4.32,0,0,1,3.549-1.709q3.758,0,3.79,4.24v7.833H55.757V12.049a2.729,2.729,0,0,0-.586-1.9,2.349,2.349,0,0,0-1.791-.613,2.925,2.925,0,0,0-1.731.526,3.571,3.571,0,0,0-1.161,1.38v8.446H48.46V8.04Zm13.212-2.87V8.04H65.8V9.606H63.589v7.36a1.645,1.645,0,0,0,.3,1.069,1.245,1.245,0,0,0,1.008.356,4.907,4.907,0,0,0,.964-.131v1.634a5.91,5.91,0,0,1-1.556.218,2.524,2.524,0,0,1-2.049-.822,3.53,3.53,0,0,1-.69-2.333V9.606H59.4V8.04h2.158V5.169Zm9.5,14.943a5.179,5.179,0,0,1-3.922-1.583A5.875,5.875,0,0,1,67.654,14.3v-.372a7.113,7.113,0,0,1,.674-3.15A5.256,5.256,0,0,1,70.212,8.6a4.737,4.737,0,0,1,2.624-.783,4.439,4.439,0,0,1,3.593,1.523,6.593,6.593,0,0,1,1.282,4.36v.844h-8.03A4.213,4.213,0,0,0,70.7,17.379,3.22,3.22,0,0,0,73.2,18.458a3.53,3.53,0,0,0,1.819-.438,4.569,4.569,0,0,0,1.3-1.161l1.238.964A4.978,4.978,0,0,1,73.088,20.112ZM72.836,9.486a2.7,2.7,0,0,0-2.06.893,4.34,4.34,0,0,0-1.03,2.5h5.938v-.153a3.86,3.86,0,0,0-.833-2.394A2.545,2.545,0,0,0,72.836,9.486Zm14.121,7.263a1.492,1.492,0,0,0-.619-1.276,5.958,5.958,0,0,0-2.158-.783,10.2,10.2,0,0,1-2.443-.789,3.476,3.476,0,0,1-1.337-1.1,2.621,2.621,0,0,1-.433-1.512A3.075,3.075,0,0,1,81.2,8.828a4.813,4.813,0,0,1,3.15-1.008,4.953,4.953,0,0,1,3.27,1.041,3.306,3.306,0,0,1,1.254,2.662H86.836a1.83,1.83,0,0,0-.707-1.435,2.648,2.648,0,0,0-1.78-.6,2.771,2.771,0,0,0-1.731.482,1.517,1.517,0,0,0-.624,1.26,1.229,1.229,0,0,0,.581,1.106,7.144,7.144,0,0,0,2.1.712,10.931,10.931,0,0,1,2.459.811,3.588,3.588,0,0,1,1.4,1.134,2.788,2.788,0,0,1,.455,1.616,3.034,3.034,0,0,1-1.271,2.547,5.331,5.331,0,0,1-3.3.959,5.969,5.969,0,0,1-2.52-.5A4.1,4.1,0,0,1,80.181,18.2a3.393,3.393,0,0,1-.619-1.955h2.027a2.1,2.1,0,0,0,.816,1.616,3.166,3.166,0,0,0,2.01.6,3.268,3.268,0,0,0,1.846-.466A1.431,1.431,0,0,0,86.957,16.749Zm9.728-2.881A6.944,6.944,0,0,1,97.978,9.48a4.4,4.4,0,0,1,6.683-.236V3.066h2.027V19.893h-1.862l-.1-1.271a4.127,4.127,0,0,1-3.385,1.49,4.049,4.049,0,0,1-3.358-1.687,7.023,7.023,0,0,1-1.3-4.4Zm2.027.23a5.257,5.257,0,0,0,.833,3.155,2.692,2.692,0,0,0,2.3,1.139,2.957,2.957,0,0,0,2.815-1.731V11.217a2.979,2.979,0,0,0-2.794-1.676,2.7,2.7,0,0,0-2.322,1.15A5.789,5.789,0,0,0,98.712,14.1Zm16.038,6.014a5.179,5.179,0,0,1-3.922-1.583,5.875,5.875,0,0,1-1.512-4.234v-.372a7.113,7.113,0,0,1,.674-3.15A5.256,5.256,0,0,1,111.874,8.6a4.737,4.737,0,0,1,2.624-.783,4.439,4.439,0,0,1,3.593,1.523,6.593,6.593,0,0,1,1.282,4.36v.844h-8.03a4.213,4.213,0,0,0,1.024,2.832,3.22,3.22,0,0,0,2.492,1.079,3.53,3.53,0,0,0,1.819-.438,4.569,4.569,0,0,0,1.3-1.161l1.238.964A4.978,4.978,0,0,1,114.75,20.112ZM114.5,9.486a2.7,2.7,0,0,0-2.06.893,4.34,4.34,0,0,0-1.03,2.5h5.938v-.153a3.86,3.86,0,0,0-.833-2.394A2.545,2.545,0,0,0,114.5,9.486Zm14.976,10.407h-2.027V8.04h2.027Zm-2.191-15a1.21,1.21,0,0,1,.3-.833,1.131,1.131,0,0,1,.893-.34,1.149,1.149,0,0,1,.9.34,1.2,1.2,0,0,1,.307.833,1.158,1.158,0,0,1-.307.822,1.17,1.17,0,0,1-.9.329,1.151,1.151,0,0,1-.893-.329A1.17,1.17,0,0,1,127.283,4.9Zm7.351,3.144.066,1.49a4.32,4.32,0,0,1,3.549-1.709q3.758,0,3.79,4.24v7.833h-2.027V12.049a2.729,2.729,0,0,0-.586-1.9,2.349,2.349,0,0,0-1.791-.613,2.925,2.925,0,0,0-1.731.526,3.571,3.571,0,0,0-1.161,1.38v8.446h-2.027V8.04Zm11.459,11.853V9.606h-1.873V8.04h1.873V6.824a4.036,4.036,0,0,1,1.019-2.947,3.849,3.849,0,0,1,2.881-1.041,5.351,5.351,0,0,1,1.391.185l-.11,1.634a5.821,5.821,0,0,0-1.1-.1,1.977,1.977,0,0,0-1.523.577,2.34,2.34,0,0,0-.537,1.654V8.04h2.531V9.606h-2.531V19.893Zm6.255-6.036a7,7,0,0,1,.685-3.133,5.108,5.108,0,0,1,1.906-2.147,5.189,5.189,0,0,1,2.788-.756A5,5,0,0,1,161.643,9.5a6.449,6.449,0,0,1,1.5,4.459V14.1a7.062,7.062,0,0,1-.663,3.106,5.033,5.033,0,0,1-1.9,2.142,5.248,5.248,0,0,1-2.832.767,4.986,4.986,0,0,1-3.906-1.676,6.416,6.416,0,0,1-1.5-4.437Zm2.038.241a5.071,5.071,0,0,0,.915,3.166,3.1,3.1,0,0,0,4.9-.016,5.545,5.545,0,0,0,.909-3.391,5.062,5.062,0,0,0-.926-3.161,2.943,2.943,0,0,0-2.459-1.211,2.91,2.91,0,0,0-2.421,1.194A5.5,5.5,0,0,0,154.386,14.1Zm17.024-4.24a6.074,6.074,0,0,0-1-.077,2.671,2.671,0,0,0-2.706,1.7v8.414H165.68V8.04h1.972l.033,1.369a3.156,3.156,0,0,1,2.826-1.588,2.071,2.071,0,0,1,.9.153Zm3.769-1.819.055,1.315a4.378,4.378,0,0,1,3.517-1.534,3.389,3.389,0,0,1,3.385,1.906,4.49,4.49,0,0,1,1.539-1.38,4.546,4.546,0,0,1,2.24-.526q3.9,0,3.966,4.13v7.942h-2.027V12.071a2.722,2.722,0,0,0-.581-1.9,2.557,2.557,0,0,0-1.95-.63,2.687,2.687,0,0,0-1.873.674,2.733,2.733,0,0,0-.865,1.813v7.866h-2.038V12.126a2.261,2.261,0,0,0-2.531-2.585,2.712,2.712,0,0,0-2.728,1.7v8.655h-2.027V8.04Zm25.076,11.853a4.257,4.257,0,0,1-.285-1.249,4.522,4.522,0,0,1-3.374,1.468,4.184,4.184,0,0,1-2.876-.991,3.208,3.208,0,0,1-1.123-2.514A3.351,3.351,0,0,1,194,13.731a6.637,6.637,0,0,1,3.96-1.024h1.972v-.931a2.276,2.276,0,0,0-.635-1.693,2.554,2.554,0,0,0-1.873-.63A2.955,2.955,0,0,0,195.61,10a1.614,1.614,0,0,0-.734,1.326h-2.038a2.8,2.8,0,0,1,.63-1.714A4.3,4.3,0,0,1,195.177,8.3a5.749,5.749,0,0,1,2.372-.482,4.686,4.686,0,0,1,3.21,1.024,3.7,3.7,0,0,1,1.205,2.821v5.456a6.67,6.67,0,0,0,.416,2.6v.175Zm-3.363-1.545a3.562,3.562,0,0,0,1.808-.493,2.982,2.982,0,0,0,1.238-1.282V14.142h-1.589q-3.725,0-3.725,2.18a1.845,1.845,0,0,0,.635,1.49A2.442,2.442,0,0,0,196.892,18.348Zm13,.11a2.919,2.919,0,0,0,1.9-.657,2.312,2.312,0,0,0,.9-1.643h1.917a3.675,3.675,0,0,1-.7,1.939,4.618,4.618,0,0,1-1.725,1.468,4.979,4.979,0,0,1-2.284.548,4.883,4.883,0,0,1-3.851-1.616,6.436,6.436,0,0,1-1.43-4.42v-.34a7.136,7.136,0,0,1,.635-3.078,4.839,4.839,0,0,1,1.824-2.092,5.182,5.182,0,0,1,2.81-.745A4.754,4.754,0,0,1,213.2,9.015a4.268,4.268,0,0,1,1.408,3.1h-1.917a2.793,2.793,0,0,0-.871-1.89,2.709,2.709,0,0,0-1.934-.739,2.837,2.837,0,0,0-2.394,1.112,5.222,5.222,0,0,0-.849,3.215V14.2a5.118,5.118,0,0,0,.844,3.155A2.85,2.85,0,0,0,209.9,18.458Zm9.191,1.435H217.06V8.04h2.027ZM216.9,4.9a1.21,1.21,0,0,1,.3-.833,1.131,1.131,0,0,1,.893-.34,1.149,1.149,0,0,1,.9.34,1.2,1.2,0,0,1,.307.833,1.158,1.158,0,0,1-.307.822,1.17,1.17,0,0,1-.9.329,1.151,1.151,0,0,1-.893-.329A1.17,1.17,0,0,1,216.9,4.9Zm4.9,8.961a7,7,0,0,1,.685-3.133,5.108,5.108,0,0,1,1.906-2.147,5.189,5.189,0,0,1,2.788-.756A5,5,0,0,1,231.088,9.5a6.449,6.449,0,0,1,1.5,4.459V14.1a7.062,7.062,0,0,1-.663,3.106,5.033,5.033,0,0,1-1.9,2.142,5.248,5.248,0,0,1-2.832.767,4.986,4.986,0,0,1-3.906-1.676,6.416,6.416,0,0,1-1.5-4.437Zm2.038.241a5.071,5.071,0,0,0,.915,3.166,3.1,3.1,0,0,0,4.9-.016,5.545,5.545,0,0,0,.909-3.391,5.062,5.062,0,0,0-.926-3.161,2.943,2.943,0,0,0-2.459-1.211,2.91,2.91,0,0,0-2.421,1.194A5.5,5.5,0,0,0,223.83,14.1Zm4.262-11.01h2.454L227.61,6.309,225.977,6.3Zm8.95,4.952.066,1.49a4.32,4.32,0,0,1,3.549-1.709q3.758,0,3.79,4.24v7.833h-2.027V12.049a2.729,2.729,0,0,0-.586-1.9,2.349,2.349,0,0,0-1.791-.613,2.925,2.925,0,0,0-1.731.526,3.571,3.571,0,0,0-1.161,1.38v8.446h-2.027V8.04Z" transform="translate(-7521.129 -3008.648)" fill="#fff"/>
    </g>
  </g>
</svg>
