<?xml version="1.0" encoding="utf-8"?>
<!-- Generator: Adobe Illustrator 26.0.1, SVG Export Plug-In . SVG Version: 6.00 Build 0)  -->
<svg version="1.1" id="Layer_1" xmlns="http://www.w3.org/2000/svg" xmlns:xlink="http://www.w3.org/1999/xlink" x="0px" y="0px"
	 viewBox="0 0 371.4 372.2" style="enable-background:new 0 0 371.4 372.2;" xml:space="preserve">
<style type="text/css">
	.st0{fill:#87B33F;}
</style>
<g>
	<g>
		<path class="st0" d="M366.1,283.4c-20.9-21-41.8-41.9-62.7-62.9c-0.9-0.9-1.8-1.9-2.8-3c1.7-1.7,3.1-3.1,4.6-4.7
			c6,4.5,7.6,4.4,12.7-0.7c4.8-4.8,9.5-9.5,14.3-14.3c4.4-4.4,4.4-7.1,0-11.4c-10-10-19.9-20-29.9-29.9c-2-2-2.9-4-2.9-6.8
			c0.1-35.6,0.1-71.3,0-106.9c-0.1-24.2-18.3-42.7-42.3-42.7C181.5,0,105.9,0,30.3,0.1C13.1,0.1,0.1,13.2,0,30.5C0,45.8,0,61,0,76.3
			c0,5.8,2,7.8,8,7.8c12,0,24,0,35.9,0c1.3,0,2.6,0,4,0c0,2.2,0,3.9,0,5.5c0,83.5,0,167.1,0,250.6c0,19.5,12.6,32.1,32.1,32.1
			c27.7,0,55.4,0,83.1,0c43.2,0,86.3,0,129.5,0c16,0,28.4-10.6,30.5-26.3c0.6-4.6,0.3-9.2,0.3-13.9c0-5.9-2-7.9-7.9-7.9
			c-5.3,0-10.6,0-15.9,0c0-20.2,0-39.9,0-60.1c1.3,1.3,2.3,2.2,3.3,3.1c14,14.1,28,28.1,42.1,42.2c3.9,3.9,6.7,3.9,10.6,0.1
			c3.5-3.4,6.9-6.9,10.3-10.3C373.3,291.7,373.3,290.6,366.1,283.4z M320.3,192.6c-2.7,2.7-5.6,5.6-8.1,8.1c-11-11-22-22-32.7-32.8
			c2.4-2.3,5.4-5.3,8.2-8C298.1,170.4,309.1,181.4,320.3,192.6z M243.2,216.1c10.6-10.6,21.6-21.6,32.3-32.3
			c6.7,6.7,13.7,13.7,20.6,20.6c-10.8,10.7-21.7,21.7-32.3,32.3C256.9,229.8,249.9,222.8,243.2,216.1z M260.4,252.5
			c-2.8,2.8-5.7,5.8-8.2,8.3c-11-11.1-22-22.1-32.8-32.8c2.5-2.5,5.5-5.6,8.3-8.5C238.4,230.3,249.3,241.4,260.4,252.5z M47.9,71.9
			c-12.1,0-23.8,0-35.7,0c-0.1-1.2-0.2-2.3-0.2-3.3c0-12.5,0-25,0-37.4c0-10.9,7.6-19,17.8-19.1c10.4-0.1,18.1,8,18.1,19.1
			C48,44.6,47.9,58.1,47.9,71.9z M95.8,342.5c-0.3,10-8.3,17.8-18.1,17.7c-9.6-0.1-17.5-7.8-17.8-17.6c0-1.4,0-2.8,0-4.1
			c0-100.3,0-200.6,0-300.9c0-8.8-0.1-17.5-6.2-25.6c2,0,3.2,0,4.3,0c65.9,0,131.7,0,197.6,0c19.2,0,31.8,12.7,31.8,32
			c0,33.1,0,66.3,0,99c-2.3,1.8-4.3,3-6,4.6c-4.7,4.5-9.2,9.2-13.8,13.8c-5.3,5.3-5.4,6.7-1.4,12.4c-11,11-22,22.1-33,33.1
			c-5.7-4.1-7.1-3.9-12.4,1.3c-4.9,4.9-9.7,9.7-14.5,14.6c-3.8,3.9-3.8,6.7,0.1,10.6c13.2,13.3,26.4,26.5,39.7,39.8
			c4,4,6.8,4,10.8-0.1c4.8-4.8,9.5-9.5,14.3-14.3c5.3-5.3,5.4-6.8,1.1-12.8c1.5-1.4,3-2.8,5-4.6c3,3,6.2,6.3,9.3,9.6
			c0.5,0.5,0.7,1.6,0.7,2.4c0,23.4,0,46.8,0,70.8c-1.5,0-3,0-4.4,0c-59.4,0-118.8,0-178.1,0c-7.6,0-9.1,1.5-9.1,9.3
			C95.8,336.5,95.9,339.5,95.8,342.5z M297.7,359.5c-1.9,0.5-3.9,0.7-6.1,0.7c-61.9,0-123.8,0-185.6,0c-1.1,0-2.2,0-4.1,0
			c5.4-7.5,6.5-15.3,5.9-23.7c67.9,0,135.6,0,203.2,0c0.2,1.3,0.4,2.5,0.5,3.8C311.9,350,306.6,357.3,297.7,359.5z M350.3,296.9
			c-21.3-21.4-42.8-42.8-64.2-64.3c1.9-1.7,4-3.6,5.8-5.1c21,21.1,42.5,42.6,63.9,64C354.3,292.9,352.3,294.9,350.3,296.9z"/>
		<path class="st0" d="M179.7,258.2c0-29.7-24.1-54-53.6-54.1c-29.8-0.1-54.1,24.1-54.1,54c0,29.7,24.1,54,53.6,54.1
			C155.3,312.3,179.7,288,179.7,258.2z M83.9,258.1c0-23.1,18.9-42,41.9-42c23.1,0,41.9,18.9,41.9,42c0,23.1-18.9,42-41.9,42
			C102.7,300.1,83.9,281.2,83.9,258.1z"/>
		<path class="st0" d="M275.3,36.3c-65.9,0-131.6,0-197.2,0c0,4.1,0,7.8,0,11.6c65.9,0,131.4,0,197.2,0
			C275.3,44,275.3,40.3,275.3,36.3z"/>
		<path class="st0" d="M275.3,60.3c-65.8,0-131.5,0-197.3,0c0,3.9,0,7.6,0,11.5c66,0,131.6,0,197.3,0
			C275.3,67.8,275.3,64.1,275.3,60.3z"/>
		<path class="st0" d="M275.2,84.4c-65.9,0-131.6,0-197.3,0c0,3.9,0,7.5,0,11.5c66,0,131.6,0,197.3,0
			C275.2,91.8,275.2,88,275.2,84.4z"/>
		<path class="st0" d="M78.1,119.9c65.8,0,131.5,0,197.3,0c0-3.9,0-7.6,0-11.5c-66,0-131.6,0-197.3,0
			C78.1,112.3,78.1,116,78.1,119.9z"/>
		<path class="st0" d="M78.1,143.9c65.9,0,131.5,0,197.1,0c0-4,0-7.8,0-11.6c-65.8,0-131.4,0-197.1,0
			C78.1,136.4,78.1,140.1,78.1,143.9z"/>
		<path class="st0" d="M78.2,167.9c57.9,0,115.5,0,173.2,0c0-3.9,0-7.6,0-11.6c-58,0-115.6,0-173.2,0
			C78.2,160.4,78.2,164.2,78.2,167.9z"/>
		<path class="st0" d="M78,191.9c54,0,107.7,0,161.2,0c0-4.1,0-7.9,0-11.5c-53.9,0-107.5,0-161.2,0C78,184.2,78,187.9,78,191.9z"/>
		<path class="st0" d="M191.9,312.1c10.6-0.2,19.5-3.9,27.3-11c3.9,5.1,8.4,9.7,14.8,10.2c9.7,0.7,19.5,0.2,29.3,0.2
			c0-3.5,0-7.3,0-11.3c-7.8,0-15.2,0-22.7,0c-7.5,0-12.2-4.2-12.9-11.7c-0.3-3.1-1.6-5.3-4.6-6.1c-2.9-0.8-5.2,0.4-6.7,2.9
			c-5.6,9.2-13.5,14.4-24.5,15C191.9,304.3,191.9,308.1,191.9,312.1z"/>
		<path class="st0" d="M155.7,258.2c0-16.6-13.4-30.1-29.9-30.1c-16.4,0-29.8,13.4-29.9,29.7c-0.1,16.6,13.3,30.2,29.8,30.3
			C142.1,288.2,155.7,274.8,155.7,258.2z M125.9,276.1c-9.9,0-18.1-8.1-18-18.1c0-9.9,8.3-18,18.2-17.9c9.8,0.1,17.7,8.3,17.7,18.1
			C143.7,268,135.6,276.1,125.9,276.1z"/>
	</g>
</g>
</svg>
