<?xml version="1.0" encoding="utf-8"?>
<!-- Generator: Adobe Illustrator 26.0.1, SVG Export Plug-In . SVG Version: 6.00 Build 0)  -->
<svg version="1.1" id="Layer_1" xmlns="http://www.w3.org/2000/svg" xmlns:xlink="http://www.w3.org/1999/xlink" x="0px" y="0px"
	 viewBox="0 0 1019 661.5" style="enable-background:new 0 0 1019 661.5;" xml:space="preserve">
<style type="text/css">
	.st0{fill:none;stroke:#78B62E;stroke-width:2;}
	.st1{fill:#3C6D9D;}
	.st2{fill:#71AFEB;}
	.st3{fill:#FFFFFF;}
	.st4{fill:#12263F;}
	.st5{fill:none;stroke:#3C6D9D;stroke-width:3;stroke-linecap:round;}
</style>
<path id="Trazado_149857" class="st0" d="M926,180v-41.9H106V180"/>
<path id="Trazado_149862" class="st0" d="M497,94.5v44"/>
<path id="Trazado_149863" class="st0" d="M647.5,137v44"/>
<path id="Trazado_149864" class="st0" d="M385.5,137v44"/>
<path id="Trazado_149865" class="st0" d="M1,319h39"/>
<path id="Trazado_149866" class="st0" d="M286.9,319h39"/>
<path id="Trazado_149867" class="st0" d="M828.9,319h39"/>
<path id="Trazado_149868" class="st0" d="M1,426h39"/>
<path id="Trazado_149869" class="st0" d="M548.9,426h39"/>
<path id="Trazado_149870" class="st0" d="M548.9,319h39"/>
<path id="Trazado_149871" class="st0" d="M548.9,536h39"/>
<path id="Trazado_149872" class="st1" d="M32,180h141c5,0,9,4,9,9v45c0,5-4,9-9,9H32c-5,0-9-4-9-9v-45C23,184,27,180,32,180z"/>
<path id="Trazado_149873" class="st1" d="M577,180.5h141c5,0,9,4,9,9v25c0,5-4,9-9,9H577c-5,0-9-4-9-9v-25
	C568,184.5,572,180.5,577,180.5z"/>
<path id="Trazado_149874" class="st1" d="M860,180.5h141c5,0,9,4,9,9v68c0,5-4,9-9,9H860c-5,0-9-4-9-9v-68
	C851,184.5,855,180.5,860,180.5z"/>
<path id="Trazado_149875" class="st2" d="M427,40.5h141c5,0,9,4,9,9v47c0,5-4,9-9,9l0,0H427c-5,0-9-4-9-9l0,0v-47
	C418,44.5,422,40.5,427,40.5z"/>
<path id="Trazado_149877" class="st3" d="M603.6,202.4c-1-0.2-2-0.7-2.8-1.4c-0.6-0.5-0.9-1.2-0.9-2c0-0.9,0.4-1.7,1.1-2.2
	c0.8-0.6,1.8-0.9,2.8-0.9c0.7,0,1.4,0.1,2.1,0.5c0.6,0.3,1.1,0.7,1.4,1.2c0.3,0.5,0.5,1.1,0.5,1.7h-1.5c0-0.6-0.2-1.2-0.7-1.6
	c-0.5-0.4-1.2-0.6-1.9-0.6c-0.6,0-1.2,0.1-1.7,0.5c-0.4,0.3-0.6,0.8-0.6,1.4c0,0.5,0.2,0.9,0.6,1.2c0.6,0.4,1.3,0.7,2,0.9
	c0.8,0.2,1.5,0.5,2.2,0.9c0.5,0.3,0.9,0.7,1.2,1.1c0.3,0.5,0.4,1,0.4,1.5c0,0.9-0.4,1.7-1.1,2.2c-0.8,0.6-1.9,0.9-2.9,0.8
	c-0.8,0-1.5-0.1-2.2-0.4c-0.6-0.3-1.2-0.7-1.6-1.2c-0.4-0.5-0.6-1.1-0.6-1.8h1.5c0,0.6,0.3,1.2,0.8,1.6c0.6,0.4,1.3,0.6,2,0.6
	c0.6,0,1.3-0.1,1.8-0.5c0.4-0.3,0.7-0.8,0.6-1.3c0-0.5-0.2-1-0.6-1.3C605.1,202.9,604.4,202.6,603.6,202.4z M613,207.7
	c-1.1,0-2.1-0.4-2.8-1.1c-0.7-0.8-1.1-1.9-1.1-3v-0.3c0-0.8,0.2-1.5,0.5-2.2c0.3-0.6,0.8-1.2,1.3-1.5c0.6-0.4,1.2-0.6,1.9-0.6
	c1-0.1,1.9,0.3,2.6,1.1c0.7,0.9,1,2,0.9,3.1v0.6h-5.7c0,0.7,0.2,1.5,0.7,2c0.5,0.5,1.1,0.8,1.8,0.8c0.5,0,0.9-0.1,1.3-0.3
	c0.4-0.2,0.7-0.5,0.9-0.8l0.9,0.7C615.5,207.1,614.3,207.7,613,207.7L613,207.7z M612.8,200.1c-0.6,0-1.1,0.2-1.5,0.6
	c-0.4,0.5-0.7,1.1-0.7,1.8h4.2v-0.1c0-0.6-0.2-1.2-0.6-1.7C613.9,200.3,613.4,200.1,612.8,200.1L612.8,200.1z M617.6,203.2
	c-0.1-1.1,0.3-2.2,0.9-3.1c1.1-1.4,3.1-1.6,4.4-0.5c0.1,0.1,0.3,0.3,0.4,0.4l0.1-0.9h1.3v8.3c0.1,1-0.3,1.9-1,2.6
	c-0.7,0.7-1.7,1-2.6,0.9c-0.6,0-1.2-0.1-1.8-0.4c-0.5-0.2-1-0.6-1.3-1.1l0.8-0.9c0.5,0.7,1.4,1.1,2.3,1.1c0.6,0,1.2-0.2,1.6-0.6
	c0.4-0.5,0.6-1.1,0.6-1.7v-0.7c-0.6,0.7-1.5,1-2.4,1c-0.9,0-1.8-0.4-2.4-1.2C617.9,205.5,617.6,204.4,617.6,203.2L617.6,203.2z
	 M619.1,203.4c0,0.8,0.2,1.6,0.6,2.2c0.4,0.5,1,0.8,1.6,0.8c0.9,0,1.7-0.5,2-1.2v-3.9c-0.4-0.8-1.1-1.2-2-1.2
	c-0.7,0-1.3,0.3-1.6,0.8C619.2,201.7,619,202.5,619.1,203.4L619.1,203.4z M632.2,206.7c-0.6,0.7-1.5,1.1-2.5,1
	c-0.8,0.1-1.5-0.2-2.1-0.8c-0.5-0.7-0.8-1.5-0.7-2.3v-5.5h1.4v5.5c0,1.3,0.5,1.9,1.6,1.9c0.9,0.1,1.8-0.4,2.2-1.2V199h1.4v8.5h-1.4
	L632.2,206.7z M631,195.5h1.8l-2.1,2.3h-1.2L631,195.5z M637.2,199l0,1.1c0.6-0.8,1.5-1.2,2.5-1.2c1.8,0,2.7,1,2.7,3v5.6H641v-5.6
	c0-0.5-0.1-1-0.4-1.4c-0.3-0.3-0.8-0.5-1.3-0.4c-0.4,0-0.9,0.1-1.2,0.4c-0.4,0.3-0.6,0.6-0.8,1v6h-1.4V199H637.2z M648.2,203.2
	c-0.1-1.1,0.3-2.2,0.9-3.1c1.1-1.4,3.1-1.6,4.4-0.5c0.1,0.1,0.2,0.2,0.4,0.3v-4.4h1.4v12H654l-0.1-0.9c-0.6,0.7-1.5,1.1-2.4,1.1
	c-0.9,0-1.8-0.4-2.4-1.2c-0.7-0.9-1-2-0.9-3.1L648.2,203.2z M649.7,203.4c0,0.8,0.2,1.6,0.6,2.2c0.4,0.5,1,0.8,1.6,0.8
	c0.9,0,1.6-0.4,2-1.2v-3.9c-0.4-0.8-1.1-1.2-2-1.2c-0.7,0-1.3,0.3-1.7,0.8C649.8,201.7,649.6,202.5,649.7,203.4L649.7,203.4z
	 M659.2,207.5h-1.4V199h1.4V207.5z M657.6,196.8c0-0.2,0.1-0.4,0.2-0.6c0.2-0.2,0.4-0.3,0.6-0.2c0.2,0,0.5,0.1,0.6,0.2
	c0.1,0.2,0.2,0.4,0.2,0.6c0,0.2-0.1,0.4-0.2,0.6c-0.2,0.2-0.4,0.3-0.6,0.2c-0.2,0-0.5-0.1-0.6-0.2
	C657.7,197.2,657.6,197,657.6,196.8z M666.4,205.3c0-0.4-0.2-0.7-0.4-0.9c-0.5-0.3-1-0.5-1.5-0.6c-0.6-0.1-1.2-0.3-1.7-0.6
	c-0.4-0.2-0.7-0.4-1-0.8c-0.2-0.3-0.3-0.7-0.3-1.1c0-0.7,0.3-1.3,0.9-1.8c0.6-0.5,1.4-0.8,2.2-0.7c0.8,0,1.7,0.2,2.3,0.7
	c0.6,0.5,0.9,1.2,0.9,1.9h-1.5c0-0.4-0.2-0.8-0.5-1c-0.4-0.3-0.8-0.4-1.3-0.4c-0.4,0-0.9,0.1-1.2,0.3c-0.3,0.2-0.5,0.5-0.4,0.9
	c0,0.3,0.1,0.6,0.4,0.8c0.5,0.2,1,0.4,1.5,0.5c0.6,0.1,1.2,0.3,1.8,0.6c0.4,0.2,0.7,0.5,1,0.8c0.2,0.3,0.3,0.7,0.3,1.2
	c0,0.7-0.3,1.4-0.9,1.8c-0.7,0.5-1.5,0.7-2.4,0.7c-0.6,0-1.2-0.1-1.8-0.4c-0.5-0.2-0.9-0.6-1.2-1c-0.3-0.4-0.4-0.9-0.4-1.4h1.4
	c0,0.5,0.2,0.9,0.6,1.2c0.4,0.3,0.9,0.5,1.4,0.4c0.5,0,0.9-0.1,1.3-0.3C666.2,206,666.4,205.6,666.4,205.3L666.4,205.3z
	 M673.2,207.7c-1.1,0-2.1-0.4-2.8-1.1c-0.7-0.8-1.1-1.9-1.1-3v-0.3c0-0.8,0.2-1.5,0.5-2.2c0.3-0.6,0.8-1.2,1.3-1.5
	c0.6-0.4,1.2-0.6,1.9-0.6c1-0.1,1.9,0.3,2.6,1.1c0.7,0.9,1,2,0.9,3.1v0.6h-5.7c0,0.7,0.2,1.5,0.7,2c0.5,0.5,1.1,0.8,1.8,0.8
	c0.5,0,0.9-0.1,1.3-0.3c0.4-0.2,0.7-0.5,0.9-0.8l0.9,0.7C675.7,207.1,674.5,207.7,673.2,207.7L673.2,207.7z M673.1,200.1
	c-0.6,0-1.1,0.2-1.5,0.6c-0.4,0.5-0.7,1.1-0.7,1.8h4.2v-0.1c0-0.6-0.2-1.2-0.6-1.7C674.1,200.3,673.6,200.1,673.1,200.1L673.1,200.1
	z M679.6,199l0,1.1c0.6-0.8,1.5-1.2,2.5-1.2c1.8,0,2.7,1,2.7,3v5.6h-1.4v-5.6c0-0.5-0.1-1-0.4-1.4c-0.3-0.3-0.8-0.5-1.3-0.4
	c-0.4,0-0.9,0.1-1.2,0.4c-0.4,0.3-0.6,0.6-0.8,1v6h-1.5V199L679.6,199z M684.4,195.7c0,0.5-0.1,1-0.5,1.4c-0.3,0.3-0.7,0.5-1.2,0.5
	c-0.2,0-0.4,0-0.6-0.1c-0.2-0.1-0.4-0.2-0.6-0.3c-0.2-0.1-0.4-0.2-0.5-0.3c-0.1,0-0.3-0.1-0.4-0.1c-0.2,0-0.4,0.1-0.5,0.2
	c-0.2,0.2-0.2,0.4-0.2,0.6l-1-0.1c0-0.5,0.1-1,0.5-1.4c0.3-0.4,0.7-0.6,1.2-0.5c0.2,0,0.3,0,0.5,0.1c0.2,0.1,0.4,0.2,0.6,0.3
	c0.2,0.1,0.4,0.2,0.6,0.3c0.1,0,0.3,0.1,0.4,0.1c0.2,0,0.4-0.1,0.6-0.3c0.1-0.2,0.2-0.4,0.2-0.6L684.4,195.7z M686.7,203.2
	c0-0.8,0.2-1.5,0.5-2.2c0.3-0.6,0.8-1.2,1.3-1.5c0.6-0.4,1.3-0.6,2-0.5c1.1,0,2.1,0.4,2.8,1.2c0.7,0.9,1.1,2,1.1,3.2v0.1
	c0,0.8-0.1,1.5-0.5,2.2c-0.3,0.6-0.8,1.2-1.4,1.5c-0.6,0.4-1.3,0.6-2,0.5c-1.1,0-2.1-0.4-2.8-1.2c-0.7-0.9-1.1-2-1.1-3.2
	L686.7,203.2z M688.1,203.4c0,0.8,0.2,1.6,0.7,2.3c0.7,1,2.1,1.1,3.1,0.4c0.1-0.1,0.3-0.3,0.4-0.4c0.5-0.7,0.7-1.6,0.6-2.4
	c0-0.8-0.2-1.6-0.7-2.3c-0.4-0.6-1.1-0.9-1.8-0.9c-0.7,0-1.3,0.3-1.7,0.9C688.3,201.6,688.1,202.5,688.1,203.4L688.1,203.4z"/>
<path id="Trazado_149878" class="st3" d="M912.4,199.4c-1-0.2-2-0.7-2.8-1.4c-0.6-0.5-0.9-1.2-0.9-2c0-0.9,0.4-1.7,1.1-2.2
	c0.8-0.6,1.8-0.9,2.8-0.9c0.7,0,1.4,0.1,2.1,0.5c0.6,0.3,1.1,0.7,1.4,1.2c0.3,0.5,0.5,1.1,0.5,1.7h-1.5c0-0.6-0.2-1.2-0.7-1.6
	c-0.5-0.4-1.2-0.6-1.9-0.6c-0.6,0-1.2,0.1-1.7,0.5c-0.4,0.3-0.6,0.8-0.6,1.4c0,0.5,0.2,0.9,0.6,1.2c0.6,0.4,1.3,0.7,2,0.9
	c0.8,0.2,1.5,0.5,2.2,0.9c0.5,0.3,0.9,0.7,1.2,1.1c0.3,0.5,0.4,1,0.4,1.5c0,0.9-0.4,1.7-1.1,2.2c-0.8,0.6-1.9,0.9-2.9,0.8
	c-0.8,0-1.5-0.1-2.2-0.4c-0.6-0.3-1.2-0.7-1.6-1.2c-0.4-0.5-0.6-1.1-0.6-1.8h1.5c0,0.6,0.3,1.2,0.8,1.6c0.6,0.4,1.3,0.6,2,0.6
	c0.6,0,1.3-0.1,1.8-0.5c0.4-0.3,0.7-0.8,0.6-1.3c0-0.5-0.2-1-0.6-1.3C913.8,199.9,913.1,199.6,912.4,199.4z M921.8,204.7
	c-1.1,0-2.1-0.4-2.8-1.1c-0.7-0.8-1.1-1.9-1.1-3v-0.3c0-0.8,0.1-1.5,0.5-2.2c0.3-0.6,0.8-1.2,1.3-1.5c0.6-0.4,1.2-0.6,1.9-0.6
	c1-0.1,1.9,0.3,2.6,1.1c0.7,0.9,1,2,0.9,3.1v0.6h-5.7c0,0.7,0.2,1.5,0.7,2c0.5,0.5,1.1,0.8,1.8,0.8c0.5,0,0.9-0.1,1.3-0.3
	c0.4-0.2,0.7-0.5,0.9-0.8l0.9,0.7C924.3,204.1,923.1,204.7,921.8,204.7z M921.6,197.1c-0.6,0-1.1,0.2-1.5,0.6
	c-0.4,0.5-0.7,1.1-0.7,1.8h4.2v-0.1c0-0.6-0.2-1.2-0.6-1.7C922.7,197.3,922.2,197.1,921.6,197.1L921.6,197.1z M926.4,200.2
	c-0.1-1.1,0.3-2.2,0.9-3.1c1.1-1.4,3.1-1.6,4.4-0.5c0.1,0.1,0.3,0.2,0.4,0.4l0.1-0.9h1.3v8.3c0.1,1-0.3,1.9-1,2.6
	c-0.7,0.7-1.7,1-2.6,0.9c-0.6,0-1.2-0.1-1.8-0.4c-0.5-0.2-1-0.6-1.3-1.1l0.8-0.9c0.5,0.7,1.4,1.1,2.3,1.1c0.6,0,1.2-0.2,1.6-0.6
	c0.4-0.5,0.6-1.1,0.6-1.7v-0.7c-0.6,0.7-1.5,1-2.4,1c-0.9,0-1.8-0.4-2.4-1.2C926.7,202.5,926.4,201.4,926.4,200.2L926.4,200.2z
	 M927.9,200.4c0,0.8,0.2,1.6,0.6,2.2c0.4,0.5,1,0.8,1.6,0.8c0.9,0,1.7-0.5,2-1.2v-3.9c-0.4-0.8-1.1-1.2-2-1.2
	c-0.7,0-1.3,0.3-1.6,0.8C928,198.7,927.8,199.5,927.9,200.4L927.9,200.4z M941,203.7c-0.6,0.7-1.5,1.1-2.5,1
	c-0.8,0.1-1.5-0.2-2.1-0.8c-0.5-0.7-0.8-1.5-0.7-2.3v-5.5h1.4v5.5c0,1.3,0.5,1.9,1.6,1.9c0.9,0.1,1.8-0.4,2.2-1.2V196h1.4v8.5H941
	L941,203.7z M939.8,192.5h1.8l-2.1,2.3h-1.2L939.8,192.5z M945.9,196l0,1.1c0.6-0.8,1.5-1.2,2.5-1.2c1.8,0,2.7,1,2.7,3v5.6h-1.4
	v-5.6c0-0.5-0.1-1-0.4-1.4c-0.3-0.3-0.8-0.5-1.3-0.4c-0.4,0-0.9,0.1-1.2,0.4c-0.4,0.3-0.6,0.6-0.8,1v6h-1.4V196H945.9z M886.6,224.4
	c0.1,1.1-0.3,2.2-0.9,3.1c-0.6,0.8-1.4,1.2-2.4,1.2c-0.9,0-1.8-0.3-2.4-1v4.1h-1.4V220h1.3l0.1,0.9c0.6-0.7,1.5-1.1,2.5-1.1
	c0.9,0,1.8,0.4,2.4,1.1c0.6,0.9,1,2.1,0.9,3.2L886.6,224.4z M885.1,224.2c0-0.8-0.2-1.6-0.6-2.3c-0.4-0.5-1-0.9-1.7-0.8
	c-0.8,0-1.6,0.4-2,1.2v4c0.4,0.7,1.2,1.2,2,1.2c0.7,0,1.3-0.3,1.7-0.8C885,225.9,885.2,225.1,885.1,224.2z M893.6,228.5
	c-0.1-0.3-0.2-0.6-0.2-0.9c-0.6,0.7-1.5,1.1-2.4,1c-0.7,0-1.5-0.2-2.1-0.7c-0.5-0.4-0.8-1.1-0.8-1.8c0-0.8,0.3-1.6,1-2.1
	c0.8-0.5,1.8-0.8,2.8-0.7h1.4v-0.7c0-0.4-0.1-0.9-0.5-1.2c-0.4-0.3-0.8-0.5-1.3-0.4c-0.5,0-0.9,0.1-1.3,0.4
	c-0.3,0.2-0.5,0.6-0.5,0.9h-1.4c0-0.4,0.2-0.9,0.4-1.2c0.3-0.4,0.7-0.7,1.2-0.9c0.5-0.2,1.1-0.4,1.7-0.3c0.8,0,1.6,0.2,2.3,0.7
	c0.6,0.5,0.9,1.2,0.9,2v3.9c0,0.6,0.1,1.3,0.3,1.9v0.1H893.6z M891.2,227.4c0.5,0,0.9-0.1,1.3-0.4c0.4-0.2,0.7-0.5,0.9-0.9v-1.7
	h-1.1c-1.8,0-2.7,0.5-2.7,1.6c0,0.4,0.1,0.8,0.5,1.1C890.4,227.3,890.8,227.4,891.2,227.4L891.2,227.4z M901.2,221.3
	c-0.2,0-0.5-0.1-0.7-0.1c-0.8-0.1-1.6,0.4-1.9,1.2v6h-1.4V220h1.4l0,1c0.4-0.7,1.2-1.2,2-1.1c0.2,0,0.4,0,0.6,0.1L901.2,221.3z
	 M907.4,228.5c-0.1-0.3-0.2-0.6-0.2-0.9c-0.6,0.7-1.5,1.1-2.4,1c-0.7,0-1.5-0.2-2.1-0.7c-0.5-0.4-0.8-1.1-0.8-1.8
	c0-0.8,0.3-1.6,1-2.1c0.8-0.5,1.8-0.8,2.8-0.7h1.4v-0.7c0-0.4-0.1-0.9-0.5-1.2c-0.4-0.3-0.8-0.5-1.3-0.4c-0.5,0-0.9,0.1-1.3,0.4
	c-0.3,0.2-0.5,0.6-0.5,0.9h-1.5c0-0.4,0.2-0.9,0.4-1.2c0.3-0.4,0.7-0.7,1.2-0.9c0.5-0.2,1.1-0.4,1.7-0.3c0.8,0,1.6,0.2,2.3,0.7
	c0.6,0.5,0.9,1.2,0.9,2v3.9c0,0.6,0.1,1.3,0.3,1.9v0.1H907.4z M905,227.4c0.5,0,0.9-0.1,1.3-0.4c0.4-0.2,0.7-0.5,0.9-0.9v-1.7h-1.1
	c-1.8,0-2.7,0.5-2.7,1.6c0,0.4,0.1,0.8,0.5,1.1C904.2,227.3,904.6,227.4,905,227.4L905,227.4z M906.4,216.5h1.8l-2.1,2.3h-1.2
	L906.4,216.5z M912.3,220l0,0.9c0.6-0.7,1.5-1.1,2.5-1.1c1-0.1,2,0.4,2.4,1.4c0.3-0.4,0.7-0.7,1.1-1c0.5-0.3,1-0.4,1.6-0.4
	c1.9,0,2.8,1,2.8,2.9v5.7h-1.4v-5.6c0-0.5-0.1-1-0.4-1.4c-0.4-0.3-0.9-0.5-1.4-0.4c-0.5,0-1,0.2-1.3,0.5c-0.4,0.3-0.6,0.8-0.6,1.3
	v5.6h-1.5V223c0.1-0.9-0.5-1.7-1.4-1.8c-0.1,0-0.3,0-0.4,0c-0.8-0.1-1.6,0.4-1.9,1.2v6.2h-1.5V220L912.3,220z M928.5,228.7
	c-1.1,0-2.1-0.4-2.8-1.1c-0.7-0.8-1.1-1.9-1.1-3v-0.3c0-0.8,0.2-1.5,0.5-2.2c0.3-0.6,0.8-1.2,1.3-1.5c0.6-0.4,1.2-0.6,1.9-0.6
	c1-0.1,1.9,0.3,2.6,1.1c0.7,0.9,1,2,0.9,3.1v0.6H926c0,0.7,0.2,1.5,0.7,2c0.5,0.5,1.1,0.8,1.8,0.8c0.5,0,0.9-0.1,1.3-0.3
	c0.4-0.2,0.7-0.5,0.9-0.8l0.9,0.7C931,228.1,929.7,228.7,928.5,228.7L928.5,228.7z M928.3,221.1c-0.6,0-1.1,0.2-1.5,0.6
	c-0.4,0.5-0.7,1.1-0.7,1.8h4.2v-0.1c0-0.6-0.2-1.2-0.6-1.7C929.4,221.3,928.8,221.1,928.3,221.1L928.3,221.1z M935.4,218v2h1.6v1.1
	h-1.6v5.2c0,0.3,0.1,0.5,0.2,0.8c0.2,0.2,0.5,0.3,0.7,0.3c0.2,0,0.5,0,0.7-0.1v1.2c-0.4,0.1-0.7,0.2-1.1,0.2c-0.6,0-1.1-0.2-1.5-0.6
	c-0.4-0.5-0.5-1.1-0.5-1.7v-5.2h-1.5V220h1.5v-2H935.4z M942.7,221.3c-0.2,0-0.5-0.1-0.7-0.1c-0.8-0.1-1.6,0.4-1.9,1.2v6h-1.4V220
	h1.4l0,1c0.4-0.7,1.2-1.2,2-1.1c0.2,0,0.4,0,0.6,0.1L942.7,221.3z M943.5,224.2c0-0.8,0.2-1.5,0.5-2.2c0.3-0.6,0.8-1.2,1.4-1.5
	c0.6-0.4,1.3-0.6,2-0.5c1.1,0,2.1,0.4,2.8,1.2c0.7,0.9,1.1,2,1.1,3.2v0.1c0,0.8-0.1,1.5-0.5,2.2c-0.3,0.6-0.8,1.2-1.3,1.5
	c-0.6,0.4-1.3,0.6-2,0.5c-1.1,0-2.1-0.4-2.8-1.2c-0.7-0.9-1.1-2-1.1-3.2L943.5,224.2z M945,224.4c0,0.8,0.2,1.6,0.7,2.3
	c0.7,1,2.1,1.1,3.1,0.4c0.1-0.1,0.3-0.3,0.4-0.4c0.5-0.7,0.7-1.6,0.6-2.4c0-0.8-0.2-1.6-0.7-2.3c-0.4-0.6-1.1-0.9-1.8-0.9
	c-0.7,0-1.3,0.3-1.7,0.9C945.2,222.6,944.9,223.5,945,224.4L945,224.4z M958,226.3c0-0.4-0.2-0.7-0.4-0.9c-0.5-0.3-1-0.5-1.5-0.6
	c-0.6-0.1-1.2-0.3-1.7-0.6c-0.4-0.2-0.7-0.4-1-0.8c-0.2-0.3-0.3-0.7-0.3-1.1c0-0.7,0.3-1.3,0.9-1.8c0.6-0.5,1.4-0.8,2.2-0.7
	c0.8,0,1.7,0.2,2.3,0.7c0.6,0.5,0.9,1.2,0.9,1.9h-1.5c0-0.4-0.2-0.8-0.5-1c-0.4-0.3-0.8-0.4-1.3-0.4c-0.4,0-0.9,0.1-1.2,0.3
	c-0.3,0.2-0.5,0.5-0.4,0.9c0,0.3,0.1,0.6,0.4,0.8c0.5,0.2,1,0.4,1.5,0.5c0.6,0.1,1.2,0.3,1.8,0.6c0.4,0.2,0.7,0.5,1,0.8
	c0.2,0.3,0.3,0.7,0.3,1.2c0,0.7-0.3,1.4-0.9,1.8c-0.7,0.5-1.5,0.7-2.4,0.7c-0.6,0-1.2-0.1-1.8-0.4c-0.5-0.2-0.9-0.6-1.2-1
	c-0.3-0.4-0.4-0.9-0.4-1.4h1.4c0,0.5,0.2,0.9,0.6,1.2c0.4,0.3,0.9,0.5,1.4,0.4c0.5,0,0.9-0.1,1.3-0.3C957.8,227,958,226.6,958,226.3
	L958,226.3z M964.9,224.2c-0.1-1.1,0.3-2.2,0.9-3.1c1.1-1.4,3.1-1.6,4.4-0.5c0.1,0.1,0.2,0.2,0.4,0.3v-4.4h1.4v12h-1.3l-0.1-0.9
	c-0.6,0.7-1.5,1.1-2.4,1.1c-0.9,0-1.8-0.4-2.4-1.2c-0.7-0.9-1-2-0.9-3.1V224.2z M966.3,224.4c0,0.8,0.2,1.6,0.6,2.2
	c0.4,0.5,1,0.8,1.6,0.8c0.9,0,1.7-0.5,2-1.2v-3.9c-0.4-0.8-1.1-1.2-2-1.2c-0.7,0-1.3,0.3-1.7,0.8
	C966.5,222.7,966.3,223.5,966.3,224.4L966.3,224.4z M977.8,228.7c-1.1,0-2.1-0.4-2.8-1.1c-0.7-0.8-1.1-1.9-1.1-3v-0.3
	c0-0.8,0.2-1.5,0.5-2.2c0.3-0.6,0.8-1.2,1.3-1.5c0.6-0.4,1.2-0.6,1.9-0.6c1-0.1,1.9,0.3,2.6,1.1c0.7,0.9,1,2,0.9,3.1v0.6h-5.7
	c0,0.7,0.2,1.5,0.7,2c0.5,0.5,1.1,0.8,1.8,0.8c0.5,0,0.9-0.1,1.3-0.3c0.4-0.2,0.7-0.5,0.9-0.8l0.9,0.7
	C980.3,228.1,979.1,228.7,977.8,228.7L977.8,228.7z M977.6,221.1c-0.6,0-1.1,0.2-1.5,0.6c-0.4,0.5-0.7,1.1-0.7,1.8h4.2v-0.1
	c0-0.6-0.2-1.2-0.6-1.7C978.7,221.3,978.1,221.1,977.6,221.1L977.6,221.1z M899.6,244l0,0.9c0.6-0.7,1.5-1.1,2.5-1.1
	c1-0.1,2,0.4,2.4,1.4c0.3-0.4,0.7-0.7,1.1-1c0.5-0.3,1-0.4,1.6-0.4c1.9,0,2.8,1,2.8,2.9v5.7h-1.4v-5.6c0-0.5-0.1-1-0.4-1.4
	c-0.4-0.3-0.9-0.5-1.4-0.4c-0.5,0-1,0.2-1.3,0.5c-0.4,0.3-0.6,0.8-0.6,1.3v5.6h-1.5V247c0.1-0.9-0.5-1.7-1.4-1.8c-0.1,0-0.3,0-0.4,0
	c-0.8-0.1-1.6,0.4-1.9,1.2v6.2h-1.5V244H899.6z M915.8,252.7c-1.1,0-2.1-0.4-2.8-1.1c-0.7-0.8-1.1-1.9-1.1-3v-0.3
	c0-0.8,0.2-1.5,0.5-2.2c0.3-0.6,0.8-1.2,1.3-1.5c0.6-0.4,1.2-0.6,1.9-0.6c1-0.1,1.9,0.3,2.6,1.1c0.7,0.9,1,2,0.9,3.1v0.6h-5.7
	c0,0.7,0.2,1.5,0.7,2c0.5,0.5,1.1,0.8,1.8,0.8c0.5,0,0.9-0.1,1.3-0.3c0.4-0.2,0.7-0.5,0.9-0.8l0.9,0.7
	C918.3,252.1,917.1,252.7,915.8,252.7L915.8,252.7z M915.6,245.1c-0.6,0-1.1,0.2-1.5,0.6c-0.4,0.5-0.7,1.1-0.7,1.8h4.2v-0.1
	c0-0.6-0.2-1.2-0.6-1.7C916.7,245.3,916.2,245.1,915.6,245.1z M920.4,248.2c-0.1-1.1,0.3-2.2,0.9-3.1c1.1-1.4,3.1-1.6,4.4-0.5
	c0.1,0.1,0.2,0.2,0.4,0.3v-4.4h1.4v12h-1.3l-0.1-0.9c-0.6,0.7-1.5,1.1-2.4,1.1c-0.9,0-1.8-0.4-2.4-1.2c-0.7-0.9-1-2-0.9-3.1
	L920.4,248.2z M921.9,248.4c0,0.8,0.2,1.6,0.6,2.2c0.4,0.5,1,0.8,1.6,0.8c0.9,0,1.6-0.5,2-1.2v-3.9c-0.4-0.8-1.1-1.2-2-1.2
	c-0.7,0-1.3,0.3-1.7,0.8C922,246.7,921.8,247.5,921.9,248.4L921.9,248.4z M931.4,252.5h-1.4V244h1.4V252.5z M929.8,241.8
	c0-0.2,0.1-0.4,0.2-0.6c0.2-0.2,0.4-0.3,0.6-0.2c0.2,0,0.5,0.1,0.6,0.2c0.1,0.2,0.2,0.4,0.2,0.6c0,0.2-0.1,0.4-0.2,0.6
	c-0.2,0.2-0.4,0.3-0.6,0.2c-0.2,0-0.5-0.1-0.6-0.2C929.9,242.2,929.8,242,929.8,241.8z M937.1,251.5c0.5,0,1-0.2,1.4-0.5
	c0.4-0.3,0.6-0.7,0.6-1.2h1.4c0,0.5-0.2,1-0.5,1.4c-0.3,0.4-0.7,0.8-1.2,1c-0.5,0.3-1.1,0.4-1.6,0.4c-1,0-2.1-0.4-2.7-1.2
	c-0.7-0.9-1.1-2-1-3.2v-0.2c0-0.8,0.1-1.5,0.5-2.2c0.3-0.6,0.7-1.1,1.3-1.5c0.6-0.4,1.3-0.5,2-0.5c0.9,0,1.7,0.3,2.4,0.9
	c0.6,0.6,1,1.4,1,2.2h-1.4c0-0.5-0.2-1-0.6-1.3c-0.4-0.4-0.9-0.5-1.4-0.5c-0.7,0-1.3,0.3-1.7,0.8c-0.4,0.7-0.7,1.5-0.6,2.3v0.3
	c-0.1,0.8,0.2,1.6,0.6,2.2C935.8,251.2,936.4,251.5,937.1,251.5L937.1,251.5z M943.6,252.5h-1.4V244h1.4L943.6,252.5z M942.1,241.8
	c0-0.2,0.1-0.4,0.2-0.6c0.2-0.2,0.4-0.3,0.6-0.2c0.2,0,0.5,0.1,0.6,0.2c0.1,0.2,0.2,0.4,0.2,0.6c0,0.2-0.1,0.4-0.2,0.6
	c-0.2,0.2-0.4,0.3-0.6,0.2c-0.2,0-0.5-0.1-0.6-0.2C942.1,242.2,942.1,242,942.1,241.8z M945.6,248.2c0-0.8,0.2-1.5,0.5-2.2
	c0.3-0.6,0.8-1.2,1.4-1.5c0.6-0.4,1.3-0.6,2-0.5c1.1,0,2.1,0.4,2.8,1.2c0.7,0.9,1.1,2,1.1,3.2v0.1c0,0.8-0.1,1.5-0.5,2.2
	c-0.3,0.6-0.8,1.2-1.4,1.5c-0.6,0.4-1.3,0.6-2,0.5c-1.1,0-2.1-0.4-2.8-1.2c-0.7-0.9-1.1-2-1.1-3.2V248.2z M947,248.4
	c0,0.8,0.2,1.6,0.7,2.3c0.7,1,2.1,1.1,3.1,0.4c0.1-0.1,0.3-0.3,0.4-0.4c0.5-0.7,0.7-1.6,0.6-2.4c0-0.8-0.2-1.6-0.7-2.3
	c-0.4-0.6-1.1-0.9-1.8-0.9c-0.7,0-1.3,0.3-1.7,0.9C947.2,246.7,947,247.5,947,248.4L947,248.4z M950.1,240.5h1.8l-2.1,2.3h-1.2
	L950.1,240.5z M956.4,244.1l0,1.1c0.6-0.8,1.5-1.2,2.5-1.2c1.8,0,2.7,1,2.7,3v5.6h-1.4v-5.6c0-0.5-0.1-1-0.4-1.4
	c-0.3-0.3-0.8-0.5-1.3-0.4c-0.4,0-0.9,0.1-1.2,0.4c-0.4,0.3-0.6,0.6-0.8,1v6h-1.4V244L956.4,244.1z"/>
<path id="Trazado_149879" class="st4" d="M446.4,56.4h-3.7v10.1h-1.5V56.4h-3.6v-1.2h8.8L446.4,56.4z M449.4,66.5H448V58h1.4V66.5z
	 M447.9,55.8c0-0.2,0.1-0.4,0.2-0.6c0.2-0.2,0.4-0.3,0.6-0.2c0.2,0,0.5,0.1,0.6,0.2c0.1,0.2,0.2,0.4,0.2,0.6c0,0.2-0.1,0.4-0.2,0.6
	c-0.2,0.2-0.4,0.3-0.6,0.2c-0.2,0-0.5-0.1-0.6-0.2C447.9,56.2,447.8,56,447.9,55.8z M458.9,62.4c0.1,1.1-0.3,2.2-0.9,3.1
	c-0.6,0.8-1.4,1.2-2.4,1.2c-0.9,0-1.8-0.3-2.4-1v4.1h-1.4V58h1.3l0.1,0.9c0.6-0.7,1.5-1.1,2.5-1.1c0.9,0,1.8,0.4,2.4,1.1
	c0.6,0.9,1,2.1,0.9,3.2L458.9,62.4z M457.4,62.2c0-0.8-0.2-1.6-0.6-2.3c-0.4-0.5-1-0.9-1.7-0.8c-0.8,0-1.6,0.4-2,1.2v4
	c0.4,0.7,1.2,1.2,2,1.2c0.7,0,1.3-0.3,1.7-0.8C457.3,63.9,457.5,63.1,457.4,62.2z M460.3,62.2c0-0.8,0.2-1.5,0.5-2.2
	c0.3-0.6,0.8-1.2,1.4-1.5c0.6-0.4,1.3-0.6,2-0.5c1.1,0,2.1,0.4,2.8,1.2c0.7,0.9,1.1,2,1.1,3.2v0.1c0,0.8-0.1,1.5-0.5,2.2
	c-0.3,0.6-0.8,1.2-1.3,1.5c-0.6,0.4-1.3,0.6-2,0.5c-1.1,0-2.1-0.4-2.8-1.2c-0.7-0.9-1.1-2-1.1-3.2L460.3,62.2z M461.8,62.4
	c0,0.8,0.2,1.6,0.7,2.3c0.7,1,2.1,1.1,3.1,0.4c0.1-0.1,0.3-0.3,0.4-0.4c0.5-0.7,0.7-1.6,0.6-2.4c0-0.8-0.2-1.6-0.7-2.3
	c-0.4-0.6-1.1-0.9-1.8-0.9c-0.7,0-1.3,0.3-1.7,0.9C462,60.6,461.7,61.5,461.8,62.4L461.8,62.4z M474.8,64.3c0-0.4-0.2-0.7-0.4-0.9
	c-0.5-0.3-1-0.5-1.5-0.6c-0.6-0.1-1.2-0.3-1.7-0.6c-0.4-0.2-0.7-0.4-1-0.8c-0.2-0.3-0.3-0.7-0.3-1.1c0-0.7,0.3-1.3,0.9-1.8
	c0.6-0.5,1.4-0.8,2.2-0.7c0.8,0,1.7,0.2,2.3,0.7c0.6,0.5,0.9,1.2,0.9,1.9h-1.5c0-0.4-0.2-0.8-0.5-1c-0.4-0.3-0.8-0.4-1.3-0.4
	c-0.4,0-0.9,0.1-1.2,0.3c-0.3,0.2-0.5,0.5-0.4,0.9c0,0.3,0.1,0.6,0.4,0.8c0.5,0.2,1,0.4,1.5,0.5c0.6,0.1,1.2,0.3,1.8,0.6
	c0.4,0.2,0.7,0.5,1,0.8c0.2,0.3,0.3,0.7,0.3,1.2c0,0.7-0.3,1.4-0.9,1.8c-0.7,0.5-1.5,0.7-2.4,0.7c-0.6,0-1.2-0.1-1.8-0.4
	c-0.5-0.2-0.9-0.6-1.2-1c-0.3-0.4-0.4-0.9-0.4-1.4h1.4c0,0.5,0.2,0.9,0.6,1.2c0.4,0.3,0.9,0.5,1.4,0.4c0.5,0,0.9-0.1,1.3-0.3
	C474.6,65,474.8,64.6,474.8,64.3L474.8,64.3z M481.7,62.2c-0.1-1.1,0.3-2.2,0.9-3.1c1.1-1.4,3.1-1.6,4.4-0.5
	c0.1,0.1,0.2,0.2,0.4,0.3v-4.4h1.4v12h-1.3l-0.1-0.9c-0.6,0.7-1.5,1.1-2.4,1.1c-0.9,0-1.8-0.4-2.4-1.2c-0.7-0.9-1-2-0.9-3.1
	L481.7,62.2z M483.1,62.4c0,0.8,0.2,1.6,0.6,2.2c0.4,0.5,1,0.8,1.6,0.8c0.9,0,1.7-0.4,2-1.2v-3.9c-0.4-0.8-1.1-1.2-2-1.2
	c-0.7,0-1.3,0.3-1.7,0.8C483.3,60.7,483.1,61.5,483.1,62.4L483.1,62.4z M494.6,66.7c-1.1,0-2.1-0.4-2.8-1.1c-0.7-0.8-1.1-1.9-1.1-3
	v-0.3c0-0.8,0.2-1.5,0.5-2.2c0.3-0.6,0.8-1.2,1.3-1.5c0.6-0.4,1.2-0.6,1.9-0.6c1-0.1,1.9,0.3,2.6,1.1c0.7,0.9,1,2,0.9,3.1v0.6h-5.7
	c0,0.7,0.2,1.5,0.7,2c0.5,0.5,1.1,0.8,1.8,0.8c0.5,0,0.9-0.1,1.3-0.3c0.4-0.2,0.7-0.5,0.9-0.8l0.9,0.7
	C497.1,66.1,495.9,66.7,494.6,66.7L494.6,66.7z M494.4,59.1c-0.6,0-1.1,0.2-1.5,0.6c-0.4,0.5-0.7,1.1-0.7,1.8h4.2v-0.1
	c0-0.6-0.2-1.2-0.6-1.7C495.5,59.3,494.9,59.1,494.4,59.1L494.4,59.1z M508.7,66.5c-0.1-0.3-0.2-0.6-0.2-0.9c-0.6,0.7-1.5,1.1-2.4,1
	c-0.7,0-1.5-0.2-2.1-0.7c-0.5-0.4-0.8-1.1-0.8-1.8c0-0.8,0.3-1.6,1-2.1c0.8-0.5,1.8-0.8,2.8-0.7h1.4v-0.7c0-0.4-0.1-0.9-0.5-1.2
	c-0.4-0.3-0.8-0.5-1.3-0.4c-0.5,0-0.9,0.1-1.3,0.4c-0.3,0.2-0.5,0.6-0.5,0.9h-1.5c0-0.4,0.2-0.9,0.4-1.2c0.3-0.4,0.7-0.7,1.2-0.9
	c0.5-0.2,1.1-0.4,1.7-0.3c0.8,0,1.6,0.2,2.3,0.7c0.6,0.5,0.9,1.2,0.9,2v3.9c0,0.6,0.1,1.3,0.3,1.9v0.1H508.7z M506.3,65.4
	c0.5,0,0.9-0.1,1.3-0.4c0.4-0.2,0.7-0.5,0.9-0.9v-1.7h-1.1c-1.8,0-2.7,0.5-2.7,1.6c0,0.4,0.1,0.8,0.5,1.1
	C505.5,65.3,505.9,65.4,506.3,65.4L506.3,65.4z M513.6,58l0,1.1c0.6-0.8,1.5-1.2,2.5-1.2c1.8,0,2.7,1,2.7,3v5.6h-1.4v-5.6
	c0-0.5-0.1-1-0.4-1.4c-0.3-0.3-0.8-0.5-1.3-0.4c-0.4,0-0.9,0.1-1.2,0.4c-0.4,0.3-0.6,0.6-0.8,1v6h-1.4V58L513.6,58z M526.3,66.5
	c-0.1-0.3-0.2-0.6-0.2-0.9c-0.6,0.7-1.5,1.1-2.4,1c-0.7,0-1.5-0.2-2.1-0.7c-0.5-0.4-0.8-1.1-0.8-1.8c0-0.8,0.3-1.6,1-2.1
	c0.8-0.5,1.8-0.8,2.8-0.7h1.4v-0.7c0-0.4-0.1-0.9-0.5-1.2c-0.4-0.3-0.8-0.5-1.3-0.4c-0.5,0-0.9,0.1-1.3,0.4
	c-0.3,0.2-0.5,0.6-0.5,0.9H521c0-0.4,0.2-0.9,0.4-1.2c0.3-0.4,0.7-0.7,1.2-0.9c0.5-0.2,1.1-0.4,1.7-0.3c0.8,0,1.6,0.2,2.3,0.7
	c0.6,0.5,0.9,1.2,0.9,2v3.9c0,0.6,0.1,1.3,0.3,1.9v0.1H526.3z M523.9,65.4c0.5,0,0.9-0.1,1.3-0.4c0.4-0.2,0.7-0.5,0.9-0.9v-1.7h-1.1
	c-1.8,0-2.7,0.5-2.7,1.6c0,0.4,0.1,0.8,0.5,1.1C523,65.3,523.4,65.4,523.9,65.4L523.9,65.4z M525.2,54.5h1.8l-2.1,2.3h-1.2
	L525.2,54.5z M531.3,66.5h-1.4v-12h1.4L531.3,66.5z M535.2,66.5h-1.4V58h1.4L535.2,66.5z M533.6,55.8c0-0.2,0.1-0.4,0.2-0.6
	c0.2-0.2,0.4-0.3,0.6-0.2c0.2,0,0.5,0.1,0.6,0.2c0.1,0.2,0.2,0.4,0.2,0.6c0,0.2-0.1,0.4-0.2,0.6c-0.2,0.2-0.4,0.3-0.6,0.2
	c-0.2,0-0.5-0.1-0.6-0.2C533.7,56.2,533.6,56,533.6,55.8z M542.4,64.3c0-0.4-0.2-0.7-0.4-0.9c-0.5-0.3-1-0.5-1.5-0.6
	c-0.6-0.1-1.2-0.3-1.7-0.6c-0.4-0.2-0.7-0.4-1-0.8c-0.2-0.3-0.3-0.7-0.3-1.1c0-0.7,0.3-1.3,0.9-1.8c0.6-0.5,1.4-0.8,2.2-0.7
	c0.8,0,1.7,0.2,2.3,0.7c0.6,0.5,0.9,1.2,0.9,1.9h-1.5c0-0.4-0.2-0.8-0.5-1c-0.4-0.3-0.8-0.4-1.3-0.4c-0.4,0-0.9,0.1-1.2,0.3
	c-0.3,0.2-0.5,0.5-0.4,0.9c0,0.3,0.1,0.6,0.4,0.8c0.5,0.2,1,0.4,1.5,0.5c0.6,0.1,1.2,0.3,1.8,0.6c0.4,0.2,0.7,0.5,1,0.8
	c0.2,0.3,0.3,0.7,0.3,1.2c0,0.7-0.3,1.4-0.9,1.8c-0.7,0.5-1.5,0.7-2.4,0.7c-0.6,0-1.2-0.1-1.8-0.4c-0.5-0.2-0.9-0.6-1.2-1
	c-0.3-0.4-0.4-0.9-0.4-1.4h1.4c0,0.5,0.2,0.9,0.6,1.2c0.4,0.3,0.9,0.5,1.4,0.4c0.5,0,0.9-0.1,1.3-0.3
	C542.2,65,542.4,64.6,542.4,64.3L542.4,64.3z M547.3,66.5h-1.4V58h1.4V66.5z M545.8,55.8c0-0.2,0.1-0.4,0.2-0.6
	c0.2-0.2,0.4-0.3,0.6-0.2c0.2,0,0.5,0.1,0.6,0.2c0.1,0.2,0.2,0.4,0.2,0.6c0,0.2-0.1,0.4-0.2,0.6c-0.2,0.2-0.4,0.3-0.6,0.2
	c-0.2,0-0.5-0.1-0.6-0.2C545.8,56.2,545.8,56,545.8,55.8z M554.6,64.3c0-0.4-0.2-0.7-0.4-0.9c-0.5-0.3-1-0.5-1.5-0.6
	c-0.6-0.1-1.2-0.3-1.7-0.6c-0.4-0.2-0.7-0.4-1-0.8c-0.2-0.3-0.3-0.7-0.3-1.1c0-0.7,0.3-1.3,0.9-1.8c0.6-0.5,1.4-0.8,2.2-0.7
	c0.8,0,1.7,0.2,2.3,0.7c0.6,0.5,0.9,1.2,0.9,1.9h-1.5c0-0.4-0.2-0.8-0.5-1c-0.4-0.3-0.8-0.4-1.3-0.4c-0.4,0-0.9,0.1-1.2,0.3
	c-0.3,0.2-0.5,0.5-0.4,0.9c0,0.3,0.1,0.6,0.4,0.8c0.5,0.2,1,0.4,1.5,0.5c0.6,0.1,1.2,0.3,1.8,0.6c0.4,0.2,0.7,0.5,1,0.8
	c0.2,0.3,0.3,0.7,0.3,1.2c0,0.7-0.3,1.4-0.9,1.8c-0.7,0.5-1.5,0.7-2.4,0.7c-0.6,0-1.2-0.1-1.8-0.4c-0.5-0.2-0.9-0.6-1.2-1
	c-0.3-0.4-0.4-0.9-0.4-1.4h1.4c0,0.5,0.2,0.9,0.6,1.2c0.4,0.3,0.9,0.5,1.4,0.4c0.5,0,0.9-0.1,1.3-0.3
	C554.4,65,554.6,64.6,554.6,64.3L554.6,64.3z M451.6,86.2c-0.1-1.1,0.3-2.2,0.9-3.1c1.1-1.4,3.1-1.6,4.4-0.5
	c0.1,0.1,0.2,0.2,0.4,0.3v-4.4h1.4v12h-1.3l-0.1-0.9c-0.6,0.7-1.5,1.1-2.4,1.1c-0.9,0-1.8-0.4-2.4-1.2c-0.7-0.9-1-2-0.9-3.1V86.2z
	 M453,86.4c0,0.8,0.2,1.6,0.6,2.2c0.4,0.5,1,0.8,1.6,0.8c0.9,0,1.7-0.4,2-1.2v-3.9c-0.4-0.8-1.1-1.2-2-1.2c-0.7,0-1.3,0.3-1.7,0.8
	C453.2,84.7,453,85.5,453,86.4L453,86.4z M464.4,90.7c-1.1,0-2.1-0.4-2.8-1.1c-0.7-0.8-1.1-1.9-1.1-3v-0.3c0-0.8,0.2-1.5,0.5-2.2
	c0.3-0.6,0.8-1.2,1.3-1.5c0.6-0.4,1.2-0.6,1.9-0.6c1-0.1,1.9,0.3,2.6,1.1c0.7,0.9,1,2,0.9,3.1v0.6H462c0,0.7,0.2,1.5,0.7,2
	c0.5,0.5,1.1,0.8,1.8,0.8c0.5,0,0.9-0.1,1.3-0.3c0.4-0.2,0.7-0.5,0.9-0.8l0.9,0.7C466.9,90.1,465.7,90.7,464.4,90.7L464.4,90.7z
	 M464.3,83.1c-0.6,0-1.1,0.2-1.5,0.6c-0.4,0.5-0.7,1.1-0.7,1.8h4.2v-0.1c0-0.6-0.2-1.2-0.6-1.7C465.3,83.3,464.8,83.1,464.3,83.1
	L464.3,83.1z M476.8,89.5c0.5,0,1-0.2,1.4-0.5c0.4-0.3,0.6-0.7,0.6-1.2h1.4c0,0.5-0.2,1-0.5,1.4c-0.3,0.4-0.7,0.8-1.2,1
	c-0.5,0.3-1.1,0.4-1.6,0.4c-1,0-2.1-0.4-2.7-1.2c-0.7-0.9-1.1-2-1-3.1v-0.2c0-0.8,0.1-1.5,0.5-2.2c0.3-0.6,0.7-1.1,1.3-1.5
	c0.6-0.4,1.3-0.5,2-0.5c0.9,0,1.7,0.3,2.4,0.9c0.6,0.6,1,1.4,1,2.2h-1.4c0-0.5-0.2-1-0.6-1.3c-0.4-0.4-0.9-0.5-1.4-0.5
	c-0.7,0-1.3,0.3-1.7,0.8c-0.4,0.7-0.7,1.5-0.6,2.3v0.3c-0.1,0.8,0.2,1.6,0.6,2.2C475.5,89.2,476.1,89.5,476.8,89.5L476.8,89.5z
	 M481.4,86.2c0-0.8,0.2-1.5,0.5-2.2c0.3-0.6,0.8-1.2,1.4-1.5c0.6-0.4,1.3-0.6,2-0.5c1.1,0,2.1,0.4,2.8,1.2c0.7,0.9,1.1,2,1.1,3.2
	v0.1c0,0.8-0.1,1.5-0.5,2.2c-0.3,0.6-0.8,1.2-1.4,1.5c-0.6,0.4-1.3,0.6-2,0.5c-1.1,0-2.1-0.4-2.8-1.2c-0.7-0.9-1.1-2-1.1-3.2
	L481.4,86.2z M482.8,86.4c0,0.8,0.2,1.6,0.7,2.3c0.7,1,2.1,1.1,3.1,0.4c0.1-0.1,0.3-0.3,0.4-0.4c0.5-0.7,0.7-1.6,0.6-2.4
	c0-0.8-0.2-1.6-0.7-2.3c-0.4-0.6-1.1-0.9-1.8-0.9c-0.7,0-1.3,0.3-1.7,0.9C483,84.6,482.8,85.5,482.8,86.4L482.8,86.4z M492.2,82
	l0,1.1c0.6-0.8,1.5-1.2,2.5-1.2c1.8,0,2.7,1,2.7,3v5.6h-1.4v-5.6c0-0.5-0.1-1-0.4-1.4c-0.3-0.3-0.8-0.5-1.3-0.4
	c-0.4,0-0.9,0.1-1.2,0.4c-0.4,0.3-0.6,0.6-0.8,1v6h-1.4V82L492.2,82z M501.7,80v2h1.6v1.1h-1.6v5.2c0,0.3,0.1,0.5,0.2,0.8
	c0.2,0.2,0.5,0.3,0.7,0.3c0.2,0,0.5,0,0.7-0.1v1.2c-0.4,0.1-0.7,0.2-1.1,0.2c-0.6,0-1.1-0.2-1.5-0.6c-0.4-0.5-0.5-1.1-0.5-1.7v-5.2
	h-1.5V82h1.5v-2H501.7z M508.4,90.7c-1.1,0-2.1-0.4-2.8-1.1c-0.7-0.8-1.1-1.9-1.1-3v-0.3c0-0.8,0.2-1.5,0.5-2.2
	c0.3-0.6,0.8-1.2,1.3-1.5c0.6-0.4,1.2-0.6,1.9-0.6c1-0.1,1.9,0.3,2.6,1.1c0.7,0.9,1,2,0.9,3.1v0.6H506c0,0.7,0.2,1.5,0.7,2
	c0.5,0.5,1.1,0.8,1.8,0.8c0.5,0,0.9-0.1,1.3-0.3c0.4-0.2,0.7-0.5,0.9-0.8l0.9,0.7C510.9,90.1,509.7,90.7,508.4,90.7z M508.3,83.1
	c-0.6,0-1.1,0.2-1.5,0.6c-0.4,0.5-0.7,1.1-0.7,1.8h4.2v-0.1c0-0.6-0.2-1.2-0.6-1.7C509.3,83.3,508.8,83.1,508.3,83.1L508.3,83.1z
	 M514.8,82l0,1.1c0.6-0.8,1.5-1.2,2.5-1.2c1.8,0,2.7,1,2.7,3v5.6h-1.4v-5.6c0-0.5-0.1-1-0.4-1.4c-0.3-0.3-0.8-0.5-1.3-0.4
	c-0.4,0-0.9,0.1-1.2,0.4c-0.4,0.3-0.6,0.6-0.8,1v6h-1.4V82H514.8z M523.8,90.5h-1.4V82h1.4L523.8,90.5z M522.2,79.8
	c0-0.2,0.1-0.4,0.2-0.6c0.2-0.2,0.4-0.3,0.6-0.2c0.2,0,0.5,0.1,0.6,0.2c0.1,0.2,0.2,0.4,0.2,0.6c0,0.2-0.1,0.4-0.2,0.6
	c-0.2,0.2-0.4,0.3-0.6,0.2c-0.2,0-0.5-0.1-0.6-0.2C522.3,80.2,522.2,80,522.2,79.8z M525.8,86.2c-0.1-1.1,0.3-2.2,0.9-3.1
	c1.1-1.4,3.1-1.6,4.4-0.5c0.1,0.1,0.2,0.2,0.4,0.3v-4.4h1.4v12h-1.3l-0.1-0.9c-0.6,0.7-1.5,1.1-2.4,1.1c-0.9,0-1.8-0.4-2.4-1.2
	c-0.7-0.9-1-2-0.9-3.1V86.2z M527.2,86.4c0,0.8,0.2,1.6,0.6,2.2c0.4,0.5,1,0.8,1.6,0.8c0.9,0,1.7-0.4,2-1.2v-3.9
	c-0.4-0.8-1.1-1.2-2-1.2c-0.7,0-1.3,0.3-1.7,0.8C527.4,84.7,527.2,85.5,527.2,86.4L527.2,86.4z M534.8,86.2c0-0.8,0.2-1.5,0.5-2.2
	c0.3-0.6,0.8-1.2,1.4-1.5c0.6-0.4,1.3-0.6,2-0.5c1.1,0,2.1,0.4,2.8,1.2c0.7,0.9,1.1,2,1.1,3.2v0.1c0,0.8-0.1,1.5-0.5,2.2
	c-0.3,0.6-0.8,1.2-1.4,1.5c-0.6,0.4-1.3,0.6-2,0.5c-1.1,0-2.1-0.4-2.8-1.2c-0.7-0.9-1.1-2-1.1-3.2L534.8,86.2z M536.2,86.4
	c0,0.8,0.2,1.6,0.7,2.3c0.7,1,2.1,1.1,3.1,0.4c0.1-0.1,0.3-0.3,0.4-0.4c0.5-0.7,0.7-1.6,0.6-2.4c0-0.8-0.2-1.6-0.7-2.3
	c-0.4-0.6-1.1-0.9-1.8-0.9c-0.7,0-1.3,0.3-1.7,0.9C536.4,84.6,536.2,85.5,536.2,86.4L536.2,86.4z"/>
<path id="Trazado_149858" class="st0" d="M23,211.5H1V533h38.1"/>
<path id="Trazado_149860" class="st0" d="M570.9,211.5h-22V640h38.1"/>
<path id="Trazado_149859" class="st0" d="M308.9,211.5h-22V426h38.1"/>
<path id="Trazado_149861" class="st0" d="M850.9,211.5h-22V426h38.1"/>
<path id="Trazado_149880" class="st1" d="M41,297.5h141c5,0,9,4,9,9v25c0,5-4,9-9,9H41c-5,0-9-4-9-9v-25C32,301.5,36,297.5,41,297.5
	z"/>
<path id="Trazado_149881" class="st3" d="M77,319.2h-4.9v4h5.7v1.2h-7.2v-11.4h7.1v1.2h-5.6v3.7H77V319.2z M82.3,319.1l1.9-3.1h1.7
	l-2.8,4.2l2.9,4.3h-1.7l-2-3.2l-2,3.2h-1.7l2.9-4.3l-2.8-4.2h1.7L82.3,319.1z M94.5,320.4c0.1,1.1-0.3,2.2-0.9,3.1
	c-0.6,0.8-1.4,1.2-2.4,1.2c-0.9,0-1.8-0.3-2.4-1v4.1h-1.4V316h1.3l0.1,0.9c0.6-0.7,1.5-1.1,2.5-1.1c0.9,0,1.8,0.4,2.4,1.1
	c0.6,0.9,1,2.1,0.9,3.2L94.5,320.4z M93.1,320.2c0-0.8-0.2-1.6-0.6-2.3c-0.4-0.5-1-0.9-1.7-0.8c-0.8,0-1.6,0.4-2,1.2v4
	c0.4,0.7,1.2,1.2,2,1.2c0.7,0,1.3-0.3,1.7-0.8C92.9,321.9,93.2,321.1,93.1,320.2z M97.9,324.5h-1.4v-12h1.4L97.9,324.5z M99.9,320.2
	c0-0.8,0.2-1.5,0.5-2.2c0.3-0.6,0.8-1.2,1.4-1.5c0.6-0.4,1.3-0.6,2-0.5c1.1,0,2.1,0.4,2.8,1.2c0.7,0.9,1.1,2,1.1,3.2v0.1
	c0,0.8-0.1,1.5-0.5,2.2c-0.3,0.6-0.8,1.2-1.4,1.5c-0.6,0.4-1.3,0.6-2,0.5c-1.1,0-2.1-0.4-2.8-1.2C100.2,322.6,99.8,321.4,99.9,320.2
	L99.9,320.2z M101.3,320.4c0,0.8,0.2,1.6,0.7,2.3c0.7,1,2.1,1.1,3.1,0.4c0.1-0.1,0.3-0.3,0.4-0.4c0.5-0.7,0.7-1.6,0.6-2.4
	c0-0.8-0.2-1.6-0.7-2.3c-0.4-0.6-1.1-0.9-1.8-0.9c-0.7,0-1.3,0.3-1.7,0.9C101.5,318.7,101.3,319.5,101.3,320.4L101.3,320.4z
	 M113.5,317.3c-0.2,0-0.5-0.1-0.7-0.1c-0.8-0.1-1.6,0.4-1.9,1.2v6h-1.4V316h1.4l0,1c0.4-0.7,1.2-1.2,2-1.1c0.2,0,0.4,0,0.6,0.1
	L113.5,317.3z M119.7,324.5c-0.1-0.3-0.2-0.6-0.2-0.9c-0.6,0.7-1.5,1.1-2.4,1c-0.7,0-1.5-0.2-2.1-0.7c-0.5-0.4-0.8-1.1-0.8-1.8
	c0-0.8,0.3-1.6,1-2.1c0.8-0.5,1.8-0.8,2.8-0.7h1.4v-0.7c0-0.4-0.1-0.9-0.5-1.2c-0.4-0.3-0.8-0.5-1.3-0.4c-0.5,0-0.9,0.1-1.3,0.4
	c-0.3,0.2-0.5,0.6-0.5,0.9h-1.4c0-0.4,0.2-0.9,0.4-1.2c0.3-0.4,0.7-0.7,1.2-0.9c0.5-0.2,1.1-0.4,1.7-0.3c0.8,0,1.6,0.2,2.3,0.7
	c0.6,0.5,0.9,1.2,0.9,2v3.9c0,0.6,0.1,1.3,0.3,1.9v0.1H119.7z M117.3,323.4c0.5,0,0.9-0.1,1.3-0.4c0.4-0.2,0.7-0.5,0.9-0.9v-1.7
	h-1.1c-1.8,0-2.7,0.5-2.7,1.6c0,0.4,0.1,0.8,0.5,1.1C116.5,323.3,116.9,323.4,117.3,323.4L117.3,323.4z M125.2,314v2h1.6v1.1h-1.6
	v5.2c0,0.3,0.1,0.5,0.2,0.8c0.2,0.2,0.5,0.3,0.7,0.3c0.2,0,0.5,0,0.7-0.1v1.2c-0.4,0.1-0.7,0.2-1.1,0.2c-0.6,0-1.1-0.2-1.5-0.6
	c-0.4-0.5-0.5-1.1-0.5-1.7v-5.2h-1.5V316h1.5v-2H125.2z M127.9,320.2c0-0.8,0.2-1.5,0.5-2.2c0.3-0.6,0.8-1.2,1.4-1.5
	c0.6-0.4,1.3-0.6,2-0.5c1.1,0,2.1,0.4,2.8,1.2c0.7,0.9,1.1,2,1.1,3.2v0.1c0,0.8-0.1,1.5-0.5,2.2c-0.3,0.6-0.8,1.2-1.4,1.5
	c-0.6,0.4-1.3,0.6-2,0.5c-1.1,0-2.1-0.4-2.8-1.2C128.2,322.6,127.8,321.4,127.9,320.2L127.9,320.2z M129.3,320.4
	c0,0.8,0.2,1.6,0.7,2.3c0.7,1,2.1,1.1,3.1,0.4c0.1-0.1,0.3-0.3,0.4-0.4c0.5-0.7,0.7-1.6,0.6-2.4c0-0.8-0.2-1.6-0.7-2.3
	c-0.4-0.6-1.1-0.9-1.8-0.9c-0.7,0-1.3,0.3-1.7,0.9C129.5,318.7,129.3,319.5,129.3,320.4L129.3,320.4z M141.5,317.3
	c-0.2,0-0.5-0.1-0.7-0.1c-0.8-0.1-1.6,0.4-1.9,1.2v6h-1.4V316h1.4l0,1c0.4-0.7,1.2-1.2,2-1.1c0.2,0,0.4,0,0.6,0.1V317.3z
	 M144.4,324.5h-1.4V316h1.4V324.5z M142.8,313.8c0-0.2,0.1-0.4,0.2-0.6c0.2-0.2,0.4-0.3,0.6-0.2c0.2,0,0.5,0.1,0.6,0.2
	c0.1,0.2,0.2,0.4,0.2,0.6c0,0.2-0.1,0.4-0.2,0.6c-0.2,0.2-0.4,0.3-0.6,0.2c-0.2,0-0.5-0.1-0.6-0.2
	C142.9,314.2,142.8,314,142.8,313.8z M146.3,320.2c0-0.8,0.2-1.5,0.5-2.2c0.3-0.6,0.8-1.2,1.4-1.5c0.6-0.4,1.3-0.6,2-0.5
	c1.1,0,2.1,0.4,2.8,1.2c0.7,0.9,1.1,2,1.1,3.2v0.1c0,0.8-0.1,1.5-0.5,2.2c-0.3,0.6-0.8,1.2-1.4,1.5c-0.6,0.4-1.3,0.6-2,0.5
	c-1.1,0-2.1-0.4-2.8-1.2C146.6,322.6,146.2,321.4,146.3,320.2L146.3,320.2z M147.8,320.4c0,0.8,0.2,1.6,0.7,2.3
	c0.7,1,2.1,1.1,3.1,0.4c0.1-0.1,0.3-0.3,0.4-0.4c0.5-0.7,0.7-1.6,0.6-2.4c0-0.8-0.2-1.6-0.7-2.3c-0.4-0.6-1.1-0.9-1.8-0.9
	c-0.7,0-1.3,0.3-1.7,0.9C147.9,318.7,147.7,319.5,147.8,320.4L147.8,320.4z"/>
<path id="Trazado_149882" class="st1" d="M41,404.5h141c5,0,9,4,9,9v25c0,5-4,9-9,9H41c-5,0-9-4-9-9v-25C32,408.5,36,404.5,41,404.5
	z"/>
<path id="Trazado_149883" class="st3" d="M73.5,431.5v-11.4h3.2c0.9,0,1.8,0.2,2.6,0.7c0.8,0.4,1.4,1.1,1.8,1.9
	c0.4,0.9,0.6,1.8,0.6,2.8v0.7c0,1-0.2,1.9-0.6,2.8c-0.4,0.8-1,1.4-1.8,1.9c-0.8,0.4-1.7,0.7-2.7,0.7H73.5z M75,421.4v8.9h1.6
	c1,0.1,2-0.3,2.7-1.1c0.7-0.9,1-2,1-3.1v-0.7c0.1-1.1-0.3-2.2-0.9-3c-0.7-0.7-1.6-1.1-2.6-1.1H75z M87.2,431.7
	c-1.1,0-2.1-0.4-2.8-1.1c-0.7-0.8-1.1-1.9-1.1-3v-0.3c0-0.8,0.2-1.5,0.5-2.2c0.3-0.6,0.8-1.2,1.3-1.5c0.6-0.4,1.2-0.6,1.9-0.6
	c1-0.1,1.9,0.3,2.6,1.1c0.7,0.9,1,2,0.9,3.1v0.6h-5.7c0,0.7,0.2,1.5,0.7,2c0.5,0.5,1.1,0.8,1.8,0.8c0.5,0,0.9-0.1,1.3-0.3
	c0.4-0.2,0.7-0.5,0.9-0.8l0.9,0.7C89.7,431.1,88.5,431.7,87.2,431.7L87.2,431.7z M87,424.1c-0.6,0-1.1,0.2-1.5,0.6
	c-0.4,0.5-0.7,1.1-0.7,1.8h4.2v-0.1c0-0.6-0.2-1.2-0.6-1.7C88.1,424.3,87.6,424.1,87,424.1L87,424.1z M97.1,429.3
	c0-0.4-0.2-0.7-0.4-0.9c-0.5-0.3-1-0.5-1.5-0.6c-0.6-0.1-1.2-0.3-1.7-0.6c-0.4-0.2-0.7-0.4-1-0.8c-0.2-0.3-0.3-0.7-0.3-1.1
	c0-0.7,0.3-1.3,0.9-1.8c0.6-0.5,1.4-0.8,2.2-0.7c0.8,0,1.7,0.2,2.3,0.7c0.6,0.5,0.9,1.2,0.9,1.9H97c0-0.4-0.2-0.8-0.5-1
	c-0.4-0.3-0.8-0.4-1.3-0.4c-0.4,0-0.9,0.1-1.2,0.3c-0.3,0.2-0.5,0.5-0.4,0.9c0,0.3,0.1,0.6,0.4,0.8c0.5,0.2,1,0.4,1.5,0.5
	c0.6,0.1,1.2,0.3,1.8,0.6c0.4,0.2,0.7,0.5,1,0.8c0.2,0.3,0.3,0.7,0.3,1.2c0,0.7-0.3,1.4-0.9,1.8c-0.7,0.5-1.5,0.7-2.4,0.7
	c-0.6,0-1.2-0.1-1.8-0.4c-0.5-0.2-0.9-0.6-1.2-1c-0.3-0.4-0.4-0.9-0.4-1.4h1.4c0,0.5,0.2,0.9,0.6,1.2c0.4,0.3,0.9,0.5,1.4,0.4
	c0.5,0,0.9-0.1,1.3-0.3C96.9,430,97.1,429.6,97.1,429.3L97.1,429.3z M103.8,430.5c0.5,0,1-0.2,1.4-0.5c0.4-0.3,0.6-0.7,0.6-1.2h1.4
	c0,0.5-0.2,1-0.5,1.4c-0.3,0.4-0.7,0.8-1.2,1c-0.5,0.3-1.1,0.4-1.6,0.4c-1,0-2.1-0.4-2.8-1.2c-0.7-0.9-1.1-2-1-3.2v-0.2
	c0-0.8,0.1-1.5,0.5-2.2c0.3-0.6,0.7-1.1,1.3-1.5c0.6-0.4,1.3-0.5,2-0.5c0.9,0,1.7,0.3,2.4,0.9c0.6,0.6,1,1.4,1,2.2h-1.4
	c0-0.5-0.2-1-0.6-1.3c-0.4-0.4-0.9-0.5-1.4-0.5c-0.7,0-1.3,0.3-1.7,0.8c-0.4,0.7-0.7,1.5-0.6,2.3v0.3c-0.1,0.8,0.2,1.6,0.6,2.2
	C102.5,430.2,103.2,430.5,103.8,430.5L103.8,430.5z M112.9,424.3c-0.2,0-0.5-0.1-0.7-0.1c-0.8-0.1-1.6,0.4-1.9,1.2v6h-1.4V423h1.4
	l0,1c0.4-0.7,1.2-1.2,2-1.1c0.2,0,0.4,0,0.6,0.1L112.9,424.3z M115.8,431.5h-1.4V423h1.4V431.5z M114.2,420.8c0-0.2,0.1-0.4,0.2-0.6
	c0.2-0.2,0.4-0.3,0.6-0.2c0.2,0,0.5,0.1,0.6,0.2c0.1,0.2,0.2,0.4,0.2,0.6c0,0.2-0.1,0.4-0.2,0.6c-0.2,0.2-0.4,0.3-0.6,0.2
	c-0.2,0-0.5-0.1-0.6-0.2C114.3,421.2,114.2,421,114.2,420.8z M125.3,427.4c0.1,1.1-0.3,2.2-0.9,3.1c-0.6,0.8-1.4,1.2-2.4,1.2
	c-0.9,0-1.8-0.3-2.4-1v4.1h-1.4V423h1.3l0.1,0.9c0.6-0.7,1.5-1.1,2.5-1.1c0.9,0,1.8,0.4,2.4,1.1c0.6,0.9,1,2.1,0.9,3.2L125.3,427.4z
	 M123.8,427.2c0-0.8-0.2-1.6-0.6-2.3c-0.4-0.5-1-0.9-1.7-0.8c-0.8,0-1.6,0.4-2,1.2v4c0.4,0.7,1.2,1.2,2,1.2c0.7,0,1.3-0.3,1.7-0.8
	C123.7,428.9,123.9,428.1,123.8,427.2z M129.1,421v2h1.6v1.1h-1.6v5.2c0,0.3,0.1,0.5,0.2,0.8c0.2,0.2,0.5,0.3,0.7,0.3
	c0.2,0,0.5,0,0.7-0.1v1.2c-0.4,0.1-0.7,0.2-1.1,0.2c-0.6,0-1.1-0.2-1.5-0.6c-0.4-0.5-0.5-1.1-0.5-1.7v-5.2h-1.5V423h1.5v-2H129.1z
	 M133.9,431.5h-1.4V423h1.4L133.9,431.5z M132.3,420.8c0-0.2,0.1-0.4,0.2-0.6c0.2-0.2,0.4-0.3,0.6-0.2c0.2,0,0.5,0.1,0.6,0.2
	c0.1,0.2,0.2,0.4,0.2,0.6c0,0.2-0.1,0.4-0.2,0.6c-0.2,0.2-0.4,0.3-0.6,0.2c-0.2,0-0.5-0.1-0.6-0.2
	C132.4,421.2,132.3,421,132.3,420.8z M139,429.5l2.1-6.5h1.5l-3,8.5h-1.1l-3.1-8.5h1.5L139,429.5z M143.5,427.2
	c0-0.8,0.2-1.5,0.5-2.2c0.3-0.6,0.8-1.2,1.4-1.5c0.6-0.4,1.3-0.6,2-0.5c1.1,0,2.1,0.4,2.8,1.2c0.7,0.9,1.1,2,1.1,3.2v0.1
	c0,0.8-0.1,1.5-0.5,2.2c-0.3,0.6-0.8,1.2-1.4,1.5c-0.6,0.4-1.3,0.6-2,0.5c-1.1,0-2.1-0.4-2.8-1.2
	C143.8,429.6,143.4,428.4,143.5,427.2L143.5,427.2z M144.9,427.4c0,0.8,0.2,1.6,0.7,2.3c0.7,1,2.1,1.1,3.1,0.4
	c0.1-0.1,0.3-0.3,0.4-0.4c0.5-0.7,0.7-1.6,0.6-2.4c0-0.8-0.2-1.6-0.7-2.3c-0.4-0.6-1.1-0.9-1.8-0.9c-0.7,0-1.3,0.3-1.7,0.9
	C145.1,425.7,144.9,426.5,144.9,427.4L144.9,427.4z"/>
<path id="Trazado_149884" class="st1" d="M41,511.5h141c5,0,9,4,9,9v25c0,5-4,9-9,9H41c-5,0-9-4-9-9v-25C32,515.5,36,511.5,41,511.5
	z"/>
<path id="Trazado_149885" class="st3" d="M77.4,536.5l3.2-9.4h1.6l-4.2,11.4h-1.3l-4.2-11.4h1.6L77.4,536.5z M86.7,538.7
	c-1.1,0-2.1-0.4-2.8-1.1c-0.7-0.8-1.1-1.9-1.1-3v-0.3c0-0.8,0.2-1.5,0.5-2.2c0.3-0.6,0.8-1.2,1.3-1.5c0.6-0.4,1.2-0.6,1.9-0.6
	c1-0.1,1.9,0.3,2.6,1.1c0.7,0.9,1,2,0.9,3.1v0.6h-5.7c0,0.7,0.2,1.5,0.7,2c0.5,0.5,1.1,0.8,1.8,0.8c0.5,0,0.9-0.1,1.3-0.3
	c0.4-0.2,0.7-0.5,0.9-0.8l0.9,0.7C89.2,538.1,88,538.7,86.7,538.7L86.7,538.7z M86.6,531.1c-0.6,0-1.1,0.2-1.5,0.6
	c-0.4,0.5-0.7,1.1-0.7,1.8h4.2v-0.1c0-0.6-0.2-1.2-0.6-1.7C87.6,531.3,87.1,531.1,86.6,531.1z M95.8,531.3c-0.2,0-0.5-0.1-0.7-0.1
	c-0.8-0.1-1.6,0.4-1.9,1.2v6h-1.4V530h1.4l0,1c0.4-0.7,1.2-1.2,2-1.1c0.2,0,0.4,0,0.6,0.1L95.8,531.3z M98.7,538.5h-1.4V530h1.4
	L98.7,538.5z M97.1,527.8c0-0.2,0.1-0.4,0.2-0.6c0.2-0.2,0.4-0.3,0.6-0.2c0.2,0,0.5,0.1,0.6,0.2c0.1,0.2,0.2,0.4,0.2,0.6
	c0,0.2-0.1,0.4-0.2,0.6c-0.2,0.2-0.4,0.3-0.6,0.2c-0.2,0-0.5-0.1-0.6-0.2C97.2,528.2,97.1,528,97.1,527.8z M101.5,538.5v-7.3h-1.3
	V530h1.3v-0.7c0-0.8,0.2-1.6,0.8-2.2c0.6-0.6,1.4-0.8,2.3-0.8c0.8,0,1.5,0.2,2.2,0.5l-0.2,1.2c-0.6-0.2-1.2-0.4-1.9-0.4
	c-0.5,0-1,0.1-1.3,0.4c-0.3,0.3-0.4,0.8-0.4,1.3v0.7h1.7v1.1h-1.7v7.3H101.5z M107.5,538.5h-1.4V530h1.4V538.5z M113.2,537.5
	c0.5,0,1-0.2,1.4-0.5c0.4-0.3,0.6-0.7,0.6-1.2h1.4c0,0.5-0.2,1-0.5,1.4c-0.3,0.4-0.7,0.8-1.2,1c-0.5,0.3-1.1,0.4-1.6,0.4
	c-1,0-2-0.4-2.7-1.2c-0.7-0.9-1.1-2-1-3.2v-0.2c0-0.8,0.1-1.5,0.5-2.2c0.3-0.6,0.7-1.1,1.3-1.5c0.6-0.4,1.3-0.5,2-0.5
	c0.9,0,1.7,0.3,2.4,0.9c0.6,0.6,1,1.4,1,2.2h-1.4c0-0.5-0.2-1-0.6-1.3c-0.4-0.4-0.9-0.5-1.4-0.5c-0.7,0-1.3,0.3-1.7,0.8
	c-0.4,0.7-0.7,1.5-0.6,2.3v0.3c-0.1,0.8,0.2,1.6,0.6,2.2C111.9,537.2,112.6,537.5,113.2,537.5L113.2,537.5z M123.4,538.5
	c-0.1-0.3-0.2-0.6-0.2-0.9c-0.6,0.7-1.5,1.1-2.4,1c-0.7,0-1.5-0.2-2.1-0.7c-0.5-0.4-0.8-1.1-0.8-1.8c0-0.8,0.3-1.6,1-2.1
	c0.8-0.5,1.8-0.8,2.8-0.7h1.4v-0.7c0-0.4-0.1-0.9-0.5-1.2c-0.4-0.3-0.8-0.5-1.3-0.4c-0.5,0-0.9,0.1-1.3,0.4
	c-0.3,0.2-0.5,0.6-0.5,0.9h-1.5c0-0.4,0.2-0.9,0.4-1.2c0.3-0.4,0.7-0.7,1.2-0.9c0.5-0.2,1.1-0.4,1.7-0.3c0.8,0,1.6,0.2,2.3,0.7
	c0.6,0.5,0.9,1.2,0.9,2v3.9c0,0.6,0.1,1.3,0.3,1.9v0.1H123.4z M121,537.4c0.5,0,0.9-0.1,1.3-0.4c0.4-0.2,0.7-0.5,0.9-0.9v-1.7h-1.1
	c-1.8,0-2.7,0.5-2.7,1.6c0,0.4,0.1,0.8,0.5,1.1C120.2,537.3,120.6,537.4,121,537.4L121,537.4z M128.9,528v2h1.6v1.1h-1.6v5.2
	c0,0.3,0.1,0.5,0.2,0.8c0.2,0.2,0.5,0.3,0.7,0.3c0.2,0,0.5,0,0.7-0.1v1.2c-0.4,0.1-0.7,0.2-1.1,0.2c-0.6,0-1.1-0.2-1.5-0.6
	c-0.4-0.5-0.5-1.1-0.5-1.7v-5.2h-1.5V530h1.5v-2H128.9z M133.7,538.5h-1.4V530h1.4V538.5z M132.2,527.8c0-0.2,0.1-0.4,0.2-0.6
	c0.2-0.2,0.4-0.3,0.6-0.2c0.2,0,0.5,0.1,0.6,0.2c0.1,0.2,0.2,0.4,0.2,0.6c0,0.2-0.1,0.4-0.2,0.6c-0.2,0.2-0.4,0.3-0.6,0.2
	c-0.2,0-0.5-0.1-0.6-0.2C132.2,528.2,132.2,528,132.2,527.8z M138.8,536.5l2.1-6.5h1.5l-3,8.5h-1.1l-3.1-8.5h1.5L138.8,536.5z
	 M143.3,534.2c0-0.8,0.2-1.5,0.5-2.2c0.3-0.6,0.8-1.2,1.4-1.5c0.6-0.4,1.3-0.6,2-0.5c1.1,0,2.1,0.4,2.8,1.2c0.7,0.9,1.1,2,1.1,3.2
	v0.1c0,0.8-0.1,1.5-0.5,2.2c-0.3,0.6-0.8,1.2-1.4,1.5c-0.6,0.4-1.3,0.6-2,0.5c-1.1,0-2.1-0.4-2.8-1.2
	C143.6,536.6,143.2,535.4,143.3,534.2L143.3,534.2z M144.7,534.4c0,0.8,0.2,1.6,0.7,2.3c0.7,1,2.1,1.1,3.1,0.4
	c0.1-0.1,0.3-0.3,0.4-0.4c0.5-0.7,0.7-1.6,0.6-2.4c0-0.8-0.2-1.6-0.7-2.3c-0.4-0.6-1.1-0.9-1.8-0.9c-0.7,0-1.3,0.3-1.7,0.8
	C144.9,532.6,144.7,533.5,144.7,534.4L144.7,534.4z"/>
<path id="Trazado_149886" class="st1" d="M315,180h141c5,0,9,4,9,9v45c0,5-4,9-9,9H315c-5,0-9-4-9-9v-45C306,184,310,180,315,180z"
	/>
<path id="Trazado_149887" class="st3" d="M338.6,199.9c-1-0.2-2-0.7-2.8-1.4c-0.6-0.5-0.9-1.2-0.9-2c0-0.9,0.4-1.7,1.1-2.2
	c0.8-0.6,1.8-0.9,2.8-0.9c0.7,0,1.4,0.1,2.1,0.5c0.6,0.3,1.1,0.7,1.4,1.2c0.3,0.5,0.5,1.1,0.5,1.7h-1.5c0-0.6-0.2-1.2-0.7-1.6
	c-0.5-0.4-1.2-0.6-1.9-0.6c-0.6,0-1.2,0.1-1.7,0.5c-0.4,0.3-0.6,0.8-0.6,1.4c0,0.5,0.2,0.9,0.6,1.2c0.6,0.4,1.3,0.7,2,0.9
	c0.8,0.2,1.5,0.5,2.2,0.9c0.5,0.3,0.9,0.7,1.2,1.1c0.3,0.5,0.4,1,0.4,1.5c0,0.9-0.4,1.7-1.1,2.2c-0.8,0.6-1.9,0.9-2.9,0.8
	c-0.8,0-1.5-0.1-2.2-0.4c-0.6-0.3-1.2-0.7-1.6-1.2c-0.4-0.5-0.6-1.1-0.6-1.8h1.5c0,0.6,0.3,1.2,0.8,1.6c0.6,0.4,1.3,0.6,2,0.6
	c0.6,0,1.3-0.1,1.8-0.5c0.4-0.3,0.7-0.8,0.6-1.3c0-0.5-0.2-1-0.6-1.3C340.1,200.4,339.3,200.1,338.6,199.9z M348,205.2
	c-1.1,0-2.1-0.4-2.8-1.1c-0.7-0.8-1.1-1.9-1.1-3v-0.3c0-0.8,0.2-1.5,0.5-2.2c0.3-0.6,0.8-1.2,1.3-1.5c0.6-0.4,1.2-0.6,1.9-0.6
	c1-0.1,1.9,0.3,2.6,1.1c0.7,0.9,1,2,0.9,3.1v0.6h-5.7c0,0.7,0.2,1.5,0.7,2c0.5,0.5,1.1,0.8,1.8,0.8c0.5,0,0.9-0.1,1.3-0.3
	c0.4-0.2,0.7-0.5,0.9-0.8l0.9,0.7C350.5,204.6,349.3,205.2,348,205.2z M347.8,197.6c-0.6,0-1.1,0.2-1.5,0.6
	c-0.4,0.5-0.7,1.1-0.7,1.8h4.2v-0.1c0-0.6-0.2-1.2-0.6-1.7C348.9,197.8,348.4,197.6,347.8,197.6z M352.6,200.7
	c-0.1-1.1,0.3-2.2,0.9-3.1c1.1-1.4,3.1-1.6,4.4-0.5c0.1,0.1,0.3,0.2,0.4,0.4l0.1-0.9h1.3v8.3c0.1,1-0.3,1.9-1,2.6
	c-0.7,0.7-1.7,1-2.6,0.9c-0.6,0-1.2-0.1-1.8-0.4c-0.5-0.2-1-0.6-1.3-1.1l0.8-0.9c0.5,0.7,1.4,1.1,2.3,1.1c0.6,0,1.2-0.2,1.6-0.6
	c0.4-0.5,0.6-1.1,0.6-1.7v-0.7c-0.6,0.7-1.5,1-2.4,1c-0.9,0-1.8-0.4-2.4-1.2C352.9,203,352.6,201.9,352.6,200.7L352.6,200.7z
	 M354.1,200.9c0,0.8,0.2,1.6,0.6,2.2c0.4,0.5,1,0.8,1.6,0.8c0.9,0,1.7-0.5,2-1.2v-3.9c-0.4-0.8-1.1-1.2-2-1.2
	c-0.7,0-1.3,0.3-1.6,0.8C354.2,199.2,354,200,354.1,200.9L354.1,200.9z M367.2,204.2c-0.6,0.7-1.5,1.1-2.5,1
	c-0.8,0.1-1.5-0.2-2.1-0.8c-0.5-0.7-0.8-1.5-0.7-2.3v-5.5h1.4v5.5c0,1.3,0.5,1.9,1.6,1.9c0.9,0.1,1.8-0.4,2.2-1.2v-6.2h1.5v8.5h-1.4
	L367.2,204.2z M366,193h1.8l-2.1,2.3h-1.2L366,193z M372.1,196.5l0,1.1c0.6-0.8,1.5-1.2,2.5-1.2c1.8,0,2.7,1,2.7,3v5.6H376v-5.6
	c0-0.5-0.1-1-0.4-1.4c-0.3-0.3-0.8-0.5-1.3-0.4c-0.4,0-0.9,0.1-1.2,0.4c-0.4,0.3-0.6,0.6-0.8,1v6h-1.4v-8.5H372.1z M384.3,205v-7.3
	h-1.3v-1.1h1.3v-0.9c0-0.8,0.2-1.5,0.7-2.1c0.6-0.5,1.3-0.8,2.1-0.7c0.3,0,0.7,0,1,0.1l-0.1,1.2c-0.3,0-0.5-0.1-0.8-0.1
	c-0.4,0-0.8,0.1-1.1,0.4c-0.3,0.3-0.4,0.8-0.4,1.2v0.9h1.8v1.1h-1.8v7.3H384.3z M394.3,204.2c-0.6,0.7-1.5,1.1-2.5,1
	c-0.8,0.1-1.5-0.2-2.1-0.8c-0.5-0.7-0.8-1.5-0.7-2.3v-5.5h1.4v5.5c0,1.3,0.5,1.9,1.6,1.9c0.9,0.1,1.8-0.4,2.2-1.2v-6.1h1.4v8.5h-1.4
	L394.3,204.2z M401.4,205.2c-1.1,0-2.1-0.4-2.8-1.1c-0.7-0.8-1.1-1.9-1.1-3v-0.3c0-0.8,0.2-1.5,0.5-2.2c0.3-0.6,0.8-1.2,1.3-1.5
	c0.6-0.4,1.2-0.6,1.9-0.6c1-0.1,1.9,0.3,2.6,1.1c0.7,0.9,1,2,0.9,3.1v0.6H399c0,0.7,0.2,1.5,0.7,2c0.5,0.5,1.1,0.8,1.8,0.8
	c0.5,0,0.9-0.1,1.3-0.3c0.4-0.2,0.7-0.5,0.9-0.8l0.9,0.7C403.9,204.6,402.7,205.2,401.4,205.2z M401.3,197.6c-0.6,0-1.1,0.2-1.5,0.6
	c-0.4,0.5-0.7,1.1-0.7,1.8h4.2v-0.1c0-0.6-0.2-1.2-0.6-1.7C402.3,197.8,401.8,197.6,401.3,197.6z M407.8,196.5l0,1.1
	c0.6-0.8,1.5-1.2,2.5-1.2c1.8,0,2.7,1,2.7,3v5.6h-1.4v-5.6c0-0.5-0.1-1-0.4-1.4c-0.3-0.3-0.8-0.5-1.3-0.4c-0.4,0-0.9,0.1-1.2,0.4
	c-0.4,0.3-0.6,0.6-0.8,1v6h-1.4v-8.5H407.8z M417.2,194.5v2h1.6v1.1h-1.6v5.2c0,0.3,0.1,0.5,0.2,0.8c0.2,0.2,0.5,0.3,0.7,0.3
	c0.2,0,0.5,0,0.7-0.1v1.2c-0.4,0.1-0.7,0.2-1.1,0.2c-0.6,0-1.1-0.2-1.5-0.6c-0.4-0.5-0.5-1.1-0.5-1.7v-5.2h-1.5v-1.1h1.5v-2H417.2z
	 M424,205.2c-1.1,0-2.1-0.4-2.8-1.1c-0.7-0.8-1.1-1.9-1.1-3v-0.3c0-0.8,0.2-1.5,0.5-2.2c0.3-0.6,0.8-1.2,1.3-1.5
	c0.6-0.4,1.2-0.6,1.9-0.6c1-0.1,1.9,0.3,2.6,1.1c0.7,0.9,1,2,0.9,3.1v0.6h-5.7c0,0.7,0.2,1.5,0.7,2c0.5,0.5,1.1,0.8,1.8,0.8
	c0.5,0,0.9-0.1,1.3-0.3c0.4-0.2,0.7-0.5,0.9-0.8l0.9,0.7C426.5,204.6,425.2,205.2,424,205.2L424,205.2z M423.8,197.6
	c-0.6,0-1.1,0.2-1.5,0.6c-0.4,0.5-0.7,1.1-0.7,1.8h4.2v-0.1c0-0.6-0.2-1.2-0.6-1.7C424.9,197.8,424.3,197.6,423.8,197.6L423.8,197.6
	z M433.9,202.8c0-0.4-0.2-0.7-0.4-0.9c-0.5-0.3-1-0.5-1.5-0.6c-0.6-0.1-1.2-0.3-1.7-0.6c-0.4-0.2-0.7-0.4-1-0.8
	c-0.2-0.3-0.3-0.7-0.3-1.1c0-0.7,0.3-1.3,0.9-1.8c0.6-0.5,1.4-0.8,2.2-0.7c0.8,0,1.7,0.2,2.3,0.7c0.6,0.5,0.9,1.2,0.9,1.9h-1.5
	c0-0.4-0.2-0.8-0.5-1c-0.4-0.3-0.8-0.4-1.3-0.4c-0.4,0-0.9,0.1-1.2,0.3c-0.3,0.2-0.5,0.5-0.4,0.9c0,0.3,0.1,0.6,0.4,0.8
	c0.5,0.2,1,0.4,1.5,0.5c0.6,0.1,1.2,0.3,1.8,0.6c0.4,0.2,0.7,0.5,1,0.8c0.2,0.3,0.3,0.7,0.3,1.2c0,0.7-0.3,1.4-0.9,1.8
	c-0.7,0.5-1.5,0.7-2.4,0.7c-0.6,0-1.2-0.1-1.8-0.4c-0.5-0.2-0.9-0.6-1.2-1c-0.3-0.4-0.4-0.9-0.4-1.4h1.4c0,0.5,0.2,0.9,0.6,1.2
	c0.4,0.3,0.9,0.5,1.4,0.4c0.5,0,0.9-0.1,1.3-0.3C433.7,203.5,433.9,203.1,433.9,202.8L433.9,202.8z M343.9,224.7
	c-0.1-1.1,0.3-2.2,0.9-3.1c1.1-1.4,3.1-1.6,4.4-0.5c0.1,0.1,0.2,0.2,0.4,0.3V217h1.4v12h-1.3l-0.1-0.9c-0.6,0.7-1.5,1.1-2.4,1.1
	c-0.9,0-1.8-0.4-2.4-1.2c-0.7-0.9-1-2-0.9-3.1V224.7z M345.4,224.9c0,0.8,0.2,1.6,0.6,2.2c0.4,0.5,1,0.8,1.6,0.8
	c0.9,0,1.6-0.4,2-1.2v-3.9c-0.4-0.8-1.1-1.2-2-1.2c-0.7,0-1.3,0.3-1.7,0.8C345.5,223.2,345.3,224,345.4,224.9L345.4,224.9z
	 M356.8,229.2c-1.1,0-2.1-0.4-2.8-1.1c-0.7-0.8-1.1-1.9-1.1-3v-0.3c0-0.8,0.1-1.5,0.5-2.2c0.3-0.6,0.8-1.2,1.3-1.5
	c0.6-0.4,1.2-0.6,1.9-0.6c1-0.1,1.9,0.3,2.6,1.1c0.7,0.9,1,2,0.9,3.1v0.6h-5.7c0,0.7,0.2,1.5,0.7,2c0.5,0.5,1.1,0.8,1.8,0.8
	c0.5,0,0.9-0.1,1.3-0.3c0.4-0.2,0.7-0.5,0.9-0.8l0.9,0.7C359.3,228.6,358.1,229.2,356.8,229.2z M356.6,221.6c-0.6,0-1.1,0.2-1.5,0.6
	c-0.4,0.5-0.7,1.1-0.7,1.8h4.2v-0.1c0-0.6-0.2-1.2-0.6-1.7C357.7,221.8,357.2,221.6,356.6,221.6L356.6,221.6z M363.3,229h-1.4v-12
	h1.4V229z M371,220.5l0,0.9c0.6-0.7,1.5-1.1,2.5-1.1c1-0.1,2,0.4,2.4,1.4c0.3-0.4,0.7-0.7,1.1-1c0.5-0.3,1-0.4,1.6-0.4
	c1.9,0,2.8,1,2.8,2.9v5.7H380v-5.6c0-0.5-0.1-1-0.4-1.4c-0.4-0.3-0.9-0.5-1.4-0.4c-0.5,0-1,0.2-1.3,0.5c-0.4,0.3-0.6,0.8-0.6,1.3
	v5.6h-1.5v-5.5c0.1-0.9-0.5-1.7-1.4-1.8c-0.1,0-0.3,0-0.4,0c-0.8-0.1-1.6,0.4-1.9,1.2v6.2h-1.5v-8.5H371z M388.9,229
	c-0.1-0.3-0.2-0.6-0.2-0.9c-0.6,0.7-1.5,1.1-2.4,1c-0.7,0-1.5-0.2-2.1-0.7c-0.5-0.4-0.8-1.1-0.8-1.8c0-0.8,0.3-1.6,1-2.1
	c0.8-0.5,1.8-0.8,2.8-0.7h1.4v-0.7c0-0.4-0.1-0.9-0.5-1.2c-0.4-0.3-0.8-0.5-1.3-0.4c-0.5,0-0.9,0.1-1.3,0.4
	c-0.3,0.2-0.5,0.6-0.5,0.9h-1.5c0-0.4,0.2-0.9,0.4-1.2c0.3-0.4,0.7-0.7,1.2-0.9c0.5-0.2,1.1-0.4,1.7-0.3c0.8,0,1.6,0.2,2.3,0.7
	c0.6,0.5,0.9,1.2,0.9,2v3.9c0,0.6,0.1,1.3,0.3,1.9v0.1H388.9z M386.5,227.9c0.5,0,0.9-0.1,1.3-0.4c0.4-0.2,0.7-0.5,0.9-0.9v-1.7
	h-1.1c-1.8,0-2.7,0.5-2.7,1.6c0,0.4,0.1,0.8,0.5,1.1C385.6,227.8,386,227.9,386.5,227.9L386.5,227.9z M394.3,218.5v2h1.6v1.1h-1.6
	v5.2c0,0.3,0.1,0.5,0.2,0.8c0.2,0.2,0.5,0.3,0.7,0.3c0.2,0,0.5,0,0.7-0.1v1.2c-0.4,0.1-0.7,0.2-1.1,0.2c-0.6,0-1.1-0.2-1.5-0.6
	c-0.4-0.5-0.5-1.1-0.5-1.7v-5.2h-1.5v-1.1h1.5v-2H394.3z M401.1,229.2c-1.1,0-2.1-0.4-2.8-1.1c-0.7-0.8-1.1-1.9-1.1-3v-0.3
	c0-0.8,0.2-1.5,0.5-2.2c0.3-0.6,0.8-1.2,1.3-1.5c0.6-0.4,1.2-0.6,1.9-0.6c1-0.1,1.9,0.3,2.6,1.1c0.7,0.9,1,2,0.9,3.1v0.6h-5.7
	c0,0.7,0.2,1.5,0.7,2c0.5,0.5,1.1,0.8,1.8,0.8c0.5,0,0.9-0.1,1.3-0.3c0.4-0.2,0.7-0.5,0.9-0.8l0.9,0.7
	C403.6,228.6,402.4,229.2,401.1,229.2z M400.9,221.6c-0.6,0-1.1,0.2-1.5,0.6c-0.4,0.5-0.7,1.1-0.7,1.8h4.2v-0.1
	c0-0.6-0.2-1.2-0.6-1.7C402,221.8,401.4,221.6,400.9,221.6L400.9,221.6z M410.1,221.8c-0.2,0-0.5-0.1-0.7-0.1
	c-0.8-0.1-1.6,0.4-1.9,1.2v6H406v-8.5h1.4l0,1c0.4-0.7,1.2-1.2,2-1.1c0.2,0,0.4,0,0.6,0.1L410.1,221.8z M413,229h-1.4v-8.5h1.4V229z
	 M411.5,218.3c0-0.2,0.1-0.4,0.2-0.6c0.2-0.2,0.4-0.3,0.6-0.2c0.2,0,0.5,0.1,0.6,0.2c0.1,0.2,0.2,0.4,0.2,0.6c0,0.2-0.1,0.4-0.2,0.6
	c-0.2,0.2-0.4,0.3-0.6,0.2c-0.2,0-0.5-0.1-0.6-0.2C411.5,218.7,411.5,218.5,411.5,218.3z M420.6,229c-0.1-0.3-0.2-0.6-0.2-0.9
	c-0.6,0.7-1.5,1.1-2.4,1c-0.7,0-1.5-0.2-2.1-0.7c-0.5-0.4-0.8-1.1-0.8-1.8c0-0.8,0.3-1.6,1-2.1c0.8-0.5,1.8-0.8,2.8-0.7h1.4v-0.7
	c0-0.4-0.1-0.9-0.5-1.2c-0.4-0.3-0.8-0.5-1.3-0.4c-0.5,0-0.9,0.1-1.3,0.4c-0.3,0.2-0.5,0.6-0.5,0.9h-1.5c0-0.4,0.2-0.9,0.4-1.2
	c0.3-0.4,0.7-0.7,1.2-0.9c0.5-0.2,1.1-0.4,1.7-0.3c0.8,0,1.6,0.2,2.3,0.7c0.6,0.5,0.9,1.2,0.9,2v3.9c0,0.6,0.1,1.3,0.3,1.9v0.1
	H420.6z M418.2,227.9c0.5,0,0.9-0.1,1.3-0.4c0.4-0.2,0.7-0.5,0.9-0.9v-1.7h-1.1c-1.8,0-2.7,0.5-2.7,1.6c0,0.4,0.1,0.8,0.5,1.1
	C417.3,227.8,417.7,227.9,418.2,227.9L418.2,227.9z M425.6,229h-1.4v-12h1.4V229z"/>
<path id="Trazado_149888" class="st1" d="M869,297.5h141c5,0,9,4,9,9v25c0,5-4,9-9,9H869c-5,0-9-4-9-9v-25
	C860,301.5,864,297.5,869,297.5z"/>
<path id="Trazado_149889" class="st3" d="M902.7,320.9c-0.1,1.1-0.5,2.1-1.3,2.8c-0.8,0.7-1.9,1-3,1c-1.2,0-2.4-0.5-3.2-1.4
	c-0.9-1.1-1.3-2.5-1.2-3.9v-1.1c0-1,0.2-1.9,0.6-2.8c0.3-0.8,0.9-1.4,1.6-1.8c0.7-0.4,1.6-0.7,2.4-0.6c1.1-0.1,2.1,0.3,2.9,1
	c0.8,0.7,1.2,1.7,1.3,2.8h-1.5c-0.1-0.7-0.4-1.4-0.8-2c-0.5-0.4-1.2-0.6-1.8-0.6c-0.9,0-1.7,0.4-2.3,1.1c-0.6,0.9-0.9,2-0.8,3v1.1
	c-0.1,1,0.2,2.1,0.8,2.9c0.5,0.7,1.3,1.1,2.2,1.1c0.7,0,1.4-0.2,1.9-0.6c0.5-0.5,0.8-1.2,0.9-2L902.7,320.9z M909.8,323.7
	c-0.6,0.7-1.5,1.1-2.5,1c-0.8,0.1-1.5-0.2-2.1-0.8c-0.5-0.7-0.8-1.5-0.7-2.3V316h1.4v5.5c0,1.3,0.5,1.9,1.6,1.9
	c0.9,0.1,1.8-0.4,2.2-1.2V316h1.4v8.5h-1.4L909.8,323.7z M918.6,324.5c-0.1-0.3-0.2-0.6-0.2-0.9c-0.6,0.7-1.5,1.1-2.4,1
	c-0.7,0-1.5-0.2-2.1-0.7c-0.5-0.4-0.8-1.1-0.8-1.8c0-0.8,0.3-1.6,1-2.1c0.8-0.5,1.8-0.8,2.8-0.7h1.4v-0.7c0-0.4-0.1-0.9-0.5-1.2
	c-0.4-0.3-0.8-0.5-1.3-0.4c-0.5,0-0.9,0.1-1.3,0.4c-0.3,0.2-0.5,0.6-0.5,0.9h-1.4c0-0.4,0.2-0.9,0.4-1.2c0.3-0.4,0.7-0.7,1.2-0.9
	c0.5-0.2,1.1-0.4,1.7-0.3c0.8,0,1.6,0.2,2.3,0.7c0.6,0.5,0.9,1.3,0.9,2v3.9c0,0.6,0.1,1.3,0.3,1.9v0.1H918.6z M916.2,323.4
	c0.5,0,0.9-0.1,1.3-0.4c0.4-0.2,0.7-0.5,0.9-0.9v-1.7h-1.1c-1.8,0-2.7,0.5-2.7,1.6c0,0.4,0.1,0.8,0.5,1.1
	C915.4,323.3,915.8,323.4,916.2,323.4L916.2,323.4z M923.4,316l0,1.1c0.6-0.8,1.5-1.2,2.5-1.2c1.8,0,2.7,1,2.7,3v5.6h-1.4v-5.6
	c0-0.5-0.1-1-0.4-1.4c-0.3-0.3-0.8-0.5-1.3-0.4c-0.4,0-0.9,0.1-1.2,0.4c-0.4,0.3-0.6,0.6-0.8,1v6h-1.4V316L923.4,316z M932.9,314v2
	h1.6v1.1h-1.6v5.2c0,0.3,0.1,0.5,0.2,0.8c0.2,0.2,0.5,0.3,0.7,0.3c0.2,0,0.5,0,0.7-0.1v1.2c-0.4,0.1-0.7,0.2-1.1,0.2
	c-0.6,0-1.1-0.2-1.5-0.6c-0.4-0.5-0.5-1.1-0.5-1.7v-5.2h-1.5V316h1.5v-2H932.9z M937.7,324.5h-1.5V316h1.5V324.5z M936.1,313.8
	c0-0.2,0.1-0.4,0.2-0.6c0.2-0.2,0.4-0.3,0.6-0.2c0.2,0,0.5,0.1,0.6,0.2c0.1,0.2,0.2,0.4,0.2,0.6c0,0.2-0.1,0.4-0.2,0.6
	c-0.2,0.2-0.4,0.3-0.6,0.2c-0.2,0-0.5-0.1-0.6-0.2C936.2,314.2,936.1,314,936.1,313.8z M942,314v2h1.6v1.1H942v5.2
	c0,0.3,0.1,0.5,0.2,0.8c0.2,0.2,0.5,0.3,0.7,0.3c0.2,0,0.5,0,0.7-0.1v1.2c-0.4,0.1-0.7,0.2-1.1,0.2c-0.6,0-1.1-0.2-1.5-0.6
	c-0.4-0.5-0.5-1.1-0.5-1.7v-5.2H939V316h1.5v-2H942z M950.5,324.5c-0.1-0.3-0.2-0.6-0.2-0.9c-0.6,0.7-1.5,1.1-2.4,1
	c-0.7,0-1.5-0.2-2.1-0.7c-0.5-0.4-0.8-1.1-0.8-1.8c0-0.8,0.3-1.6,1-2.1c0.8-0.5,1.8-0.8,2.8-0.7h1.4v-0.7c0-0.4-0.1-0.9-0.5-1.2
	c-0.4-0.3-0.8-0.5-1.3-0.4c-0.5,0-0.9,0.1-1.3,0.4c-0.3,0.2-0.5,0.6-0.5,0.9h-1.5c0-0.4,0.2-0.9,0.4-1.2c0.3-0.4,0.7-0.7,1.2-0.9
	c0.5-0.2,1.1-0.4,1.7-0.3c0.8,0,1.6,0.2,2.3,0.7c0.6,0.5,0.9,1.2,0.9,2v3.9c0,0.6,0.1,1.3,0.3,1.9v0.1H950.5z M948.1,323.4
	c0.5,0,0.9-0.1,1.3-0.4c0.4-0.2,0.7-0.5,0.9-0.9v-1.7h-1.1c-1.8,0-2.7,0.5-2.7,1.6c0,0.4,0.1,0.8,0.5,1.1
	C947.2,323.3,947.6,323.4,948.1,323.4L948.1,323.4z M955.9,314v2h1.6v1.1h-1.6v5.2c0,0.3,0.1,0.5,0.2,0.8c0.2,0.2,0.5,0.3,0.7,0.3
	c0.2,0,0.5,0,0.7-0.1v1.2c-0.4,0.1-0.7,0.2-1.1,0.2c-0.6,0-1.1-0.2-1.5-0.6c-0.4-0.5-0.5-1.1-0.5-1.7v-5.2h-1.5V316h1.5v-2H955.9z
	 M960.7,324.5h-1.4V316h1.4V324.5z M959.2,313.8c0-0.2,0.1-0.4,0.2-0.6c0.2-0.2,0.4-0.3,0.6-0.2c0.2,0,0.5,0.1,0.6,0.2
	c0.1,0.2,0.2,0.4,0.2,0.6c0,0.2-0.1,0.4-0.2,0.6c-0.2,0.2-0.4,0.3-0.6,0.2c-0.2,0-0.5-0.1-0.6-0.2
	C959.2,314.2,959.2,314,959.2,313.8z M965.8,322.5l2.1-6.5h1.5l-3,8.5h-1.1l-3.1-8.5h1.5L965.8,322.5z M970.3,320.2
	c0-0.8,0.2-1.5,0.5-2.2c0.3-0.6,0.8-1.2,1.4-1.5c0.6-0.4,1.3-0.6,2-0.5c1.1,0,2.1,0.4,2.8,1.2c0.7,0.9,1.1,2,1.1,3.2v0.1
	c0,0.8-0.1,1.5-0.5,2.2c-0.3,0.6-0.8,1.2-1.4,1.5c-0.6,0.4-1.3,0.6-2,0.5c-1.1,0-2.1-0.4-2.8-1.2
	C970.6,322.6,970.2,321.4,970.3,320.2L970.3,320.2z M971.8,320.4c0,0.8,0.2,1.6,0.7,2.3c0.7,1,2.1,1.1,3.1,0.4
	c0.1-0.1,0.3-0.3,0.4-0.4c0.5-0.7,0.7-1.6,0.6-2.4c0-0.8-0.2-1.6-0.7-2.3c-0.4-0.6-1.1-0.9-1.8-0.9c-0.7,0-1.3,0.3-1.7,0.9
	C971.9,318.7,971.7,319.5,971.8,320.4L971.8,320.4z M984.7,322.3c0-0.4-0.2-0.7-0.4-0.9c-0.5-0.3-1-0.5-1.5-0.6
	c-0.6-0.1-1.2-0.3-1.8-0.6c-0.4-0.2-0.7-0.4-1-0.8c-0.2-0.3-0.3-0.7-0.3-1.1c0-0.7,0.3-1.3,0.9-1.8c0.6-0.5,1.4-0.8,2.2-0.7
	c0.8,0,1.7,0.2,2.3,0.7c0.6,0.5,0.9,1.2,0.9,1.9h-1.5c0-0.4-0.2-0.8-0.5-1c-0.4-0.3-0.8-0.4-1.3-0.4c-0.4,0-0.9,0.1-1.2,0.3
	c-0.3,0.2-0.5,0.5-0.4,0.9c0,0.3,0.1,0.6,0.4,0.8c0.5,0.2,1,0.4,1.5,0.5c0.6,0.1,1.2,0.3,1.8,0.6c0.4,0.2,0.7,0.5,1,0.8
	c0.2,0.3,0.3,0.7,0.3,1.2c0,0.7-0.3,1.4-0.9,1.8c-0.7,0.5-1.5,0.7-2.4,0.7c-0.6,0-1.2-0.1-1.8-0.4c-0.5-0.2-0.9-0.6-1.2-1
	c-0.3-0.4-0.4-0.9-0.4-1.4h1.4c0,0.5,0.2,0.9,0.6,1.2c0.4,0.3,0.9,0.5,1.4,0.4c0.5,0,0.9-0.1,1.3-0.3
	C984.5,323,984.7,322.6,984.7,322.3L984.7,322.3z"/>
<path id="Trazado_149890" class="st1" d="M869,404.5h141c5,0,9,4,9,9v25c0,5-4,9-9,9H869c-5,0-9-4-9-9v-25
	C860,408.5,864,404.5,869,404.5z"/>
<path id="Trazado_149891" class="st3" d="M907.8,427.9c-0.1,1.1-0.5,2.1-1.3,2.8c-0.8,0.7-1.9,1-3,1c-1.2,0-2.4-0.5-3.2-1.4
	c-0.9-1.1-1.3-2.5-1.2-3.9v-1.1c0-1,0.2-1.9,0.6-2.8c0.3-0.8,0.9-1.4,1.6-1.8c0.7-0.4,1.6-0.7,2.4-0.6c1.1-0.1,2.1,0.3,2.9,1
	c0.8,0.7,1.2,1.7,1.3,2.8h-1.5c-0.1-0.7-0.4-1.4-0.8-2c-0.5-0.4-1.2-0.6-1.8-0.6c-0.9,0-1.7,0.4-2.3,1.1c-0.6,0.9-0.9,2-0.8,3v1.1
	c-0.1,1,0.2,2.1,0.8,2.9c0.5,0.7,1.3,1.1,2.2,1.1c0.7,0,1.4-0.2,1.9-0.6c0.5-0.5,0.8-1.2,0.9-2H907.8z M914.9,430.7
	c-0.6,0.7-1.5,1.1-2.5,1c-0.8,0.1-1.5-0.2-2.1-0.8c-0.5-0.7-0.8-1.5-0.7-2.3V423h1.4v5.5c0,1.3,0.5,1.9,1.6,1.9
	c0.9,0.1,1.8-0.4,2.2-1.2V423h1.4v8.5h-1.4L914.9,430.7z M923.7,431.5c-0.1-0.3-0.2-0.6-0.2-0.9c-0.6,0.7-1.5,1.1-2.4,1
	c-0.7,0-1.5-0.2-2.1-0.7c-0.5-0.4-0.8-1.1-0.8-1.8c0-0.8,0.3-1.6,1-2.1c0.8-0.5,1.8-0.8,2.8-0.7h1.4v-0.7c0-0.4-0.1-0.9-0.5-1.2
	c-0.4-0.3-0.8-0.5-1.3-0.4c-0.5,0-0.9,0.1-1.3,0.4c-0.3,0.2-0.5,0.6-0.5,0.9h-1.5c0-0.4,0.2-0.9,0.4-1.2c0.3-0.4,0.7-0.7,1.2-0.9
	c0.5-0.2,1.1-0.4,1.7-0.3c0.8,0,1.6,0.2,2.3,0.7c0.6,0.5,0.9,1.2,0.9,2v3.9c0,0.6,0.1,1.3,0.3,1.9v0.1H923.7z M921.3,430.4
	c0.5,0,0.9-0.1,1.3-0.4c0.4-0.2,0.7-0.5,0.9-0.9v-1.7h-1.1c-1.8,0-2.7,0.5-2.7,1.6c0,0.4,0.1,0.8,0.5,1.1
	C920.4,430.3,920.9,430.4,921.3,430.4L921.3,430.4z M928.7,431.5h-1.4v-12h1.4L928.7,431.5z M932.6,431.5h-1.4V423h1.4L932.6,431.5z
	 M931,420.8c0-0.2,0.1-0.4,0.2-0.6c0.2-0.2,0.4-0.3,0.6-0.2c0.2,0,0.5,0.1,0.6,0.2c0.1,0.2,0.2,0.4,0.2,0.6c0,0.2-0.1,0.4-0.2,0.6
	c-0.2,0.2-0.4,0.3-0.6,0.2c-0.2,0-0.5-0.1-0.6-0.2C931.1,421.2,931,421,931,420.8z M936.9,421v2h1.6v1.1h-1.6v5.2
	c0,0.3,0.1,0.5,0.2,0.8c0.2,0.2,0.5,0.3,0.7,0.3c0.2,0,0.5,0,0.7-0.1v1.2c-0.4,0.1-0.7,0.2-1.1,0.2c-0.6,0-1.1-0.2-1.5-0.6
	c-0.4-0.5-0.5-1.1-0.5-1.7v-5.2h-1.5V423h1.5v-2H936.9z M945.4,431.5c-0.1-0.3-0.2-0.6-0.2-0.9c-0.6,0.7-1.5,1.1-2.4,1
	c-0.7,0-1.5-0.2-2.1-0.7c-0.5-0.4-0.8-1.1-0.8-1.8c0-0.8,0.3-1.6,1-2.1c0.8-0.5,1.8-0.8,2.8-0.7h1.4v-0.7c0-0.4-0.1-0.9-0.5-1.2
	c-0.4-0.3-0.8-0.5-1.3-0.4c-0.5,0-0.9,0.1-1.3,0.4c-0.3,0.2-0.5,0.6-0.5,0.9h-1.5c0-0.4,0.2-0.9,0.4-1.2c0.3-0.4,0.7-0.7,1.2-0.9
	c0.5-0.2,1.1-0.4,1.7-0.3c0.8,0,1.6,0.2,2.3,0.7c0.6,0.5,0.9,1.2,0.9,2v3.9c0,0.6,0.1,1.3,0.3,1.9v0.1H945.4z M943,430.4
	c0.5,0,0.9-0.1,1.3-0.4c0.4-0.2,0.7-0.5,0.9-0.9v-1.7H944c-1.8,0-2.7,0.5-2.7,1.6c0,0.4,0.1,0.8,0.5,1.1
	C942.1,430.3,942.5,430.4,943,430.4L943,430.4z M950.8,421v2h1.6v1.1h-1.6v5.2c0,0.3,0.1,0.5,0.2,0.8c0.2,0.2,0.5,0.3,0.7,0.3
	c0.2,0,0.5,0,0.7-0.1v1.2c-0.4,0.1-0.7,0.2-1.1,0.2c-0.6,0-1.1-0.2-1.5-0.6c-0.4-0.5-0.5-1.1-0.5-1.7v-5.2h-1.5V423h1.5v-2H950.8z
	 M955.6,431.5h-1.4V423h1.4L955.6,431.5z M954.1,420.8c0-0.2,0.1-0.4,0.2-0.6c0.2-0.2,0.4-0.3,0.6-0.2c0.2,0,0.5,0.1,0.6,0.2
	c0.1,0.2,0.2,0.4,0.2,0.6c0,0.2-0.1,0.4-0.2,0.6c-0.2,0.2-0.4,0.3-0.6,0.2c-0.2,0-0.5-0.1-0.6-0.2
	C954.2,421.2,954.1,421,954.1,420.8z M960.8,429.5l2.1-6.5h1.5l-3,8.5h-1.1l-3.1-8.5h1.5L960.8,429.5z M965.2,427.2
	c0-0.8,0.2-1.5,0.5-2.2c0.3-0.6,0.8-1.2,1.4-1.5c0.6-0.4,1.3-0.6,2-0.5c1.1,0,2.1,0.4,2.8,1.2c0.7,0.9,1.1,2,1.1,3.2v0.1
	c0,0.8-0.1,1.5-0.5,2.2c-0.3,0.6-0.8,1.2-1.4,1.5c-0.6,0.4-1.3,0.6-2,0.5c-1.1,0-2.1-0.4-2.8-1.2
	C965.5,429.6,965.2,428.4,965.2,427.2L965.2,427.2z M966.7,427.4c0,0.8,0.2,1.6,0.7,2.3c0.7,1,2.1,1.1,3.1,0.4
	c0.1-0.1,0.3-0.3,0.4-0.4c0.5-0.7,0.7-1.6,0.6-2.4c0-0.8-0.2-1.6-0.7-2.3c-0.4-0.6-1.1-0.9-1.8-0.9c-0.7,0-1.3,0.3-1.7,0.9
	C966.8,425.7,966.6,426.5,966.7,427.4L966.7,427.4z M979.6,429.3c0-0.4-0.2-0.7-0.4-0.9c-0.5-0.3-1-0.5-1.5-0.6
	c-0.6-0.1-1.2-0.3-1.7-0.6c-0.4-0.2-0.7-0.4-1-0.8c-0.2-0.3-0.3-0.7-0.3-1.1c0-0.7,0.3-1.3,0.9-1.8c0.6-0.5,1.4-0.8,2.2-0.7
	c0.8,0,1.7,0.2,2.3,0.7c0.6,0.5,0.9,1.2,0.9,1.9h-1.5c0-0.4-0.2-0.8-0.5-1c-0.4-0.3-0.8-0.4-1.3-0.4c-0.4,0-0.9,0.1-1.2,0.3
	c-0.3,0.2-0.5,0.5-0.4,0.9c0,0.3,0.1,0.6,0.4,0.8c0.5,0.2,1,0.4,1.5,0.5c0.6,0.1,1.2,0.3,1.8,0.6c0.4,0.2,0.7,0.5,1,0.8
	c0.2,0.3,0.3,0.7,0.3,1.2c0,0.7-0.3,1.4-0.9,1.8c-0.7,0.5-1.5,0.7-2.4,0.7c-0.6,0-1.2-0.1-1.8-0.4c-0.5-0.2-0.9-0.6-1.2-1
	c-0.3-0.4-0.4-0.9-0.4-1.4h1.4c0,0.5,0.2,0.9,0.6,1.2c0.4,0.3,0.9,0.5,1.4,0.4c0.5,0,0.9-0.1,1.3-0.3
	C979.5,430,979.7,429.6,979.6,429.3L979.6,429.3z"/>
<path id="Trazado_149892" class="st1" d="M586,297.5h141c5,0,9,4,9,9v25c0,5-4,9-9,9H586c-5,0-9-4-9-9v-25
	C577,301.5,581,297.5,586,297.5z"/>
<path id="Trazado_149893" class="st3" d="M622,324.5h-1.5v-5.3h-5.7v5.3h-1.5v-11.4h1.5v4.9h5.7v-4.9h1.5V324.5z M624.1,320.2
	c0-0.8,0.2-1.5,0.5-2.2c0.3-0.6,0.8-1.2,1.4-1.5c0.6-0.4,1.3-0.6,2-0.5c1.1,0,2.1,0.4,2.8,1.2c0.7,0.9,1.1,2,1.1,3.2v0.1
	c0,0.8-0.1,1.5-0.5,2.2c-0.3,0.6-0.8,1.2-1.4,1.5c-0.6,0.4-1.3,0.6-2,0.5c-1.1,0-2.1-0.4-2.8-1.2C624.4,322.6,624,321.4,624.1,320.2
	L624.1,320.2z M625.5,320.4c0,0.8,0.2,1.6,0.7,2.3c0.7,1,2.1,1.1,3.1,0.4c0.1-0.1,0.3-0.3,0.4-0.4c0.5-0.7,0.7-1.6,0.6-2.4
	c0-0.8-0.2-1.6-0.7-2.3c-0.4-0.6-1.1-0.9-1.8-0.9c-0.7,0-1.3,0.3-1.7,0.9C625.7,318.7,625.5,319.5,625.5,320.4L625.5,320.4z
	 M637.6,317.3c-0.2,0-0.5-0.1-0.7-0.1c-0.8-0.1-1.6,0.4-1.9,1.2v6h-1.4V316h1.4l0,1c0.4-0.7,1.2-1.2,2-1.1c0.2,0,0.4,0,0.6,0.1
	L637.6,317.3z M640.5,324.5h-1.4V316h1.4L640.5,324.5z M639,313.8c0-0.2,0.1-0.4,0.2-0.6c0.2-0.2,0.4-0.3,0.6-0.2
	c0.2,0,0.5,0.1,0.6,0.2c0.1,0.2,0.2,0.4,0.2,0.6c0,0.2-0.1,0.4-0.2,0.6c-0.2,0.2-0.4,0.3-0.6,0.2c-0.2,0-0.5-0.1-0.6-0.2
	C639.1,314.2,639,314,639,313.8z M644.2,323.3h4.9v1.2h-6.7v-1.1l4.7-6.2h-4.6V316h6.4v1L644.2,323.3z M650.3,320.2
	c0-0.8,0.2-1.5,0.5-2.2c0.3-0.6,0.8-1.2,1.4-1.5c0.6-0.4,1.3-0.6,2-0.5c1.1,0,2.1,0.4,2.8,1.2c0.7,0.9,1.1,2,1.1,3.2v0.1
	c0,0.8-0.1,1.5-0.5,2.2c-0.3,0.6-0.8,1.2-1.4,1.5c-0.6,0.4-1.3,0.6-2,0.5c-1.1,0-2.1-0.4-2.8-1.2
	C650.6,322.6,650.2,321.4,650.3,320.2L650.3,320.2z M651.7,320.4c0,0.8,0.2,1.6,0.7,2.3c0.7,1,2.1,1.1,3.1,0.4
	c0.1-0.1,0.3-0.3,0.4-0.4c0.5-0.7,0.7-1.6,0.6-2.4c0-0.8-0.2-1.6-0.7-2.3c-0.4-0.6-1.1-0.9-1.8-0.9c-0.7,0-1.3,0.3-1.7,0.9
	C651.9,318.7,651.7,319.5,651.7,320.4L651.7,320.4z M661.2,316.1l0,1.1c0.6-0.8,1.5-1.2,2.5-1.2c1.8,0,2.7,1,2.7,3v5.6H665v-5.6
	c0-0.5-0.1-1-0.4-1.4c-0.3-0.3-0.8-0.5-1.3-0.4c-0.4,0-0.9,0.1-1.2,0.4c-0.4,0.3-0.6,0.6-0.8,1v6h-1.4V316L661.2,316.1z M670.6,314
	v2h1.6v1.1h-1.6v5.2c0,0.3,0.1,0.5,0.2,0.8c0.2,0.2,0.5,0.3,0.7,0.3c0.2,0,0.5,0,0.7-0.1v1.2c-0.4,0.1-0.7,0.2-1.1,0.2
	c-0.6,0-1.1-0.2-1.5-0.6c-0.4-0.5-0.5-1.1-0.5-1.7v-5.2h-1.5V316h1.5v-2H670.6z M679.1,324.5c-0.1-0.3-0.2-0.6-0.2-0.9
	c-0.6,0.7-1.5,1.1-2.4,1c-0.7,0-1.5-0.2-2.1-0.7c-0.5-0.4-0.8-1.1-0.8-1.8c0-0.8,0.3-1.6,1-2.1c0.8-0.5,1.8-0.8,2.8-0.7h1.4v-0.7
	c0-0.4-0.1-0.9-0.5-1.2c-0.4-0.3-0.8-0.5-1.3-0.4c-0.5,0-0.9,0.1-1.3,0.4c-0.3,0.2-0.5,0.6-0.5,0.9h-1.5c0-0.4,0.2-0.9,0.4-1.2
	c0.3-0.4,0.7-0.7,1.2-0.9c0.5-0.2,1.1-0.4,1.7-0.3c0.8,0,1.6,0.2,2.3,0.7c0.6,0.5,0.9,1.2,0.9,2v3.9c0,0.6,0.1,1.3,0.3,1.9v0.1
	H679.1z M676.7,323.4c0.5,0,0.9-0.1,1.3-0.4c0.4-0.2,0.7-0.5,0.9-0.9v-1.7h-1.1c-1.8,0-2.7,0.5-2.7,1.6c0,0.4,0.1,0.8,0.5,1.1
	C675.8,323.3,676.2,323.4,676.7,323.4L676.7,323.4z M684.1,324.5h-1.4v-12h1.4V324.5z M689.9,324.7c-1.1,0-2.1-0.4-2.8-1.1
	c-0.7-0.8-1.1-1.9-1.1-3v-0.3c0-0.8,0.2-1.5,0.5-2.2c0.3-0.6,0.8-1.2,1.3-1.5c0.6-0.4,1.2-0.6,1.9-0.6c1-0.1,1.9,0.3,2.6,1.1
	c0.7,0.9,1,2,0.9,3.1v0.6h-5.7c0,0.7,0.2,1.5,0.7,2c0.5,0.5,1.1,0.8,1.8,0.8c0.5,0,0.9-0.1,1.3-0.3c0.4-0.2,0.7-0.5,0.9-0.8l0.9,0.7
	C692.4,324.1,691.2,324.7,689.9,324.7L689.9,324.7z M689.8,317.1c-0.6,0-1.1,0.2-1.5,0.6c-0.4,0.5-0.7,1.1-0.7,1.8h4.2v-0.1
	c0-0.6-0.2-1.2-0.6-1.7C690.8,317.3,690.3,317.1,689.8,317.1L689.8,317.1z M699.8,322.3c0-0.4-0.2-0.7-0.4-0.9
	c-0.5-0.3-1-0.5-1.5-0.6c-0.6-0.1-1.2-0.3-1.7-0.6c-0.4-0.2-0.7-0.4-1-0.8c-0.2-0.3-0.3-0.7-0.3-1.1c0-0.7,0.3-1.3,0.9-1.8
	c0.6-0.5,1.4-0.8,2.2-0.7c0.8,0,1.7,0.2,2.3,0.7c0.6,0.5,0.9,1.2,0.9,1.9h-1.5c0-0.4-0.2-0.8-0.5-1c-0.4-0.3-0.8-0.4-1.3-0.4
	c-0.4,0-0.9,0.1-1.2,0.3c-0.3,0.2-0.5,0.5-0.4,0.9c0,0.3,0.1,0.6,0.4,0.8c0.5,0.2,1,0.4,1.5,0.5c0.6,0.1,1.2,0.3,1.8,0.6
	c0.4,0.2,0.7,0.5,1,0.8c0.2,0.3,0.3,0.7,0.3,1.2c0,0.7-0.3,1.4-0.9,1.8c-0.7,0.5-1.5,0.7-2.4,0.7c-0.6,0-1.2-0.1-1.8-0.4
	c-0.5-0.2-0.9-0.6-1.2-1c-0.3-0.4-0.4-0.9-0.4-1.4h1.4c0,0.5,0.2,0.9,0.6,1.2c0.4,0.3,0.9,0.5,1.4,0.4c0.5,0,0.9-0.1,1.3-0.3
	C699.6,323,699.8,322.6,699.8,322.3L699.8,322.3z"/>
<path id="Trazado_149894" class="st1" d="M586,404.5h141c5,0,9,4,9,9v25c0,5-4,9-9,9H586c-5,0-9-4-9-9v-25
	C577,408.5,581,404.5,586,404.5z"/>
<path id="Trazado_149895" class="st3" d="M626.6,429.5l3.2-9.4h1.6l-4.2,11.4H626l-4.2-11.4h1.6L626.6,429.5z M636,431.7
	c-1.1,0-2.1-0.4-2.8-1.1c-0.7-0.8-1.1-1.9-1.1-3v-0.3c0-0.8,0.2-1.5,0.5-2.2c0.3-0.6,0.8-1.2,1.3-1.5c0.6-0.4,1.2-0.6,1.9-0.6
	c1-0.1,1.9,0.3,2.6,1.1c0.7,0.9,1,2,0.9,3.1v0.6h-5.7c0,0.7,0.2,1.5,0.7,2c0.5,0.5,1.1,0.8,1.8,0.8c0.5,0,0.9-0.1,1.3-0.3
	c0.4-0.2,0.7-0.5,0.9-0.8l0.9,0.7C638.5,431.1,637.3,431.7,636,431.7L636,431.7z M635.8,424.1c-0.6,0-1.1,0.2-1.5,0.6
	c-0.4,0.5-0.7,1.1-0.7,1.8h4.2v-0.1c0-0.6-0.2-1.2-0.6-1.7C636.9,424.3,636.3,424.1,635.8,424.1z M645,424.3c-0.2,0-0.5-0.1-0.7-0.1
	c-0.8-0.1-1.6,0.4-1.9,1.2v6h-1.4V423h1.4l0,1c0.4-0.7,1.2-1.2,2-1.1c0.2,0,0.4,0,0.6,0.1L645,424.3z M648.7,421v2h1.6v1.1h-1.6v5.2
	c0,0.3,0.1,0.5,0.2,0.8c0.2,0.2,0.5,0.3,0.7,0.3c0.2,0,0.5,0,0.7-0.1v1.2c-0.4,0.1-0.7,0.2-1.1,0.2c-0.6,0-1.1-0.2-1.5-0.6
	c-0.4-0.5-0.5-1.1-0.5-1.7v-5.2h-1.5V423h1.5v-2H648.7z M653.6,431.5h-1.4V423h1.4L653.6,431.5z M652,420.8c0-0.2,0.1-0.4,0.2-0.6
	c0.2-0.2,0.4-0.3,0.6-0.2c0.2,0,0.5,0.1,0.6,0.2c0.1,0.2,0.2,0.4,0.2,0.6c0,0.2-0.1,0.4-0.2,0.6c-0.2,0.2-0.4,0.3-0.6,0.2
	c-0.2,0-0.5-0.1-0.6-0.2C652.1,421.2,652,421,652,420.8z M659.3,430.5c0.5,0,1-0.2,1.4-0.5c0.4-0.3,0.6-0.7,0.6-1.2h1.4
	c0,0.5-0.2,1-0.5,1.4c-0.3,0.4-0.7,0.8-1.2,1c-0.5,0.3-1.1,0.4-1.6,0.4c-1,0-2.1-0.4-2.7-1.2c-0.7-0.9-1.1-2-1-3.2v-0.2
	c0-0.8,0.1-1.5,0.5-2.2c0.3-0.6,0.7-1.1,1.3-1.5c0.6-0.4,1.3-0.5,2-0.5c0.9,0,1.7,0.3,2.4,0.9c0.6,0.6,1,1.4,1,2.2h-1.4
	c0-0.5-0.2-1-0.6-1.3c-0.4-0.4-0.9-0.5-1.4-0.5c-0.7,0-1.3,0.3-1.7,0.8c-0.4,0.7-0.7,1.5-0.6,2.3v0.3c-0.1,0.8,0.2,1.6,0.6,2.2
	C657.9,430.2,658.6,430.5,659.3,430.5L659.3,430.5z M669.5,431.5c-0.1-0.3-0.2-0.6-0.2-0.9c-0.6,0.7-1.5,1.1-2.4,1
	c-0.7,0-1.5-0.2-2.1-0.7c-0.5-0.4-0.8-1.1-0.8-1.8c0-0.8,0.3-1.6,1-2.1c0.8-0.5,1.8-0.8,2.8-0.7h1.4v-0.7c0-0.4-0.1-0.9-0.5-1.2
	c-0.4-0.3-0.8-0.5-1.3-0.4c-0.5,0-0.9,0.1-1.3,0.4c-0.3,0.2-0.5,0.6-0.5,0.9h-1.5c0-0.4,0.2-0.9,0.4-1.2c0.3-0.4,0.7-0.7,1.2-0.9
	c0.5-0.2,1.1-0.4,1.7-0.3c0.8,0,1.6,0.2,2.3,0.7c0.6,0.5,0.9,1.2,0.9,2v3.9c0,0.6,0.1,1.3,0.3,1.9v0.1H669.5z M667.1,430.4
	c0.5,0,0.9-0.1,1.3-0.4c0.4-0.2,0.7-0.5,0.9-0.9v-1.7h-1.1c-1.8,0-2.7,0.5-2.7,1.6c0,0.4,0.1,0.8,0.5,1.1
	C666.2,430.3,666.6,430.4,667.1,430.4L667.1,430.4z M674.5,431.5h-1.4v-12h1.4L674.5,431.5z M680.3,431.7c-1.1,0-2.1-0.4-2.8-1.1
	c-0.7-0.8-1.1-1.9-1.1-3v-0.3c0-0.8,0.2-1.5,0.5-2.2c0.3-0.6,0.8-1.2,1.3-1.5c0.6-0.4,1.2-0.6,1.9-0.6c1-0.1,1.9,0.3,2.6,1.1
	c0.7,0.9,1,2,0.9,3.1v0.6h-5.7c0,0.7,0.2,1.5,0.7,2c0.5,0.5,1.1,0.8,1.8,0.8c0.5,0,0.9-0.1,1.3-0.3c0.4-0.2,0.7-0.5,0.9-0.8l0.9,0.7
	C682.8,431.1,681.6,431.7,680.3,431.7z M680.2,424.1c-0.6,0-1.1,0.2-1.5,0.6c-0.4,0.5-0.7,1.1-0.7,1.8h4.2v-0.1
	c0-0.6-0.2-1.2-0.6-1.7C681.2,424.3,680.7,424.1,680.2,424.1z M690.2,429.3c0-0.4-0.2-0.7-0.4-0.9c-0.5-0.3-1-0.5-1.5-0.6
	c-0.6-0.1-1.2-0.3-1.7-0.6c-0.4-0.2-0.7-0.4-1-0.8c-0.2-0.3-0.3-0.7-0.3-1.1c0-0.7,0.3-1.3,0.9-1.8c0.6-0.5,1.4-0.8,2.2-0.7
	c0.8,0,1.7,0.2,2.3,0.7c0.6,0.5,0.9,1.2,0.9,1.9h-1.5c0-0.4-0.2-0.8-0.5-1c-0.4-0.3-0.8-0.4-1.3-0.4c-0.4,0-0.9,0.1-1.2,0.3
	c-0.3,0.2-0.5,0.5-0.4,0.9c0,0.3,0.1,0.6,0.4,0.8c0.5,0.2,1,0.4,1.5,0.5c0.6,0.1,1.2,0.3,1.8,0.6c0.4,0.2,0.7,0.5,1,0.8
	c0.2,0.3,0.3,0.7,0.3,1.2c0,0.7-0.3,1.4-0.9,1.8c-0.7,0.5-1.5,0.7-2.4,0.7c-0.6,0-1.2-0.1-1.8-0.4c-0.5-0.2-0.9-0.6-1.2-1
	c-0.3-0.4-0.4-0.9-0.4-1.4h1.4c0,0.5,0.2,0.9,0.6,1.2c0.4,0.3,0.9,0.5,1.4,0.4c0.5,0,0.9-0.1,1.3-0.3
	C690,430,690.2,429.6,690.2,429.3L690.2,429.3z"/>
<path id="Trazado_149896" class="st1" d="M586,511.5h141c5,0,9,4,9,9v25c0,5-4,9-9,9H586c-5,0-9-4-9-9v-25
	C577,515.5,581,511.5,586,511.5z"/>
<path id="Trazado_149897" class="st3" d="M616.7,528.4h-3.7v10.1h-1.5v-10.1h-3.6v-1.2h8.8L616.7,528.4z M621.7,531.3
	c-0.2,0-0.5-0.1-0.7-0.1c-0.8-0.1-1.6,0.4-1.9,1.2v6h-1.4V530h1.4l0,1c0.4-0.7,1.2-1.2,2-1.1c0.2,0,0.4,0,0.6,0.1V531.3z
	 M627.9,538.5c-0.1-0.3-0.2-0.6-0.2-0.9c-0.6,0.7-1.5,1.1-2.4,1c-0.7,0-1.5-0.2-2.1-0.7c-0.5-0.4-0.8-1.1-0.8-1.8
	c0-0.8,0.3-1.6,1-2.1c0.8-0.5,1.8-0.8,2.8-0.7h1.4v-0.7c0-0.4-0.1-0.9-0.4-1.2c-0.4-0.3-0.8-0.5-1.3-0.4c-0.5,0-0.9,0.1-1.3,0.4
	c-0.3,0.2-0.5,0.6-0.5,0.9h-1.5c0-0.4,0.2-0.9,0.4-1.2c0.3-0.4,0.7-0.7,1.2-0.9c0.5-0.2,1.1-0.4,1.7-0.3c0.8,0,1.6,0.2,2.3,0.7
	c0.6,0.5,0.9,1.2,0.9,2v3.9c0,0.6,0.1,1.3,0.3,1.9v0.1H627.9z M625.5,537.4c0.5,0,0.9-0.1,1.3-0.4c0.4-0.2,0.7-0.5,0.9-0.9v-1.7
	h-1.1c-1.8,0-2.7,0.5-2.7,1.6c0,0.4,0.1,0.8,0.5,1.1C624.7,537.3,625.1,537.4,625.5,537.4z M632.8,530l0,1.1
	c0.6-0.8,1.5-1.2,2.5-1.2c1.8,0,2.7,1,2.7,3v5.6h-1.4v-5.6c0-0.5-0.1-1-0.4-1.4c-0.3-0.3-0.8-0.5-1.3-0.4c-0.4,0-0.9,0.1-1.2,0.4
	c-0.4,0.3-0.6,0.6-0.8,1v6h-1.4V530L632.8,530z M645.1,536.3c0-0.4-0.2-0.7-0.4-0.9c-0.5-0.3-1-0.5-1.5-0.6
	c-0.6-0.1-1.2-0.3-1.7-0.6c-0.4-0.2-0.7-0.4-1-0.8c-0.2-0.3-0.3-0.7-0.3-1.1c0-0.7,0.3-1.3,0.9-1.8c0.6-0.5,1.4-0.8,2.2-0.7
	c0.8,0,1.7,0.2,2.3,0.7c0.6,0.5,0.9,1.2,0.9,1.9h-1.4c0-0.4-0.2-0.8-0.5-1c-0.4-0.3-0.8-0.4-1.3-0.4c-0.4,0-0.9,0.1-1.2,0.3
	c-0.3,0.2-0.5,0.5-0.4,0.9c0,0.3,0.1,0.6,0.4,0.8c0.5,0.2,1,0.4,1.5,0.5c0.6,0.1,1.2,0.3,1.8,0.6c0.4,0.2,0.7,0.5,1,0.8
	c0.2,0.3,0.3,0.7,0.3,1.2c0,0.7-0.3,1.4-0.9,1.8c-0.7,0.5-1.5,0.7-2.4,0.7c-0.6,0-1.2-0.1-1.8-0.4c-0.5-0.2-0.9-0.6-1.2-1
	c-0.3-0.4-0.4-0.9-0.4-1.4h1.4c0,0.5,0.2,0.9,0.6,1.2c0.4,0.3,0.9,0.5,1.4,0.4c0.5,0,0.9-0.1,1.3-0.3
	C645,537,645.1,536.6,645.1,536.3L645.1,536.3z M651.2,536.5l2.1-6.5h1.5l-3,8.5h-1.1l-3.1-8.5h1.5L651.2,536.5z M659.6,538.7
	c-1.1,0-2.1-0.4-2.8-1.1c-0.7-0.8-1.1-1.9-1.1-3v-0.3c0-0.8,0.2-1.5,0.5-2.2c0.3-0.6,0.8-1.2,1.4-1.5c0.6-0.4,1.2-0.6,1.9-0.6
	c1-0.1,1.9,0.3,2.6,1.1c0.7,0.9,1,2,0.9,3.1v0.6h-5.7c0,0.7,0.2,1.5,0.7,2c0.5,0.5,1.1,0.8,1.8,0.8c0.5,0,0.9-0.1,1.3-0.3
	c0.4-0.2,0.7-0.5,0.9-0.8l0.9,0.7C662.1,538.1,660.9,538.7,659.6,538.7L659.6,538.7z M659.4,531.1c-0.6,0-1.1,0.2-1.5,0.6
	c-0.4,0.5-0.7,1.1-0.7,1.8h4.2v-0.1c0-0.6-0.2-1.2-0.6-1.7C660.5,531.3,660,531.1,659.4,531.1L659.4,531.1z M668.7,531.3
	c-0.2,0-0.5-0.1-0.7-0.1c-0.8-0.1-1.6,0.4-1.9,1.2v6h-1.4V530h1.4l0,1c0.4-0.7,1.2-1.2,2-1.1c0.2,0,0.4,0,0.6,0.1L668.7,531.3z
	 M674.9,536.3c0-0.4-0.2-0.7-0.4-0.9c-0.5-0.3-1-0.5-1.5-0.6c-0.6-0.1-1.2-0.3-1.7-0.6c-0.4-0.2-0.7-0.4-1-0.8
	c-0.2-0.3-0.3-0.7-0.3-1.1c0-0.7,0.3-1.3,0.9-1.8c0.6-0.5,1.4-0.8,2.2-0.7c0.8,0,1.7,0.2,2.3,0.7c0.6,0.5,0.9,1.2,0.9,1.9h-1.4
	c0-0.4-0.2-0.8-0.5-1c-0.4-0.3-0.8-0.4-1.3-0.4c-0.4,0-0.9,0.1-1.2,0.3c-0.3,0.2-0.5,0.5-0.4,0.9c0,0.3,0.1,0.6,0.4,0.8
	c0.5,0.2,1,0.4,1.5,0.5c0.6,0.1,1.2,0.3,1.8,0.6c0.4,0.2,0.7,0.5,1,0.8c0.2,0.3,0.3,0.7,0.3,1.2c0,0.7-0.3,1.4-0.9,1.8
	c-0.7,0.5-1.5,0.7-2.4,0.7c-0.6,0-1.2-0.1-1.8-0.4c-0.5-0.2-0.9-0.6-1.2-1c-0.3-0.4-0.4-0.9-0.4-1.4h1.4c0,0.5,0.2,0.9,0.6,1.2
	c0.4,0.3,0.9,0.5,1.4,0.4c0.5,0,0.9-0.1,1.3-0.3C674.7,537,674.9,536.6,674.9,536.3L674.9,536.3z M683.5,538.5
	c-0.1-0.3-0.2-0.6-0.2-0.9c-0.6,0.7-1.5,1.1-2.4,1c-0.7,0-1.5-0.2-2.1-0.7c-0.5-0.4-0.8-1.1-0.8-1.8c0-0.8,0.3-1.6,1-2.1
	c0.8-0.5,1.8-0.8,2.8-0.7h1.4v-0.7c0-0.4-0.1-0.9-0.5-1.2c-0.4-0.3-0.8-0.5-1.3-0.4c-0.5,0-0.9,0.1-1.3,0.4
	c-0.3,0.2-0.5,0.6-0.5,0.9h-1.4c0-0.4,0.2-0.9,0.4-1.2c0.3-0.4,0.7-0.7,1.2-0.9c0.5-0.2,1.1-0.4,1.7-0.3c0.8,0,1.6,0.2,2.3,0.7
	c0.6,0.5,0.9,1.2,0.9,2v3.9c0,0.6,0.1,1.3,0.3,1.9v0.1H683.5z M681.1,537.4c0.5,0,0.9-0.1,1.3-0.4c0.4-0.2,0.7-0.5,0.9-0.9v-1.7
	h-1.1c-1.8,0-2.7,0.5-2.7,1.6c0,0.4,0.1,0.8,0.5,1.1C680.2,537.3,680.7,537.4,681.1,537.4L681.1,537.4z M688.5,538.5h-1.4v-12h1.4
	V538.5z M694.3,538.7c-1.1,0-2.1-0.4-2.8-1.1c-0.7-0.8-1.1-1.9-1.1-3v-0.3c0-0.8,0.2-1.5,0.5-2.2c0.3-0.6,0.8-1.2,1.4-1.5
	c0.6-0.4,1.2-0.6,1.9-0.6c1-0.1,1.9,0.3,2.6,1.1c0.7,0.9,1,2,0.9,3.1v0.6h-5.7c0,0.7,0.2,1.5,0.7,2c0.5,0.5,1.1,0.8,1.8,0.8
	c0.5,0,0.9-0.1,1.3-0.3c0.4-0.2,0.7-0.5,0.9-0.8l0.9,0.7C696.8,538.1,695.6,538.7,694.3,538.7L694.3,538.7z M694.2,531.1
	c-0.6,0-1.1,0.2-1.5,0.6c-0.4,0.5-0.7,1.1-0.7,1.8h4.2v-0.1c0-0.6-0.2-1.2-0.6-1.7C695.2,531.3,694.7,531.1,694.2,531.1L694.2,531.1
	z M704.2,536.3c0-0.4-0.2-0.7-0.4-0.9c-0.5-0.3-1-0.5-1.5-0.6c-0.6-0.1-1.2-0.3-1.7-0.6c-0.4-0.2-0.7-0.4-1-0.8
	c-0.2-0.3-0.3-0.7-0.3-1.1c0-0.7,0.3-1.3,0.9-1.8c0.6-0.5,1.4-0.8,2.2-0.7c0.8,0,1.7,0.2,2.3,0.7c0.6,0.5,0.9,1.2,0.9,1.9h-1.5
	c0-0.4-0.2-0.8-0.5-1c-0.4-0.3-0.8-0.4-1.3-0.4c-0.4,0-0.9,0.1-1.2,0.3c-0.3,0.2-0.5,0.5-0.4,0.9c0,0.3,0.1,0.6,0.4,0.8
	c0.5,0.2,1,0.4,1.5,0.5c0.6,0.1,1.2,0.3,1.8,0.6c0.4,0.2,0.7,0.5,1,0.8c0.2,0.3,0.3,0.7,0.3,1.2c0,0.7-0.3,1.4-0.9,1.8
	c-0.7,0.5-1.5,0.7-2.4,0.7c-0.6,0-1.2-0.1-1.8-0.4c-0.5-0.2-0.9-0.6-1.2-1c-0.3-0.4-0.4-0.9-0.4-1.4h1.4c0,0.5,0.2,0.9,0.6,1.2
	c0.4,0.3,0.9,0.5,1.4,0.4c0.5,0,0.9-0.1,1.3-0.3C704.1,537,704.2,536.6,704.2,536.3L704.2,536.3z"/>
<path id="Trazado_149898" class="st1" d="M586,618.5h141c5,0,9,4,9,9v25c0,5-4,9-9,9H586c-5,0-9-4-9-9v-25
	C577,622.5,581,618.5,586,618.5z"/>
<path id="Trazado_149899" class="st3" d="M607.6,644.3h5.4v1.2h-6.9v-11.4h1.5V644.3z M614.1,641.2c0-0.8,0.2-1.5,0.5-2.2
	c0.3-0.6,0.8-1.2,1.4-1.5c0.6-0.4,1.3-0.6,2-0.5c1.1,0,2.1,0.4,2.8,1.2c0.7,0.9,1.1,2,1.1,3.2v0.1c0,0.8-0.1,1.5-0.5,2.2
	c-0.3,0.6-0.8,1.2-1.4,1.5c-0.6,0.4-1.3,0.6-2,0.5c-1.1,0-2.1-0.4-2.8-1.2C614.4,643.6,614,642.4,614.1,641.2L614.1,641.2z
	 M615.5,641.4c0,0.8,0.2,1.6,0.7,2.3c0.7,1,2.1,1.1,3.1,0.4c0.1-0.1,0.3-0.3,0.4-0.4c0.5-0.7,0.7-1.6,0.6-2.4c0-0.8-0.2-1.6-0.7-2.3
	c-0.4-0.6-1.1-0.9-1.8-0.9c-0.7,0-1.3,0.3-1.7,0.9C615.7,639.6,615.5,640.5,615.5,641.4L615.5,641.4z M624.9,637.1l0,1.1
	c0.6-0.8,1.5-1.2,2.5-1.2c1.8,0,2.7,1,2.7,3v5.6h-1.4v-5.6c0-0.5-0.1-1-0.4-1.4c-0.3-0.3-0.8-0.5-1.3-0.4c-0.4,0-0.9,0.1-1.2,0.4
	c-0.4,0.3-0.6,0.6-0.8,1v6h-1.4V637L624.9,637.1z M632.1,641.2c-0.1-1.1,0.3-2.2,0.9-3.1c1.1-1.4,3.1-1.6,4.4-0.5
	c0.1,0.1,0.3,0.2,0.4,0.4l0.1-0.9h1.3v8.3c0.1,1-0.3,1.9-1,2.6c-0.7,0.7-1.7,1-2.6,0.9c-0.6,0-1.2-0.1-1.8-0.4
	c-0.5-0.2-1-0.6-1.3-1.1l0.8-0.9c0.5,0.7,1.4,1.1,2.3,1.1c0.6,0,1.2-0.2,1.6-0.6c0.4-0.5,0.6-1.1,0.6-1.7v-0.7c-0.6,0.7-1.5,1-2.4,1
	c-0.9,0-1.8-0.4-2.4-1.2C632.3,643.5,632,642.4,632.1,641.2z M633.5,641.4c0,0.8,0.2,1.6,0.6,2.2c0.4,0.5,1,0.8,1.6,0.8
	c0.9,0,1.7-0.5,2-1.2v-3.9c-0.4-0.8-1.1-1.2-2-1.2c-0.7,0-1.3,0.3-1.6,0.8C633.7,639.7,633.4,640.5,633.5,641.4L633.5,641.4z
	 M642.9,645.5h-1.4V637h1.4V645.5z M641.4,634.8c0-0.2,0.1-0.4,0.2-0.6c0.2-0.2,0.4-0.3,0.6-0.2c0.2,0,0.5,0.1,0.6,0.2
	c0.1,0.2,0.2,0.4,0.2,0.6c0,0.2-0.1,0.4-0.2,0.6c-0.2,0.2-0.4,0.3-0.6,0.2c-0.2,0-0.5-0.1-0.6-0.2
	C641.5,635.2,641.4,635,641.4,634.8z M647.2,635v2h1.6v1.1h-1.6v5.2c0,0.3,0.1,0.5,0.2,0.8c0.2,0.2,0.5,0.3,0.7,0.3
	c0.2,0,0.5,0,0.7-0.1v1.2c-0.4,0.1-0.7,0.2-1.1,0.2c-0.6,0-1.1-0.2-1.5-0.6c-0.4-0.5-0.5-1.1-0.5-1.7v-5.2h-1.5V637h1.5v-2H647.2z
	 M655.7,644.7c-0.6,0.7-1.5,1.1-2.5,1c-0.8,0.1-1.5-0.2-2.1-0.8c-0.5-0.7-0.8-1.5-0.7-2.3V637h1.5v5.5c0,1.3,0.5,1.9,1.6,1.9
	c0.9,0.1,1.8-0.4,2.2-1.2V637h1.4v8.5h-1.4L655.7,644.7z M659,641.2c-0.1-1.1,0.3-2.2,0.9-3.1c1.1-1.4,3.1-1.6,4.4-0.5
	c0.1,0.1,0.2,0.2,0.4,0.3v-4.4h1.4v12h-1.3l-0.1-0.9c-0.6,0.7-1.5,1.1-2.4,1.1c-0.9,0-1.8-0.4-2.4-1.2c-0.7-0.9-1-2-0.9-3.1
	L659,641.2z M660.4,641.4c0,0.8,0.2,1.6,0.6,2.2c0.4,0.5,1,0.8,1.6,0.8c0.9,0,1.7-0.4,2-1.2v-3.9c-0.4-0.8-1.1-1.2-2-1.2
	c-0.7,0-1.3,0.3-1.7,0.8C660.5,639.7,660.3,640.5,660.4,641.4L660.4,641.4z M669.9,645.5h-1.4V637h1.4V645.5z M668.3,634.8
	c0-0.2,0.1-0.4,0.2-0.6c0.2-0.2,0.4-0.3,0.6-0.2c0.2,0,0.5,0.1,0.6,0.2c0.1,0.2,0.2,0.4,0.2,0.6c0,0.2-0.1,0.4-0.2,0.6
	c-0.2,0.2-0.4,0.3-0.6,0.2c-0.2,0-0.5-0.1-0.6-0.2C668.4,635.2,668.3,635,668.3,634.8z M673.6,637l0,1.1c0.6-0.8,1.5-1.2,2.5-1.2
	c1.8,0,2.7,1,2.7,3v5.6h-1.4v-5.6c0-0.5-0.1-1-0.4-1.4c-0.3-0.3-0.8-0.5-1.3-0.4c-0.4,0-0.9,0.1-1.2,0.4c-0.4,0.3-0.6,0.6-0.8,1v6
	h-1.5V637L673.6,637z M686.3,645.5c-0.1-0.3-0.2-0.6-0.2-0.9c-0.6,0.7-1.5,1.1-2.4,1c-0.7,0-1.5-0.2-2.1-0.7
	c-0.5-0.4-0.8-1.1-0.8-1.8c0-0.8,0.3-1.6,1-2.1c0.8-0.5,1.8-0.8,2.8-0.7h1.4v-0.7c0-0.4-0.1-0.9-0.5-1.2c-0.4-0.3-0.8-0.5-1.3-0.4
	c-0.5,0-0.9,0.1-1.3,0.4c-0.3,0.2-0.5,0.6-0.5,0.9H681c0-0.4,0.2-0.9,0.4-1.2c0.3-0.4,0.7-0.7,1.2-0.9c0.5-0.2,1.1-0.4,1.7-0.3
	c0.8,0,1.6,0.2,2.3,0.7c0.6,0.5,0.9,1.2,0.9,2v3.9c0,0.6,0.1,1.3,0.3,1.9v0.1H686.3z M683.9,644.4c0.5,0,0.9-0.1,1.3-0.4
	c0.4-0.2,0.7-0.5,0.9-0.9v-1.7h-1.1c-1.8,0-2.7,0.5-2.7,1.6c0,0.4,0.1,0.8,0.5,1.1C683,644.3,683.4,644.4,683.9,644.4L683.9,644.4z
	 M691.3,645.5h-1.4v-12h1.4L691.3,645.5z M697.1,645.7c-1.1,0-2.1-0.4-2.8-1.1c-0.7-0.8-1.1-1.9-1.1-3v-0.3c0-0.8,0.2-1.5,0.5-2.2
	c0.3-0.6,0.8-1.2,1.3-1.5c0.6-0.4,1.2-0.6,1.9-0.6c1-0.1,1.9,0.3,2.6,1.1c0.7,0.9,1,2,0.9,3.1v0.6h-5.7c0,0.7,0.2,1.5,0.7,2
	c0.5,0.5,1.1,0.8,1.8,0.8c0.5,0,0.9-0.1,1.3-0.3c0.4-0.2,0.7-0.5,0.9-0.8l0.9,0.7C699.6,645.1,698.4,645.7,697.1,645.7z M697,638.1
	c-0.6,0-1.1,0.2-1.5,0.6c-0.4,0.5-0.7,1.1-0.7,1.8h4.2v-0.1c0-0.6-0.2-1.2-0.6-1.7C698,638.3,697.5,638.1,697,638.1z M707,643.3
	c0-0.4-0.2-0.7-0.4-0.9c-0.5-0.3-1-0.5-1.5-0.6c-0.6-0.1-1.2-0.3-1.7-0.6c-0.4-0.2-0.7-0.4-1-0.8c-0.2-0.3-0.3-0.7-0.3-1.1
	c0-0.7,0.3-1.3,0.9-1.8c0.6-0.5,1.4-0.8,2.2-0.7c0.8,0,1.7,0.2,2.3,0.7c0.6,0.5,0.9,1.2,0.9,1.9h-1.5c0-0.4-0.2-0.8-0.5-1
	c-0.4-0.3-0.8-0.4-1.3-0.4c-0.4,0-0.9,0.1-1.2,0.3c-0.3,0.2-0.5,0.5-0.4,0.9c0,0.3,0.1,0.6,0.4,0.8c0.5,0.2,1,0.4,1.5,0.5
	c0.6,0.1,1.2,0.3,1.8,0.6c0.4,0.2,0.7,0.5,1,0.8c0.2,0.3,0.3,0.7,0.3,1.2c0,0.7-0.3,1.4-0.9,1.8c-0.7,0.5-1.5,0.7-2.4,0.7
	c-0.6,0-1.2-0.1-1.8-0.4c-0.5-0.2-0.9-0.6-1.2-1c-0.3-0.4-0.4-0.9-0.4-1.4h1.4c0,0.5,0.2,0.9,0.6,1.2c0.4,0.3,0.9,0.5,1.4,0.4
	c0.5,0,0.9-0.1,1.3-0.3C706.8,644,707,643.6,707,643.3z"/>
<path id="Trazado_149900" class="st1" d="M324,297.5h141c5,0,9,4,9,9v25c0,5-4,9-9,9H324c-5,0-9-4-9-9v-25
	C315,301.5,319,297.5,324,297.5z"/>
<path id="Trazado_149901" class="st3" d="M363.4,320v4.5h-1.5v-11.4h4.2c1.1-0.1,2.1,0.3,2.9,1c0.7,0.6,1.1,1.6,1.1,2.5
	c0.1,1-0.3,1.9-1,2.6c-0.8,0.6-1.9,1-3,0.9H363.4z M363.4,318.8h2.7c0.7,0,1.3-0.2,1.8-0.6c0.4-0.4,0.7-1,0.6-1.6
	c0-0.6-0.2-1.2-0.6-1.6c-0.5-0.4-1.1-0.7-1.8-0.6h-2.8V318.8z M375.9,317.3c-0.2,0-0.5-0.1-0.7-0.1c-0.8-0.1-1.6,0.4-1.9,1.2v6h-1.4
	V316h1.4l0,1c0.4-0.7,1.2-1.2,2-1.1c0.2,0,0.4,0,0.6,0.1L375.9,317.3z M378.8,324.5h-1.4V316h1.4V324.5z M377.2,313.8
	c0-0.2,0.1-0.4,0.2-0.6c0.2-0.2,0.4-0.3,0.6-0.2c0.2,0,0.5,0.1,0.6,0.2c0.1,0.2,0.2,0.4,0.2,0.6c0,0.2-0.1,0.4-0.2,0.6
	c-0.2,0.2-0.4,0.3-0.6,0.2c-0.2,0-0.5-0.1-0.6-0.2C377.3,314.2,377.2,314,377.2,313.8z M382.4,316l0,0.9c0.6-0.7,1.6-1.1,2.5-1.1
	c1-0.1,2,0.4,2.4,1.4c0.3-0.4,0.7-0.7,1.1-1c0.5-0.3,1-0.4,1.6-0.4c1.9,0,2.8,1,2.8,2.9v5.7h-1.4v-5.6c0-0.5-0.1-1-0.4-1.4
	c-0.4-0.3-0.9-0.5-1.4-0.4c-0.5,0-1,0.2-1.3,0.5c-0.4,0.3-0.6,0.8-0.6,1.3v5.6h-1.5V319c0.1-0.9-0.5-1.7-1.4-1.8c-0.1,0-0.3,0-0.4,0
	c-0.8-0.1-1.6,0.4-1.9,1.2v6.2h-1.5V316L382.4,316z M400.3,324.5c-0.1-0.3-0.2-0.6-0.2-0.9c-0.6,0.7-1.5,1.1-2.4,1
	c-0.7,0-1.5-0.2-2.1-0.7c-0.5-0.4-0.8-1.1-0.8-1.8c0-0.8,0.3-1.6,1-2.1c0.8-0.5,1.8-0.8,2.8-0.7h1.4v-0.7c0-0.4-0.1-0.9-0.5-1.2
	c-0.4-0.3-0.8-0.5-1.3-0.4c-0.5,0-0.9,0.1-1.3,0.4c-0.3,0.2-0.5,0.6-0.5,0.9H395c0-0.4,0.2-0.9,0.4-1.2c0.3-0.4,0.7-0.7,1.2-0.9
	c0.5-0.2,1.1-0.3,1.7-0.3c0.8,0,1.6,0.2,2.3,0.7c0.6,0.5,0.9,1.2,0.9,2v3.9c0,0.6,0.1,1.3,0.3,1.9v0.1H400.3z M397.9,323.4
	c0.5,0,0.9-0.1,1.3-0.4c0.4-0.2,0.7-0.5,0.9-0.9v-1.7H399c-1.8,0-2.7,0.5-2.7,1.6c0,0.4,0.1,0.8,0.5,1.1
	C397.1,323.3,397.5,323.4,397.9,323.4L397.9,323.4z M407.9,317.3c-0.2,0-0.5-0.1-0.7-0.1c-0.8-0.1-1.6,0.4-1.9,1.2v6h-1.4V316h1.4
	l0,1c0.4-0.7,1.2-1.2,2-1.1c0.2,0,0.4,0,0.6,0.1V317.3z M410.8,324.5h-1.4V316h1.4V324.5z M409.2,313.8c0-0.2,0.1-0.4,0.2-0.6
	c0.2-0.2,0.4-0.3,0.6-0.2c0.2,0,0.5,0.1,0.6,0.2c0.1,0.2,0.2,0.4,0.2,0.6c0,0.2-0.1,0.4-0.2,0.6c-0.2,0.2-0.4,0.3-0.6,0.2
	c-0.2,0-0.5-0.1-0.6-0.2C409.3,314.2,409.2,314,409.2,313.8z M412.7,320.2c0-0.8,0.2-1.5,0.5-2.2c0.3-0.6,0.8-1.2,1.4-1.5
	c0.6-0.4,1.3-0.6,2-0.5c1.1,0,2.1,0.4,2.8,1.2c0.7,0.9,1.1,2,1.1,3.2v0.1c0,0.8-0.1,1.5-0.5,2.2c-0.3,0.6-0.8,1.2-1.4,1.5
	c-0.6,0.4-1.3,0.6-2,0.5c-1.1,0-2.1-0.4-2.8-1.2C413.1,322.6,412.7,321.4,412.7,320.2L412.7,320.2z M414.2,320.4
	c0,0.8,0.2,1.6,0.7,2.3c0.7,1,2.1,1.1,3.1,0.4c0.1-0.1,0.3-0.3,0.4-0.4c0.5-0.7,0.7-1.6,0.6-2.4c0-0.8-0.2-1.6-0.7-2.3
	c-0.4-0.6-1.1-0.9-1.8-0.9c-0.7,0-1.3,0.3-1.7,0.9C414.4,318.7,414.1,319.5,414.2,320.4L414.2,320.4z M427.2,322.3
	c0-0.4-0.2-0.7-0.4-0.9c-0.5-0.3-1-0.5-1.5-0.6c-0.6-0.1-1.2-0.3-1.7-0.6c-0.4-0.2-0.7-0.4-1-0.8c-0.2-0.3-0.3-0.7-0.3-1.1
	c0-0.7,0.3-1.3,0.9-1.8c0.6-0.5,1.4-0.8,2.2-0.7c0.8,0,1.7,0.2,2.3,0.7c0.6,0.5,0.9,1.2,0.9,1.9h-1.5c0-0.4-0.2-0.8-0.5-1
	c-0.4-0.3-0.8-0.4-1.3-0.4c-0.4,0-0.9,0.1-1.2,0.3c-0.3,0.2-0.5,0.5-0.4,0.9c0,0.3,0.1,0.6,0.4,0.8c0.5,0.2,1,0.4,1.5,0.5
	c0.6,0.1,1.2,0.3,1.8,0.6c0.4,0.2,0.7,0.5,1,0.8c0.2,0.3,0.3,0.7,0.3,1.2c0,0.7-0.3,1.4-0.9,1.8c-0.7,0.5-1.5,0.7-2.4,0.7
	c-0.6,0-1.2-0.1-1.8-0.4c-0.5-0.2-0.9-0.6-1.2-1c-0.3-0.4-0.4-0.9-0.4-1.4h1.4c0,0.5,0.2,0.9,0.6,1.2c0.4,0.3,0.9,0.5,1.4,0.4
	c0.5,0,0.9-0.1,1.3-0.3C427,323,427.2,322.6,427.2,322.3z"/>
<path id="Trazado_149902" class="st1" d="M324,404.5h141c5,0,9,4,9,9v25c0,5-4,9-9,9H324c-5,0-9-4-9-9v-25
	C315,408.5,319,404.5,324,404.5z"/>
<path id="Trazado_149903" class="st3" d="M355.5,426.4c-1-0.2-2-0.7-2.8-1.4c-0.6-0.5-0.9-1.2-0.9-2c0-0.9,0.4-1.7,1.1-2.2
	c0.8-0.6,1.8-0.9,2.8-0.9c0.7,0,1.4,0.1,2.1,0.5c0.6,0.3,1.1,0.7,1.4,1.2c0.3,0.5,0.5,1.1,0.5,1.7h-1.5c0-0.6-0.2-1.2-0.7-1.6
	c-0.5-0.4-1.2-0.6-1.9-0.6c-0.6,0-1.2,0.1-1.7,0.5c-0.4,0.3-0.6,0.8-0.6,1.4c0,0.5,0.2,0.9,0.6,1.2c0.6,0.4,1.3,0.7,2,0.9
	c0.8,0.2,1.5,0.5,2.2,0.9c0.5,0.3,0.9,0.7,1.2,1.1c0.3,0.5,0.4,1,0.4,1.5c0,0.9-0.4,1.7-1.1,2.2c-0.8,0.6-1.9,0.9-2.9,0.8
	c-0.8,0-1.5-0.1-2.2-0.4c-0.6-0.3-1.2-0.7-1.6-1.2c-0.4-0.5-0.6-1.1-0.6-1.8h1.5c0,0.6,0.3,1.2,0.8,1.6c0.6,0.4,1.3,0.6,2,0.6
	c0.6,0,1.3-0.1,1.8-0.5c0.4-0.3,0.7-0.8,0.6-1.3c0-0.5-0.2-1-0.6-1.3C357,426.9,356.2,426.6,355.5,426.4z M364.9,431.7
	c-1.1,0-2.1-0.4-2.8-1.1c-0.7-0.8-1.1-1.9-1.1-3v-0.3c0-0.8,0.1-1.5,0.5-2.2c0.3-0.6,0.8-1.2,1.3-1.5c0.6-0.4,1.2-0.6,1.9-0.6
	c1-0.1,1.9,0.3,2.6,1.1c0.7,0.9,1,2,0.9,3.1v0.6h-5.7c0,0.7,0.2,1.5,0.7,2c0.5,0.5,1.1,0.8,1.8,0.8c0.5,0,0.9-0.1,1.3-0.3
	c0.4-0.2,0.7-0.5,0.9-0.8l0.9,0.7C367.4,431.1,366.2,431.7,364.9,431.7z M364.7,424.1c-0.6,0-1.1,0.2-1.5,0.6
	c-0.4,0.5-0.7,1.1-0.7,1.8h4.2v-0.1c0-0.6-0.2-1.2-0.6-1.7C365.8,424.3,365.3,424.1,364.7,424.1L364.7,424.1z M373.3,430.5
	c0.5,0,1-0.2,1.4-0.5c0.4-0.3,0.6-0.7,0.6-1.2h1.4c0,0.5-0.2,1-0.5,1.4c-0.3,0.4-0.7,0.8-1.2,1c-0.5,0.3-1.1,0.4-1.6,0.4
	c-1,0-2.1-0.4-2.7-1.2c-0.7-0.9-1.1-2-1-3.2v-0.2c0-0.8,0.1-1.5,0.5-2.2c0.3-0.6,0.7-1.1,1.3-1.5c0.6-0.4,1.3-0.5,2-0.5
	c0.9,0,1.7,0.3,2.4,0.9c0.6,0.6,1,1.4,1,2.2h-1.4c0-0.5-0.2-1-0.6-1.3c-0.4-0.4-0.9-0.5-1.4-0.5c-0.7,0-1.3,0.3-1.7,0.8
	c-0.4,0.7-0.7,1.5-0.6,2.3v0.3c-0.1,0.8,0.2,1.6,0.6,2.2C371.9,430.2,372.6,430.5,373.3,430.5L373.3,430.5z M383.5,430.7
	c-0.6,0.7-1.5,1.1-2.5,1c-0.8,0.1-1.5-0.2-2.1-0.8c-0.5-0.7-0.8-1.5-0.7-2.3V423h1.4v5.5c0,1.3,0.5,1.9,1.6,1.9
	c0.9,0.1,1.8-0.4,2.2-1.2V423h1.4v8.5h-1.4L383.5,430.7z M388.4,423l0,1.1c0.6-0.8,1.5-1.2,2.5-1.2c1.8,0,2.7,1,2.7,3v5.6h-1.4v-5.6
	c0-0.5-0.1-1-0.4-1.4c-0.3-0.3-0.8-0.5-1.3-0.4c-0.4,0-0.9,0.1-1.2,0.4c-0.4,0.3-0.6,0.6-0.8,1v6h-1.4V423H388.4z M395.5,427.2
	c-0.1-1.1,0.3-2.2,0.9-3.1c1.1-1.4,3.1-1.6,4.4-0.5c0.1,0.1,0.2,0.2,0.4,0.3v-4.4h1.4v12h-1.3l-0.1-0.9c-0.6,0.7-1.5,1.1-2.4,1.1
	c-0.9,0-1.8-0.4-2.4-1.2c-0.7-0.9-1-2-0.9-3.1V427.2z M397,427.4c0,0.8,0.2,1.6,0.6,2.2c0.4,0.5,1,0.8,1.6,0.8c0.9,0,1.7-0.4,2-1.2
	v-3.9c-0.4-0.8-1.1-1.2-2-1.2c-0.7,0-1.3,0.3-1.7,0.8C397.1,425.7,396.9,426.5,397,427.4L397,427.4z M410.1,431.5
	c-0.1-0.3-0.2-0.6-0.2-0.9c-0.6,0.7-1.5,1.1-2.4,1c-0.7,0-1.5-0.2-2.1-0.7c-0.5-0.4-0.8-1.1-0.8-1.8c0-0.8,0.3-1.6,1-2.1
	c0.8-0.5,1.8-0.8,2.8-0.7h1.4v-0.7c0-0.4-0.1-0.9-0.5-1.2c-0.4-0.3-0.8-0.5-1.3-0.4c-0.5,0-0.9,0.1-1.3,0.4
	c-0.3,0.2-0.5,0.6-0.5,0.9h-1.5c0-0.4,0.2-0.9,0.4-1.2c0.3-0.4,0.7-0.7,1.2-0.9c0.5-0.2,1.1-0.3,1.7-0.3c0.8,0,1.6,0.2,2.3,0.7
	c0.6,0.5,0.9,1.2,0.9,2v3.9c0,0.6,0.1,1.3,0.3,1.9v0.1H410.1z M407.7,430.4c0.5,0,0.9-0.1,1.3-0.4c0.4-0.2,0.7-0.5,0.9-0.9v-1.7
	h-1.1c-1.8,0-2.7,0.5-2.7,1.6c0,0.4,0.1,0.8,0.5,1.1C406.9,430.3,407.3,430.4,407.7,430.4L407.7,430.4z M417.7,424.3
	c-0.2,0-0.5-0.1-0.7-0.1c-0.8-0.1-1.6,0.4-1.9,1.2v6h-1.4V423h1.4l0,1c0.4-0.7,1.2-1.2,2-1.1c0.2,0,0.4,0,0.6,0.1V424.3z
	 M420.6,431.5h-1.4V423h1.4V431.5z M419,420.8c0-0.2,0.1-0.4,0.2-0.6c0.2-0.2,0.4-0.3,0.6-0.2c0.2,0,0.5,0.1,0.6,0.2
	c0.1,0.2,0.2,0.4,0.2,0.6c0,0.2-0.1,0.4-0.2,0.6c-0.2,0.2-0.4,0.3-0.6,0.2c-0.2,0-0.5-0.1-0.6-0.2C419.1,421.2,419,421,419,420.8z
	 M422.5,427.2c0-0.8,0.2-1.5,0.5-2.2c0.3-0.6,0.8-1.2,1.4-1.5c0.6-0.4,1.3-0.6,2-0.5c1.1,0,2.1,0.4,2.8,1.2c0.7,0.9,1.1,2,1.1,3.2
	v0.1c0,0.8-0.1,1.5-0.5,2.2c-0.3,0.6-0.8,1.2-1.4,1.5c-0.6,0.4-1.3,0.6-2,0.5c-1.1,0-2.1-0.4-2.8-1.2
	C422.9,429.6,422.5,428.4,422.5,427.2L422.5,427.2z M424,427.4c0,0.8,0.2,1.6,0.7,2.3c0.7,1,2.1,1.1,3.1,0.4
	c0.1-0.1,0.3-0.3,0.4-0.4c0.5-0.7,0.7-1.6,0.6-2.4c0-0.8-0.2-1.6-0.7-2.3c-0.4-0.6-1.1-0.9-1.8-0.9c-0.7,0-1.3,0.3-1.7,0.9
	C424.2,425.7,423.9,426.5,424,427.4L424,427.4z M437,429.3c0-0.4-0.2-0.7-0.4-0.9c-0.5-0.3-1-0.5-1.5-0.6c-0.6-0.1-1.2-0.3-1.7-0.6
	c-0.4-0.2-0.7-0.4-1-0.8c-0.2-0.3-0.3-0.7-0.3-1.1c0-0.7,0.3-1.3,0.9-1.8c0.6-0.5,1.4-0.8,2.2-0.7c0.8,0,1.7,0.2,2.3,0.7
	c0.6,0.5,0.9,1.2,0.9,1.9h-1.5c0-0.4-0.2-0.8-0.5-1c-0.4-0.3-0.8-0.4-1.3-0.4c-0.4,0-0.9,0.1-1.2,0.3c-0.3,0.2-0.5,0.5-0.4,0.9
	c0,0.3,0.1,0.6,0.4,0.8c0.5,0.2,1,0.4,1.5,0.5c0.6,0.1,1.2,0.3,1.8,0.6c0.4,0.2,0.7,0.5,1,0.8c0.2,0.3,0.3,0.7,0.3,1.2
	c0,0.7-0.3,1.4-0.9,1.8c-0.7,0.5-1.5,0.7-2.4,0.7c-0.6,0-1.2-0.1-1.8-0.4c-0.5-0.2-0.9-0.6-1.2-1c-0.3-0.4-0.4-0.9-0.4-1.4h1.4
	c0,0.5,0.2,0.9,0.6,1.2c0.4,0.3,0.9,0.5,1.4,0.4c0.5,0,0.9-0.1,1.3-0.3C436.8,430,437,429.6,437,429.3L437,429.3z"/>
<path id="Trazado_149904" class="st4" d="M365.9,9.2v4.3h-3.1V0.7h5.1c0.9,0,1.8,0.2,2.6,0.5c0.7,0.3,1.3,0.9,1.7,1.5
	c0.4,0.7,0.6,1.5,0.6,2.3c0,1.2-0.5,2.3-1.3,3c-1.1,0.8-2.4,1.2-3.7,1.1L365.9,9.2z M365.9,6.8h2c0.5,0,1-0.1,1.4-0.4
	c0.3-0.3,0.5-0.8,0.5-1.3c0-0.5-0.1-1-0.5-1.4c-0.3-0.4-0.8-0.6-1.3-0.5h-2.1V6.8z M379.7,13.5c-0.1-0.3-0.2-0.6-0.3-0.9
	c-0.6,0.7-1.4,1.1-2.3,1c-0.8,0-1.7-0.3-2.3-0.8c-0.6-0.5-1-1.3-0.9-2c-0.1-0.9,0.4-1.8,1.1-2.3c1-0.6,2.2-0.9,3.3-0.8h0.9V7.2
	c0-0.9-0.4-1.3-1.1-1.3c-0.5-0.1-1,0.3-1.1,0.8c0,0.1,0,0.2,0,0.3h-3c0-0.9,0.4-1.7,1.2-2.2c0.9-0.6,1.9-0.9,3-0.9
	c1-0.1,2.1,0.3,2.9,0.9c0.7,0.6,1.1,1.5,1.1,2.4v4.2c0,0.7,0.1,1.4,0.4,2v0.1H379.7z M377.8,11.6c0.3,0,0.6-0.1,0.9-0.2
	c0.2-0.1,0.4-0.3,0.5-0.5V9.3h-0.9c-1,0-1.5,0.5-1.5,1.4c0,0.2,0.1,0.5,0.3,0.7C377.3,11.5,377.6,11.6,377.8,11.6z M388.8,10.8
	c0-0.3-0.2-0.5-0.4-0.6c-0.5-0.2-1-0.4-1.5-0.5c-0.6-0.1-1.3-0.3-1.8-0.6c-0.4-0.2-0.8-0.6-1.1-1c-0.3-0.4-0.4-0.8-0.4-1.3
	c0-0.9,0.4-1.7,1.1-2.2c0.8-0.6,1.8-0.9,2.8-0.8c1.1-0.1,2.1,0.2,3,0.9c0.7,0.5,1.2,1.3,1.1,2.2h-3c0-0.8-0.4-1.1-1.2-1.1
	c-0.3,0-0.6,0.1-0.8,0.3c-0.2,0.2-0.3,0.4-0.3,0.6c0,0.3,0.2,0.5,0.4,0.6c0.4,0.2,0.8,0.3,1.2,0.4c0.5,0.1,1,0.2,1.5,0.4
	c1.2,0.3,2.1,1.4,2.1,2.6c0,0.9-0.4,1.7-1.2,2.1c-0.9,0.6-1.9,0.9-3,0.8c-0.7,0-1.5-0.1-2.2-0.4c-0.6-0.3-1.1-0.7-1.5-1.2
	c-0.3-0.5-0.5-1-0.5-1.6h2.8c0,0.4,0.1,0.7,0.4,1c0.3,0.2,0.7,0.3,1.1,0.3c0.3,0,0.6-0.1,0.9-0.2C388.7,11.3,388.8,11.1,388.8,10.8z
	 M392.7,8.7c0-0.9,0.2-1.7,0.6-2.5c0.3-0.7,0.9-1.3,1.6-1.7c0.7-0.4,1.6-0.6,2.4-0.6c1.3-0.1,2.5,0.4,3.4,1.3c0.9,1,1.3,2.3,1.2,3.6
	v0.1c0.1,1.3-0.4,2.6-1.2,3.5c-0.9,0.9-2.1,1.4-3.3,1.3c-1.2,0.1-2.4-0.4-3.3-1.2c-0.9-0.9-1.3-2.1-1.3-3.3L392.7,8.7z M395.7,8.8
	c0,0.7,0.1,1.3,0.4,1.9c0.3,0.4,0.7,0.6,1.2,0.6c1.1,0,1.6-0.8,1.6-2.4V8.7c0-1.7-0.5-2.6-1.6-2.6c-1,0-1.5,0.7-1.6,2.2L395.7,8.8z
	 M408.2,10.8c0-0.3-0.2-0.5-0.4-0.6c-0.5-0.2-1-0.4-1.5-0.5c-0.6-0.1-1.3-0.3-1.8-0.6c-0.4-0.2-0.8-0.6-1.1-1
	c-0.3-0.4-0.4-0.8-0.4-1.3c0-0.9,0.4-1.7,1.1-2.2c0.8-0.6,1.8-0.9,2.8-0.8c1.1-0.1,2.1,0.2,3,0.9c0.7,0.5,1.2,1.3,1.1,2.2h-3
	c0-0.8-0.4-1.1-1.2-1.1c-0.3,0-0.6,0.1-0.8,0.3c-0.2,0.2-0.3,0.4-0.3,0.6c0,0.3,0.2,0.5,0.4,0.6c0.4,0.2,0.8,0.3,1.2,0.4
	c0.5,0.1,1,0.2,1.5,0.4c1.3,0.3,2.1,1.4,2.1,2.6c0,0.9-0.4,1.7-1.2,2.1c-0.9,0.6-1.9,0.9-3,0.8c-0.7,0-1.5-0.1-2.2-0.4
	c-0.6-0.3-1.1-0.7-1.5-1.2c-0.3-0.5-0.5-1-0.5-1.6h2.8c0,0.4,0.1,0.7,0.4,1c0.3,0.2,0.7,0.3,1.1,0.3c0.3,0,0.6-0.1,0.9-0.2
	C408.1,11.3,408.2,11.1,408.2,10.8L408.2,10.8z M425.7,8.8c0.1,1.3-0.3,2.5-1,3.5c-0.6,0.9-1.6,1.4-2.7,1.3c-0.8,0-1.6-0.3-2.2-1
	v4.4h-3V4h2.8l0.1,0.9c0.5-0.7,1.4-1.1,2.2-1.1c1.1,0,2.1,0.4,2.7,1.3c0.7,1,1,2.3,1,3.6L425.7,8.8z M422.8,8.6
	c0-1.7-0.5-2.5-1.5-2.5c-0.6-0.1-1.1,0.2-1.4,0.8v3.7c0.3,0.5,0.8,0.8,1.4,0.8c0.9,0,1.4-0.8,1.5-2.4L422.8,8.6z M432.4,13.5
	c-0.1-0.3-0.2-0.6-0.3-0.9c-0.6,0.7-1.4,1.1-2.3,1c-0.8,0-1.7-0.3-2.3-0.8c-0.6-0.5-1-1.3-0.9-2c-0.1-0.9,0.4-1.8,1.1-2.3
	c1-0.6,2.2-0.9,3.3-0.8h0.9V7.2c0-0.9-0.4-1.3-1.1-1.3c-0.5-0.1-1,0.3-1.1,0.8c0,0.1,0,0.2,0,0.3h-3c0-0.9,0.4-1.7,1.2-2.2
	c0.9-0.6,1.9-0.9,3-0.9c1-0.1,2.1,0.3,2.9,0.9c0.7,0.6,1.1,1.5,1.1,2.4v4.2c0,0.7,0.1,1.4,0.4,2v0.2H432.4z M430.5,11.6
	c0.3,0,0.6-0.1,0.9-0.2c0.2-0.1,0.4-0.3,0.5-0.5V9.3h-0.9c-1,0-1.5,0.5-1.5,1.4c0,0.2,0.1,0.5,0.3,0.7
	C430,11.5,430.3,11.6,430.5,11.6L430.5,11.6z M442.3,6.7l-1-0.1c-0.7-0.1-1.4,0.2-1.8,0.9v6h-3V4h2.8l0.1,1.2
	c0.4-0.8,1.2-1.4,2.1-1.4c0.3,0,0.6,0,0.8,0.1L442.3,6.7z M448.5,13.5c-0.1-0.3-0.2-0.6-0.3-0.9c-0.6,0.7-1.4,1.1-2.3,1
	c-0.8,0-1.7-0.3-2.3-0.8c-0.6-0.5-1-1.3-0.9-2c-0.1-0.9,0.4-1.8,1.1-2.3c1-0.6,2.2-0.9,3.3-0.8h0.9V7.2c0-0.9-0.4-1.3-1.1-1.3
	c-0.5-0.1-1,0.3-1.1,0.8c0,0.1,0,0.2,0,0.3h-3c0-0.9,0.4-1.7,1.2-2.2c0.9-0.6,1.9-0.9,3-0.9c1-0.1,2.1,0.3,2.9,0.9
	c0.7,0.6,1.1,1.5,1.1,2.4v4.2c0,0.7,0.1,1.4,0.4,2v0.2H448.5z M446.6,11.6c0.3,0,0.6-0.1,0.9-0.2c0.2-0.1,0.4-0.3,0.5-0.5V9.3h-0.9
	c-1,0-1.5,0.5-1.5,1.4c0,0.2,0.1,0.5,0.3,0.7C446.1,11.5,446.4,11.6,446.6,11.6z M462.5,13.5c-0.1-0.3-0.2-0.6-0.3-0.9
	c-0.6,0.7-1.4,1.1-2.3,1c-0.8,0-1.7-0.3-2.3-0.8c-0.6-0.5-1-1.3-0.9-2c-0.1-0.9,0.4-1.8,1.1-2.3c1-0.6,2.2-0.9,3.3-0.8h0.9V7.2
	c0-0.9-0.4-1.3-1.1-1.3c-0.5-0.1-1,0.3-1.1,0.8c0,0.1,0,0.2,0,0.3h-3c0-0.9,0.4-1.7,1.2-2.2c0.9-0.6,1.9-0.9,3-0.9
	c1-0.1,2.1,0.3,2.9,0.9c0.7,0.6,1.1,1.5,1.1,2.4v4.2c0,0.7,0.1,1.4,0.4,2v0.2H462.5z M460.7,11.6c0.3,0,0.6-0.1,0.9-0.2
	c0.2-0.1,0.4-0.3,0.5-0.5V9.3h-0.9c-1,0-1.5,0.5-1.5,1.4c0,0.2,0.1,0.5,0.3,0.7C460.2,11.5,460.4,11.6,460.7,11.6z M475.6,8.8
	c0.1,1.3-0.3,2.5-1,3.5c-0.6,0.9-1.6,1.4-2.7,1.3c-0.8,0-1.6-0.3-2.2-1v4.4h-3V4h2.8l0.1,0.9c0.5-0.7,1.4-1.1,2.2-1.1
	c1.1,0,2.1,0.4,2.7,1.3c0.7,1,1,2.3,1,3.6L475.6,8.8z M472.6,8.6c0-1.7-0.5-2.5-1.5-2.5c-0.6-0.1-1.1,0.2-1.4,0.8v3.7
	c0.3,0.5,0.8,0.8,1.4,0.8c0.9,0,1.4-0.8,1.5-2.4V8.6z M480,13.5h-3V0h3V13.5z M484.9,13.5h-3V4h3V13.5z M481.8,1.5
	c0-0.4,0.2-0.8,0.5-1c0.7-0.5,1.7-0.5,2.4,0c0.3,0.3,0.5,0.6,0.5,1c0,0.4-0.2,0.8-0.5,1c-0.7,0.5-1.7,0.5-2.4,0
	C481.9,2.3,481.8,1.9,481.8,1.5z M490.8,11.4c0.4,0,0.7-0.1,1-0.3c0.2-0.3,0.4-0.6,0.3-0.9h2.8c0,1-0.4,1.9-1.1,2.6
	c-0.8,0.7-1.8,1-2.9,1c-1.2,0.1-2.4-0.4-3.3-1.3c-0.8-1-1.3-2.3-1.2-3.6V8.7c0-0.9,0.2-1.7,0.5-2.5c0.3-0.7,0.9-1.3,1.5-1.7
	c0.7-0.4,1.5-0.6,2.4-0.6c1.1-0.1,2.1,0.3,2.9,1c0.7,0.7,1.1,1.7,1.1,2.8h-2.8c0-0.4-0.1-0.8-0.4-1.1c-0.2-0.3-0.6-0.4-1-0.4
	c-0.8,0-1.2,0.5-1.3,1.5c0,0.4-0.1,0.9-0.1,1.3c-0.1,0.7,0.1,1.4,0.3,2C489.9,11.2,490.3,11.4,490.8,11.4L490.8,11.4z M501.5,13.5
	c-0.1-0.3-0.2-0.6-0.3-0.9c-0.6,0.7-1.4,1.1-2.3,1c-0.8,0-1.7-0.3-2.3-0.8c-0.6-0.5-1-1.3-0.9-2c-0.1-0.9,0.4-1.8,1.1-2.3
	c1-0.6,2.2-0.9,3.3-0.8h0.9V7.2c0-0.9-0.4-1.3-1.1-1.3c-0.5-0.1-1,0.3-1.1,0.8c0,0.1,0,0.2,0,0.3h-3c0-0.9,0.4-1.7,1.2-2.2
	c0.9-0.6,1.9-0.9,3-0.9c1-0.1,2.1,0.3,2.9,0.9c0.7,0.6,1.1,1.5,1.1,2.4v4.2c0,0.7,0.1,1.4,0.4,2v0.2H501.5z M499.6,11.6
	c0.3,0,0.6-0.1,0.9-0.2c0.2-0.1,0.4-0.3,0.5-0.5V9.3h-0.9c-1,0-1.5,0.5-1.5,1.4c0,0.2,0.1,0.5,0.3,0.7
	C499.1,11.5,499.4,11.6,499.6,11.6L499.6,11.6z M511.4,6.7l-1-0.1c-0.7-0.1-1.4,0.2-1.8,0.9v6h-3V4h2.8l0.1,1.2
	c0.4-0.8,1.2-1.4,2.1-1.4c0.3,0,0.6,0,0.8,0.1L511.4,6.7z M522.6,12.5c-0.6,0.8-1.5,1.2-2.5,1.2c-0.9,0.1-1.8-0.3-2.4-0.9
	c-0.6-0.7-0.9-1.7-0.8-2.6V4h3v6.2c-0.1,0.6,0.3,1.1,0.9,1.2c0.1,0,0.2,0,0.3,0c0.6,0.1,1.1-0.2,1.5-0.7V4h3v9.5h-2.8L522.6,12.5z
	 M529.8,4l0.1,1.1c0.6-0.9,1.7-1.3,2.7-1.3c0.8-0.1,1.7,0.3,2.2,0.9c0.5,0.8,0.8,1.7,0.8,2.7v6.1h-3v-6c0-0.4-0.1-0.8-0.3-1.1
	c-0.3-0.3-0.7-0.4-1.1-0.3c-0.5,0-1,0.2-1.3,0.7v6.7h-3V4L529.8,4z M542.6,13.5c-0.1-0.3-0.2-0.6-0.3-0.9c-0.6,0.7-1.4,1.1-2.3,1
	c-0.8,0-1.7-0.3-2.3-0.8c-0.6-0.5-1-1.3-0.9-2c-0.1-0.9,0.4-1.8,1.1-2.3c1-0.6,2.2-0.9,3.3-0.8h0.9V7.2c0-0.9-0.4-1.3-1.1-1.3
	c-0.5-0.1-1,0.3-1.1,0.8c0,0.1,0,0.2,0,0.3h-3c0-0.9,0.4-1.7,1.2-2.2c0.9-0.6,1.9-0.9,3-0.9c1-0.1,2.1,0.3,2.9,0.9
	c0.7,0.6,1.1,1.5,1.1,2.4v4.2c0,0.7,0.1,1.4,0.4,2v0.2H542.6z M540.8,11.6c0.3,0,0.6-0.1,0.9-0.2c0.2-0.1,0.4-0.3,0.5-0.5V9.3h-0.9
	c-1,0-1.5,0.5-1.5,1.4c0,0.2,0.1,0.5,0.3,0.7C540.3,11.5,540.5,11.6,540.8,11.6L540.8,11.6z M555.9,13.7c-1.3,0.1-2.6-0.4-3.5-1.3
	c-0.9-0.9-1.4-2.1-1.4-3.4V8.7c0-0.9,0.2-1.8,0.5-2.6c0.3-0.7,0.9-1.3,1.6-1.7c0.8-0.4,1.6-0.6,2.5-0.6c1.2-0.1,2.3,0.4,3.2,1.2
	c0.8,1,1.2,2.2,1.2,3.5v1.2H554c0.1,0.5,0.3,0.9,0.7,1.3c0.4,0.3,0.9,0.5,1.4,0.5c0.8,0,1.7-0.3,2.2-1l1.4,1.6
	c-0.4,0.5-0.9,1-1.6,1.2C557.4,13.5,556.7,13.7,555.9,13.7z M555.6,6.1c-0.9,0-1.4,0.6-1.5,1.7h3V7.6c0-0.4-0.1-0.8-0.4-1.1
	C556.4,6.2,556,6.1,555.6,6.1z M563.8,4l0.1,1.1c0.6-0.9,1.7-1.3,2.7-1.3c0.8-0.1,1.7,0.3,2.2,0.9c0.5,0.8,0.8,1.7,0.8,2.7v6.1h-3
	v-6c0-0.4-0.1-0.8-0.3-1.1c-0.3-0.3-0.7-0.4-1.1-0.3c-0.5,0-1,0.2-1.3,0.7v6.7h-3V4L563.8,4z M574.7,1.6V4h1.6V6h-1.6v4.4
	c0,0.3,0,0.5,0.2,0.7c0.2,0.2,0.5,0.2,0.8,0.2c0.2,0,0.5,0,0.7-0.1v2.1c-0.5,0.2-1.1,0.3-1.7,0.3c-0.8,0.1-1.6-0.2-2.3-0.7
	c-0.5-0.6-0.8-1.4-0.7-2.2V6h-1.2V4h1.2V1.6H574.7z M583.2,6.7l-1-0.1c-0.7-0.1-1.4,0.2-1.8,0.9v6h-3V4h2.8l0.1,1.2
	c0.4-0.8,1.2-1.4,2.1-1.4c0.3,0,0.6,0,0.8,0.1L583.2,6.7z M588.7,13.7c-1.3,0.1-2.6-0.4-3.5-1.3c-0.9-0.9-1.4-2.1-1.4-3.4V8.7
	c0-0.9,0.2-1.8,0.5-2.6c0.3-0.7,0.9-1.3,1.6-1.7c0.8-0.4,1.6-0.6,2.5-0.6c1.2-0.1,2.3,0.4,3.2,1.2c0.8,1,1.2,2.2,1.2,3.5v1.2h-5.9
	c0.1,0.5,0.3,0.9,0.7,1.3c0.4,0.3,0.9,0.5,1.4,0.5c0.8,0,1.7-0.3,2.2-1l1.4,1.6c-0.4,0.5-0.9,1-1.6,1.2
	C590.2,13.5,589.4,13.7,588.7,13.7L588.7,13.7z M588.4,6.1c-0.9,0-1.4,0.6-1.5,1.7h3V7.6c0-0.4-0.1-0.8-0.4-1.1
	C589.1,6.2,588.8,6.1,588.4,6.1z M597.6,10l1.5-6h3.1l-3.1,9.5h-3L593,4h3.1L597.6,10z M606.2,13.5h-3V4h3V13.5z M603,1.5
	c0-0.4,0.2-0.8,0.5-1c0.7-0.5,1.7-0.5,2.4,0c0.3,0.3,0.5,0.6,0.5,1c0,0.4-0.2,0.8-0.5,1c-0.7,0.5-1.7,0.5-2.4,0
	C603.2,2.3,603,1.9,603,1.5z M613,10.8c0-0.3-0.2-0.5-0.4-0.6c-0.5-0.2-1-0.4-1.5-0.5c-0.6-0.1-1.3-0.3-1.8-0.6
	c-0.4-0.2-0.8-0.6-1.1-1c-0.3-0.4-0.4-0.8-0.4-1.3c0-0.9,0.4-1.7,1.1-2.2c0.8-0.6,1.8-0.9,2.8-0.8c1.1-0.1,2.1,0.2,3,0.9
	c0.7,0.5,1.2,1.3,1.1,2.2h-3c0-0.8-0.4-1.1-1.2-1.1c-0.3,0-0.6,0.1-0.8,0.3c-0.2,0.2-0.3,0.4-0.3,0.6c0,0.3,0.2,0.5,0.4,0.6
	c0.4,0.2,0.8,0.3,1.2,0.4c0.5,0.1,1,0.2,1.5,0.4c1.3,0.3,2.1,1.4,2.1,2.6c0,0.9-0.4,1.7-1.2,2.1c-0.9,0.6-1.9,0.9-3,0.8
	c-0.7,0-1.5-0.1-2.2-0.4c-0.6-0.3-1.1-0.7-1.5-1.2c-0.3-0.5-0.5-1-0.5-1.6h2.8c0,0.4,0.1,0.7,0.4,1c0.3,0.2,0.7,0.3,1.1,0.3
	c0.3,0,0.6-0.1,0.9-0.2C612.9,11.3,613,11.1,613,10.8L613,10.8z M620.7,1.6V4h1.6V6h-1.6v4.4c0,0.3,0,0.5,0.2,0.7
	c0.2,0.2,0.5,0.2,0.8,0.2c0.2,0,0.5,0,0.7-0.1v2.1c-0.5,0.2-1.1,0.3-1.7,0.3c-0.8,0.1-1.6-0.2-2.3-0.7c-0.5-0.6-0.8-1.4-0.7-2.2V6
	h-1.2V4h1.2V1.6L620.7,1.6z M628.8,13.5c-0.1-0.3-0.2-0.6-0.3-0.9c-0.6,0.7-1.4,1.1-2.3,1c-0.8,0-1.7-0.3-2.3-0.8
	c-0.6-0.5-1-1.3-0.9-2c-0.1-0.9,0.4-1.8,1.1-2.3c1-0.6,2.2-0.9,3.3-0.8h0.9V7.2c0-0.9-0.4-1.3-1.1-1.3c-0.5-0.1-1,0.3-1.1,0.8
	c0,0.1,0,0.2,0,0.3h-3c0-0.9,0.4-1.7,1.2-2.2c0.9-0.6,1.9-0.9,3-0.9c1-0.1,2.1,0.3,2.9,0.9c0.7,0.6,1.1,1.5,1.1,2.4v4.2
	c0,0.7,0.1,1.4,0.4,2v0.2H628.8z M626.9,11.6c0.3,0,0.6-0.1,0.9-0.2c0.2-0.1,0.4-0.3,0.5-0.5V9.3h-0.9c-1,0-1.5,0.5-1.5,1.4
	c0,0.2,0.1,0.5,0.3,0.7C626.4,11.5,626.7,11.6,626.9,11.6L626.9,11.6z"/>
<path id="Trazado_149905" class="st5" d="M361.5,23h269"/>
<g>
	<path class="st3" d="M51.8,211.3c-1.3-0.4-2.2-0.8-2.8-1.4c-0.6-0.5-0.9-1.2-0.9-2c0-0.9,0.4-1.7,1.1-2.2c0.7-0.6,1.7-0.9,2.8-0.9
		c0.8,0,1.5,0.2,2.1,0.5c0.6,0.3,1.1,0.7,1.4,1.3c0.3,0.5,0.5,1.1,0.5,1.8h-1.5c0-0.7-0.2-1.2-0.7-1.6c-0.4-0.4-1.1-0.6-1.9-0.6
		c-0.7,0-1.3,0.2-1.7,0.5s-0.6,0.8-0.6,1.4c0,0.5,0.2,0.9,0.6,1.2c0.4,0.3,1.1,0.6,2,0.9s1.7,0.6,2.2,0.9s0.9,0.7,1.2,1.1
		c0.3,0.4,0.4,0.9,0.4,1.5c0,0.9-0.4,1.7-1.1,2.2s-1.7,0.8-2.9,0.8c-0.8,0-1.5-0.2-2.2-0.5c-0.7-0.3-1.2-0.7-1.6-1.2
		s-0.6-1.1-0.6-1.8h1.5c0,0.7,0.3,1.2,0.8,1.6s1.2,0.6,2.1,0.6c0.8,0,1.4-0.2,1.8-0.5s0.6-0.8,0.6-1.3c0-0.6-0.2-1-0.6-1.3
		C53.5,211.9,52.8,211.6,51.8,211.3z"/>
	<path class="st3" d="M61.3,216.6c-1.2,0-2.1-0.4-2.8-1.1s-1.1-1.8-1.1-3v-0.3c0-0.8,0.2-1.6,0.5-2.3c0.3-0.7,0.8-1.2,1.4-1.6
		s1.2-0.6,1.9-0.6c1.1,0,2,0.4,2.6,1.1c0.6,0.7,0.9,1.8,0.9,3.1v0.6h-5.8c0,0.8,0.3,1.5,0.7,2s1.1,0.8,1.8,0.8c0.5,0,1-0.1,1.3-0.3
		c0.4-0.2,0.7-0.5,0.9-0.8l0.9,0.7C63.8,216,62.7,216.6,61.3,216.6z M61.1,208.9c-0.6,0-1.1,0.2-1.5,0.6c-0.4,0.4-0.6,1-0.7,1.8h4.3
		v-0.1c0-0.7-0.2-1.3-0.6-1.7S61.7,208.9,61.1,208.9z"/>
	<path class="st3" d="M65.9,212.1c0-1.3,0.3-2.4,0.9-3.2c0.6-0.8,1.4-1.2,2.4-1.2c1,0,1.9,0.4,2.4,1.1l0.1-0.9h1.3v8.3
		c0,1.1-0.3,2-1,2.6c-0.7,0.6-1.5,1-2.6,1c-0.6,0-1.2-0.1-1.8-0.4c-0.6-0.3-1-0.6-1.3-1.1l0.8-0.9c0.6,0.8,1.4,1.2,2.3,1.2
		c0.7,0,1.3-0.2,1.7-0.6c0.4-0.4,0.6-1,0.6-1.7v-0.7c-0.6,0.7-1.4,1-2.4,1c-1,0-1.8-0.4-2.4-1.2C66.2,214.6,65.9,213.5,65.9,212.1z
		 M67.4,212.3c0,1,0.2,1.7,0.6,2.3c0.4,0.5,0.9,0.8,1.7,0.8c0.9,0,1.6-0.4,2-1.3v-3.9c-0.4-0.8-1.1-1.2-2-1.2
		c-0.7,0-1.3,0.3-1.7,0.8C67.6,210.4,67.4,211.2,67.4,212.3z"/>
	<path class="st3" d="M80.6,215.6c-0.6,0.7-1.4,1-2.5,1c-0.9,0-1.6-0.3-2.1-0.8c-0.5-0.5-0.7-1.3-0.7-2.3v-5.5h1.5v5.5
		c0,1.3,0.5,1.9,1.6,1.9c1.1,0,1.9-0.4,2.2-1.2v-6.2H82v8.5h-1.4L80.6,215.6z M79.4,204.3h1.8l-2.1,2.3l-1.2,0L79.4,204.3z"/>
	<path class="st3" d="M85.6,207.9l0,1.1c0.7-0.8,1.5-1.2,2.6-1.2c1.8,0,2.7,1,2.7,3v5.6h-1.5v-5.6c0-0.6-0.1-1.1-0.4-1.4
		c-0.3-0.3-0.7-0.4-1.3-0.4c-0.5,0-0.9,0.1-1.2,0.4c-0.4,0.3-0.6,0.6-0.8,1v6.1h-1.5v-8.5H85.6z"/>
	<path class="st3" d="M96.7,212.1c0-0.8,0.2-1.6,0.5-2.3c0.3-0.7,0.8-1.2,1.4-1.5c0.6-0.4,1.3-0.5,2-0.5c1.2,0,2.1,0.4,2.8,1.2
		c0.7,0.8,1.1,1.9,1.1,3.2v0.1c0,0.8-0.2,1.6-0.5,2.2c-0.3,0.7-0.8,1.2-1.4,1.5c-0.6,0.4-1.3,0.6-2,0.6c-1.2,0-2.1-0.4-2.8-1.2
		c-0.7-0.8-1.1-1.9-1.1-3.2V212.1z M98.2,212.3c0,0.9,0.2,1.7,0.7,2.3c0.4,0.6,1,0.9,1.8,0.9c0.7,0,1.3-0.3,1.8-0.9s0.7-1.4,0.7-2.4
		c0-0.9-0.2-1.7-0.7-2.3c-0.4-0.6-1-0.9-1.8-0.9c-0.7,0-1.3,0.3-1.7,0.9C98.4,210.4,98.2,211.2,98.2,212.3z"/>
	<path class="st3" d="M113.6,212.3c0,1.3-0.3,2.3-0.9,3.1c-0.6,0.8-1.4,1.2-2.4,1.2c-1.1,0-1.9-0.4-2.5-1.1l-0.1,1h-1.3v-12.1h1.5
		v4.5c0.6-0.7,1.4-1.1,2.4-1.1c1,0,1.8,0.4,2.4,1.2c0.6,0.8,0.9,1.9,0.9,3.2V212.3z M112.1,212.1c0-1-0.2-1.8-0.6-2.3
		c-0.4-0.5-0.9-0.8-1.7-0.8c-1,0-1.7,0.4-2.1,1.3v3.7c0.4,0.9,1.1,1.3,2.1,1.3c0.7,0,1.2-0.3,1.6-0.8
		C111.9,214,112.1,213.2,112.1,212.1z"/>
	<path class="st3" d="M116.9,207.9v9.5c0,1.6-0.7,2.5-2.2,2.5c-0.3,0-0.6,0-0.9-0.1v-1.2c0.2,0,0.4,0.1,0.7,0.1
		c0.3,0,0.6-0.1,0.7-0.3c0.2-0.2,0.3-0.5,0.3-0.9v-9.6H116.9z M115.3,205.6c0-0.2,0.1-0.4,0.2-0.6c0.1-0.2,0.4-0.2,0.6-0.2
		c0.3,0,0.5,0.1,0.6,0.2c0.1,0.2,0.2,0.4,0.2,0.6c0,0.2-0.1,0.4-0.2,0.6s-0.4,0.2-0.6,0.2s-0.5-0.1-0.6-0.2
		C115.4,206.1,115.3,205.9,115.3,205.6z"/>
	<path class="st3" d="M122.8,216.6c-1.2,0-2.1-0.4-2.8-1.1s-1.1-1.8-1.1-3v-0.3c0-0.8,0.2-1.6,0.5-2.3c0.3-0.7,0.8-1.2,1.4-1.6
		s1.2-0.6,1.9-0.6c1.1,0,2,0.4,2.6,1.1c0.6,0.7,0.9,1.8,0.9,3.1v0.6h-5.8c0,0.8,0.3,1.5,0.7,2s1.1,0.8,1.8,0.8c0.5,0,1-0.1,1.3-0.3
		c0.4-0.2,0.7-0.5,0.9-0.8l0.9,0.7C125.3,216,124.2,216.6,122.8,216.6z M122.6,208.9c-0.6,0-1.1,0.2-1.5,0.6c-0.4,0.4-0.6,1-0.7,1.8
		h4.3v-0.1c0-0.7-0.2-1.3-0.6-1.7S123.2,208.9,122.6,208.9z"/>
	<path class="st3" d="M129.8,205.8v2.1h1.6v1.1h-1.6v5.3c0,0.3,0.1,0.6,0.2,0.8c0.1,0.2,0.4,0.3,0.7,0.3c0.2,0,0.4,0,0.7-0.1v1.2
		c-0.4,0.1-0.8,0.2-1.1,0.2c-0.7,0-1.1-0.2-1.5-0.6s-0.5-1-0.5-1.7V209h-1.6v-1.1h1.6v-2.1H129.8z"/>
	<path class="st3" d="M133.1,205.6c0-0.2,0.1-0.4,0.2-0.6c0.1-0.2,0.4-0.2,0.6-0.2s0.5,0.1,0.6,0.2c0.1,0.2,0.2,0.4,0.2,0.6
		c0,0.2-0.1,0.4-0.2,0.6c-0.1,0.2-0.4,0.2-0.6,0.2s-0.5-0.1-0.6-0.2C133.2,206.1,133.1,205.9,133.1,205.6z M134.7,216.4h-1.5v-8.5
		h1.5V216.4z"/>
	<path class="st3" d="M139.8,214.4l2.1-6.5h1.5l-3.1,8.5h-1.1l-3.1-8.5h1.5L139.8,214.4z"/>
	<path class="st3" d="M144.3,212.1c0-0.8,0.2-1.6,0.5-2.3c0.3-0.7,0.8-1.2,1.4-1.5c0.6-0.4,1.3-0.5,2-0.5c1.2,0,2.1,0.4,2.8,1.2
		c0.7,0.8,1.1,1.9,1.1,3.2v0.1c0,0.8-0.2,1.6-0.5,2.2c-0.3,0.7-0.8,1.2-1.4,1.5c-0.6,0.4-1.3,0.6-2,0.6c-1.2,0-2.1-0.4-2.8-1.2
		c-0.7-0.8-1.1-1.9-1.1-3.2V212.1z M145.8,212.3c0,0.9,0.2,1.7,0.7,2.3c0.4,0.6,1,0.9,1.8,0.9c0.7,0,1.3-0.3,1.8-0.9
		s0.7-1.4,0.7-2.4c0-0.9-0.2-1.7-0.7-2.3c-0.4-0.6-1-0.9-1.8-0.9c-0.7,0-1.3,0.3-1.7,0.9C146,210.4,145.8,211.2,145.8,212.3z"/>
	<path class="st3" d="M158.9,214.2c0-0.4-0.1-0.7-0.4-0.9c-0.3-0.2-0.8-0.4-1.6-0.6c-0.7-0.2-1.3-0.3-1.8-0.6s-0.8-0.5-1-0.8
		c-0.2-0.3-0.3-0.7-0.3-1.1c0-0.7,0.3-1.3,0.9-1.8c0.6-0.5,1.3-0.7,2.3-0.7c1,0,1.8,0.2,2.4,0.7s0.9,1.1,0.9,1.9h-1.5
		c0-0.4-0.2-0.7-0.5-1s-0.8-0.4-1.3-0.4c-0.5,0-0.9,0.1-1.2,0.3c-0.3,0.2-0.4,0.5-0.4,0.9c0,0.4,0.1,0.6,0.4,0.8
		c0.3,0.2,0.8,0.3,1.5,0.5c0.7,0.2,1.3,0.4,1.8,0.6s0.8,0.5,1,0.8c0.2,0.3,0.3,0.7,0.3,1.2c0,0.8-0.3,1.4-0.9,1.8
		c-0.6,0.5-1.4,0.7-2.4,0.7c-0.7,0-1.3-0.1-1.8-0.4c-0.5-0.2-0.9-0.6-1.2-1c-0.3-0.4-0.4-0.9-0.4-1.4h1.5c0,0.5,0.2,0.9,0.6,1.2
		c0.4,0.3,0.8,0.4,1.4,0.4c0.6,0,1-0.1,1.3-0.3C158.7,214.8,158.9,214.5,158.9,214.2z"/>
</g>
</svg>
